<svg width="24" height="24" viewBox="0 0 24 24" fill="none" xmlns="http://www.w3.org/2000/svg">
<path d="M11.3985 0.00375167C9.47248 0.0270017 5.33173 0.343502 3.01573 2.46825C1.29298 4.17525 0.691482 6.699 0.620982 9.81975C0.562482 12.9293 0.491982 18.7688 6.12073 20.3588V22.7805C6.12073 22.7805 6.08548 23.7495 6.72598 23.9483C7.51498 24.198 7.96423 23.4525 8.71423 22.6515L10.113 21.0698C13.9642 21.39 16.914 20.652 17.2537 20.5425C18.0352 20.2928 22.437 19.7303 23.1562 13.89C23.8942 7.8585 22.797 4.05825 20.8162 2.33925H20.8042C20.2065 1.78875 17.8042 0.0382517 12.4372 0.0187517C12.4372 0.0187517 12.039 -0.00824833 11.3985 0.00300167V0.00375167ZM11.4645 1.6995C12.0112 1.69575 12.3435 1.719 12.3435 1.719C16.8862 1.731 19.0545 3.09825 19.566 3.55875C21.234 4.98825 22.0935 8.41425 21.4642 13.4498C20.8665 18.3323 17.2965 18.6413 16.6357 18.852C16.3545 18.942 13.7565 19.5825 10.4835 19.3718C10.4835 19.3718 8.04598 22.3133 7.28398 23.0708C7.16323 23.2035 7.02223 23.2425 6.93223 23.223C6.80323 23.1915 6.76423 23.0318 6.77173 22.8128L6.79498 18.7935C2.02123 17.4735 2.30248 12.4928 2.35348 9.891C2.41198 7.28925 2.90023 5.16075 4.35373 3.71925C6.31048 1.95 9.82648 1.7115 11.463 1.6995H11.4645ZM11.8245 4.3005C11.7852 4.30011 11.7462 4.30749 11.7098 4.32223C11.6734 4.33697 11.6402 4.35877 11.6123 4.38638C11.5843 4.41399 11.5621 4.44686 11.5469 4.48309C11.5317 4.51933 11.5238 4.55821 11.5237 4.5975C11.5237 4.7655 11.6602 4.89825 11.8245 4.89825C12.5681 4.88411 13.3072 5.01733 13.9991 5.29022C14.691 5.56312 15.322 5.97029 15.8557 6.48825C16.9455 7.5465 17.4765 8.9685 17.4967 10.8278C17.4967 10.992 17.6295 11.1285 17.7975 11.1285V11.1165C17.8767 11.1167 17.9527 11.0856 18.009 11.03C18.0654 10.9743 18.0974 10.8987 18.0982 10.8195C18.1346 9.94436 17.9927 9.07096 17.6811 8.25238C17.3695 7.43379 16.8946 6.68712 16.2855 6.05775C15.0982 4.8975 13.5937 4.29975 11.8245 4.29975V4.3005ZM7.87123 4.98825C7.65894 4.95723 7.44243 4.99985 7.25773 5.109H7.24198C6.81318 5.36036 6.42689 5.67804 6.09748 6.05025C5.82373 6.36675 5.67523 6.687 5.63623 6.99525C5.61298 7.179 5.62873 7.36275 5.68348 7.53825L5.70298 7.55025C6.01123 8.45625 6.41398 9.32775 6.90598 10.1483C7.53975 11.301 8.3197 12.367 9.22648 13.32L9.25348 13.359L9.29623 13.3905L9.32323 13.422L9.35473 13.449C10.3112 14.3584 11.3798 15.142 12.5347 15.7808C13.8547 16.4993 14.6557 16.839 15.1365 16.98V16.9875C15.2775 17.0303 15.4057 17.0498 15.5347 17.0498C15.9444 17.0197 16.3323 16.8534 16.6365 16.5773C17.007 16.2478 17.3211 15.8599 17.5665 15.429V15.4215C17.7967 14.988 17.7187 14.5778 17.3865 14.3003C16.7211 13.7186 16.0016 13.202 15.2377 12.7575C14.7262 12.48 14.2065 12.648 13.9957 12.9293L13.5465 13.4955C13.3162 13.7768 12.8977 13.7378 12.8977 13.7378L12.8857 13.7453C9.76498 12.948 8.93248 9.78825 8.93248 9.78825C8.93248 9.78825 8.89348 9.3585 9.18223 9.1395L9.74473 8.6865C10.014 8.4675 10.2015 7.9485 9.91273 7.43625C9.47128 6.67137 8.95581 5.95166 8.37373 5.2875C8.24648 5.13092 8.06796 5.02439 7.86973 4.98675L7.87123 4.98825ZM12.3435 5.87925C11.9452 5.87925 11.9452 6.48075 12.3472 6.48075C12.8424 6.48878 13.3312 6.59433 13.7856 6.79135C14.24 6.98837 14.6511 7.27301 14.9955 7.629C15.3096 7.97551 15.551 8.38154 15.7053 8.82303C15.8597 9.26453 15.9238 9.73251 15.894 10.1993C15.8954 10.2782 15.9276 10.3536 15.9838 10.4091C16.04 10.4646 16.1157 10.4959 16.1947 10.4963L16.2067 10.512C16.2863 10.5114 16.3625 10.4795 16.4187 10.4233C16.475 10.367 16.5069 10.2908 16.5075 10.2113C16.5345 9.0195 16.164 8.01975 15.4372 7.21875C14.7067 6.41775 13.6875 5.9685 12.3862 5.87925H12.3435ZM12.8362 7.49625C12.426 7.48425 12.4102 8.09775 12.8167 8.10975C13.8052 8.16075 14.2852 8.66025 14.3482 9.68775C14.3496 9.76575 14.3815 9.84011 14.437 9.89491C14.4925 9.94972 14.5672 9.98062 14.6452 9.981H14.6572C14.6973 9.97928 14.7367 9.96959 14.773 9.9525C14.8093 9.9354 14.8419 9.91124 14.8688 9.88143C14.8956 9.85161 14.9163 9.81675 14.9296 9.77886C14.9428 9.74097 14.9484 9.70082 14.946 9.66075C14.8755 8.32125 14.145 7.56675 12.8482 7.497H12.8362V7.49625Z" fill="#7957E6"/>
</svg>
