<svg width="64" height="64" viewBox="0 0 64 64" fill="none" xmlns="http://www.w3.org/2000/svg">
<path d="M27.5563 14.1092H25.3657C25.0001 14.1092 24.6852 14.3667 24.6127 14.7251L23.2277 21.5706C21.1348 31.9146 21.2197 42.3891 23.4798 52.7029L24.5983 57.8066C24.6755 58.1591 24.9877 58.4103 25.3487 58.4103H27.5477C28.0013 58.4103 28.3388 57.9909 28.2417 57.5478L27.0105 51.929C24.8585 42.1089 24.7777 32.1359 26.7703 22.2872L28.2528 14.9604C28.3416 14.5205 28.0053 14.1092 27.5563 14.1092Z" fill="#0ED290"/>
<path d="M25.9694 58.4104H27.5475C28.0011 58.4104 28.3386 57.991 28.2415 57.5479L27.0103 51.9291C24.8583 42.109 24.7775 32.136 26.7701 22.2873L28.2526 14.9605C28.3416 14.5205 28.0052 14.1092 27.5562 14.1092H25.6545C26.5252 14.1092 26.4382 14.9068 26.2655 15.7602L24.9449 22.2873C22.9522 32.136 23.033 42.109 25.185 51.9291L26.2387 56.7377C26.4271 57.5971 26.4889 58.4104 25.9694 58.4104Z" fill="#00C285"/>
<path d="M58.1625 14.1092H60.3532C60.7187 14.1092 61.0336 14.3667 61.1061 14.7251L62.4911 21.5706C64.584 31.9146 64.4991 42.3891 62.239 52.7029L61.1206 57.8066C61.0433 58.1591 60.7311 58.4103 60.3701 58.4103H58.1713C57.7177 58.4103 57.3802 57.9909 57.4773 57.5478L58.7085 51.929C60.8604 42.1089 60.9413 32.1359 58.9486 22.2872L57.4662 14.9604C57.3772 14.5205 57.7135 14.1092 58.1625 14.1092Z" fill="#0ED290"/>
<path d="M62.4912 21.5706L61.1061 14.7251C61.0337 14.3667 60.7187 14.1092 60.3532 14.1092H58.4279C59.0835 14.1092 59.2497 14.5712 59.3798 15.2138L60.6659 21.5706C62.7588 31.9146 62.6739 42.3891 60.4138 52.7029L59.4003 57.3275C59.2618 57.9598 59.1649 58.4104 58.7018 58.4104H60.3703C60.7311 58.4104 61.0433 58.1592 61.1207 57.8067L62.2392 52.703C64.4992 42.3891 64.584 31.9146 62.4912 21.5706Z" fill="#00C285"/>
<path d="M53.4199 35.2271H31.8503C31.5833 35.2271 31.3669 35.0106 31.3669 34.7437V32.0961C31.3669 31.8291 31.5834 31.6128 31.8503 31.6128H53.4199C53.6869 31.6128 53.9032 31.8292 53.9032 32.0961V34.7437C53.9032 35.0107 53.6869 35.2271 53.4199 35.2271Z" fill="#537983"/>
<path d="M50.4329 31.6127C50.9134 31.6127 51.3031 32.0023 51.3031 32.4829V34.357C51.3031 34.8375 50.9136 35.2272 50.4329 35.2272H53.4199C53.6869 35.2272 53.9032 35.0107 53.9032 34.7439V32.0963C53.9032 31.8294 53.6868 31.613 53.4199 31.613H50.4329V31.6127Z" fill="#3E5959"/>
<path d="M6.67891 60.6426C6.59094 60.652 6.50195 60.6595 6.41166 60.6653C2.72978 60.9023 0.785574 58.6967 0.05501 57.0592C-0.104898 56.7007 0.0982806 56.2845 0.477383 56.1828L2.80056 55.5599C3.30547 55.5167 3.39395 55.7054 3.8822 56.3394C4.42715 56.8876 5.17864 57.1228 6.17955 57.0583C8.51126 56.9096 9.01165 53.452 9.01617 53.4171L14.2606 10.1382C14.5446 7.89808 16.201 3.60899 20.4519 3.33477C24.1101 3.0993 26.053 5.27524 26.7945 6.90932C26.9641 7.28312 26.7498 7.71971 26.3532 7.82601L24.099 8.43038C23.8159 8.50633 23.5122 8.39227 23.359 8.14234C23.2687 7.99483 23.1453 7.82536 22.9813 7.66055C22.4364 7.11237 21.6849 6.87716 20.684 6.94161C18.3536 7.09247 17.8518 10.5479 17.8474 10.5828L12.603 53.8618C12.325 56.0544 10.731 60.2105 6.67891 60.6426Z" fill="#6C7FD8"/>
<path d="M1.89436 56.3349L1.89823 56.3388C2.44202 56.8877 3.19377 57.1228 4.19481 57.0582C4.42731 57.0427 4.64172 56.9949 4.83805 56.9213C4.46606 56.8012 4.1496 56.6074 3.88222 56.3388C3.66058 56.1542 3.4521 55.4559 2.80059 55.5599L1.55982 55.8931L0.936462 56.06C1.28198 55.9675 1.64236 56.081 1.89436 56.3349Z" fill="#4F66D0"/>
<path d="M26.3538 7.82617L25.2798 8.1146C25.1015 7.62118 24.9284 7.18848 24.8819 7.0761C24.2994 5.6669 22.7894 3.75266 19.9982 3.38066C20.1454 3.35999 20.2965 3.34449 20.4515 3.33416C24.1097 3.09908 26.0528 5.27553 26.7946 6.90935C26.9645 7.28316 26.7503 7.71974 26.3538 7.82617Z" fill="#4F66D0"/>
<path d="M18.6988 6.94176C16.3687 7.09289 15.8675 10.5481 15.8624 10.583L10.6182 53.8614C10.3444 56.0197 8.79568 60.0807 4.88324 60.6193C5.3547 60.6826 5.86361 60.7007 6.41128 60.6658C6.50169 60.6594 6.59082 60.6516 6.67865 60.6426C10.7306 60.2099 12.3245 56.0546 12.6035 53.8614L17.8476 10.583C17.8515 10.552 18.2584 7.74776 20.0409 7.07868C19.6547 6.95339 19.2091 6.90818 18.6988 6.94176Z" fill="#4F66D0"/>
<path d="M47.3858 39.835C46.8793 39.6599 46.3284 39.9286 46.1537 40.434L42.7079 50.4005L39.1726 40.4269C38.9937 39.9227 38.4402 39.6588 37.9358 39.8375C37.4316 40.0163 37.1677 40.5699 37.3465 41.0743L41.6929 53.3364L40.0661 58.0418C39.8912 58.5475 40.1594 59.0992 40.6651 59.2739C41.0436 59.3942 41.6189 59.285 41.8971 58.6749L47.9847 41.0672C48.1595 40.5614 47.8913 40.0097 47.3858 39.835Z" fill="#678D98"/>
<path d="M48.3983 26.5781L43.9796 20.7558L47.7371 15.7727C48.0592 15.3454 47.974 14.7381 47.5468 14.416C47.1194 14.0938 46.5119 14.1791 46.19 14.6062L42.7624 19.1521L39.3107 14.6039C38.9871 14.1778 38.3795 14.0943 37.9532 14.4179C37.527 14.7413 37.4438 15.3489 37.7672 15.7752L41.5501 20.7598L37.3187 26.3718C36.9965 26.7991 37.0818 27.4065 37.5089 27.7286C37.7799 27.9411 38.4188 28.0529 38.8657 27.5383L42.7675 22.3637L46.855 27.7497C47.1624 28.029 47.5274 28.3388 48.2124 27.9356C48.6385 27.612 48.7217 27.0044 48.3983 26.5781Z" fill="#678D98"/>
</svg>
