<svg width="64" height="64" viewBox="0 0 64 64" fill="none" xmlns="http://www.w3.org/2000/svg">
<g clip-path="url(#clip0)">
<path d="M50.2224 28.4443C49.55 28.4443 49.0049 27.8992 49.0049 27.2268V22.3991C49.0049 21.7267 49.55 21.1816 50.2224 21.1816C50.8948 21.1816 51.4399 21.7267 51.4399 22.3991V27.2268C51.4398 27.8992 50.8948 28.4443 50.2224 28.4443Z" fill="url(#paint0_linear)"/>
<path d="M50.2224 21.1816C49.55 21.1816 49.0049 21.7267 49.0049 22.3991V23.7174L51.4398 26.1522V22.399C51.4398 21.7267 50.8948 21.1816 50.2224 21.1816Z" fill="url(#paint1_linear)"/>
<path d="M51.4427 21.4118L50.3657 22.9874C50.0818 23.4027 49.5138 23.5093 49.0987 23.2256L45.3983 20.6961C44.982 20.4116 44.8763 19.8444 45.1601 19.4291L46.2379 17.8524C46.4169 17.9092 46.5917 17.9922 46.7547 18.1035L51.022 21.0204C51.1847 21.1319 51.3255 21.2647 51.4427 21.4118Z" fill="url(#paint2_linear)"/>
<path d="M51.5269 23.7082L51.2352 24.1349C50.9514 24.5501 50.3845 24.6576 49.9683 24.3731L44.0131 20.3025C43.5969 20.0181 43.4912 19.4508 43.7749 19.0356L44.0666 18.6089C44.5576 17.8906 45.4477 17.6066 46.2376 17.8526C46.4165 17.9094 46.5913 17.9924 46.7543 18.1037L51.0216 21.0206C51.1846 21.132 51.3253 21.2648 51.4425 21.4119C51.459 21.4323 51.4745 21.452 51.4903 21.4735C51.5051 21.4942 51.5198 21.515 51.5339 21.5367C51.5487 21.5575 51.5626 21.5793 51.575 21.6014C51.6959 21.7966 51.7806 22.0115 51.825 22.2337C51.8307 22.2589 51.8353 22.2833 51.8388 22.3071C51.8427 22.3326 51.8466 22.3581 51.8495 22.3829C51.859 22.458 51.8642 22.533 51.8639 22.6091C51.8641 22.629 51.8642 22.6488 51.8633 22.668C51.8637 22.6988 51.8612 22.729 51.859 22.7612C51.8574 22.7859 51.8549 22.8117 51.8515 22.8367C51.8239 23.0798 51.7507 23.3206 51.6264 23.5448C51.6124 23.5718 51.5975 23.5982 51.5808 23.6249C51.5635 23.6525 51.5461 23.6802 51.5269 23.7082Z" fill="url(#paint3_linear)"/>
<path d="M51.5269 23.7083L51.2353 24.1349C50.9514 24.5502 50.3846 24.6576 49.9683 24.3731L46.6332 22.0933C46.9622 22.3182 47.3571 22.3734 47.7149 22.2799C48.0126 22.2031 48.285 22.0208 48.4722 21.7467L48.8944 21.1291C49.1569 20.7449 49.3101 20.3182 49.3628 19.8867L51.0216 21.0205C51.1846 21.132 51.3252 21.2647 51.4425 21.4118C51.4589 21.4323 51.4745 21.452 51.4903 21.4734C51.5051 21.4941 51.5198 21.515 51.5338 21.5367C51.5486 21.5574 51.5625 21.5792 51.575 21.6013C51.6958 21.7966 51.7805 22.0114 51.8249 22.2336C51.8306 22.2589 51.8352 22.2832 51.8387 22.3071C51.8426 22.3325 51.8465 22.358 51.8494 22.3828C51.859 22.4579 51.8641 22.5329 51.8638 22.609C51.864 22.6289 51.8641 22.6488 51.8632 22.668C51.8636 22.6987 51.8611 22.729 51.859 22.7611C51.8573 22.7858 51.8548 22.8116 51.8514 22.8366C51.8238 23.0797 51.7507 23.3205 51.6263 23.5448C51.6124 23.5717 51.5974 23.5981 51.5807 23.6248C51.5635 23.6526 51.5461 23.6803 51.5269 23.7083Z" fill="url(#paint4_linear)"/>
<path d="M51.5269 23.7082L51.2352 24.1349C50.9514 24.5501 50.3845 24.6575 49.9683 24.373L44.988 20.9688C44.5717 20.6843 44.4661 20.117 44.7498 19.7018L45.0414 19.2751C45.2082 19.0312 45.4214 18.8373 45.6602 18.6975C46.1248 18.4257 46.6909 18.3572 47.2118 18.5198L47.26 18.4493L51.0218 21.0206C51.1848 21.132 51.3255 21.2648 51.4427 21.4119C51.4591 21.4323 51.4747 21.452 51.4905 21.4735C51.5053 21.4942 51.52 21.515 51.534 21.5367C51.5488 21.5574 51.5628 21.5793 51.5752 21.6013C51.696 21.7966 51.7807 22.0114 51.8252 22.2337C51.8308 22.2589 51.8355 22.2833 51.839 22.3071C51.8429 22.3326 51.8468 22.3581 51.8496 22.3829C51.8592 22.4579 51.8643 22.533 51.8641 22.609C51.8642 22.629 51.8643 22.6488 51.8634 22.668C51.8638 22.6988 51.8613 22.729 51.8592 22.7611C51.8575 22.7858 51.855 22.8117 51.8516 22.8367C51.824 23.0797 51.7509 23.3206 51.6265 23.5448C51.6126 23.5718 51.5977 23.5981 51.581 23.6249C51.5635 23.6525 51.5461 23.6802 51.5269 23.7082Z" fill="url(#paint5_linear)"/>
<path d="M50.2223 21.3317C49.5524 21.3317 49.0093 21.8748 49.0093 22.5447C49.0093 22.9024 49.1643 23.2241 49.4107 23.4461L50.4961 24.5314C50.7822 24.527 51.0618 24.3889 51.2354 24.1349L51.527 23.7082C51.5462 23.6802 51.5635 23.6525 51.581 23.6247C51.5976 23.5981 51.6126 23.5718 51.6265 23.5447C51.7509 23.3204 51.824 23.0796 51.8516 22.8365C51.855 22.8114 51.8574 22.7857 51.8592 22.761C51.8613 22.729 51.8637 22.6986 51.8634 22.668C51.8643 22.6488 51.8642 22.629 51.8642 22.609C51.8643 22.5613 51.8617 22.5142 51.8579 22.4671L51.1238 21.733C50.9015 21.4866 50.58 21.3317 50.2223 21.3317Z" fill="url(#paint6_linear)"/>
<path d="M50.2223 23.7576C50.8922 23.7576 51.4353 23.2146 51.4353 22.5447C51.4353 21.8747 50.8922 21.3317 50.2223 21.3317C49.5524 21.3317 49.0093 21.8747 49.0093 22.5447C49.0093 23.2146 49.5524 23.7576 50.2223 23.7576Z" fill="url(#paint7_linear)"/>
<path d="M50.2223 23.557C50.7814 23.557 51.2346 23.1038 51.2346 22.5447C51.2346 21.9856 50.7814 21.5323 50.2223 21.5323C49.6632 21.5323 49.21 21.9856 49.21 22.5447C49.21 23.1038 49.6632 23.557 50.2223 23.557Z" fill="url(#paint8_linear)"/>
<path d="M50.7649 21.4596C50.8468 21.6229 50.8928 21.8072 50.8928 22.0022C50.8928 22.6721 50.3497 23.2152 49.6798 23.2152C49.4848 23.2152 49.3005 23.1691 49.1372 23.0873C49.3364 23.4848 49.7475 23.7577 50.2223 23.7577C50.8922 23.7577 51.4353 23.2146 51.4353 22.5447C51.4353 22.0699 51.1624 21.6587 50.7649 21.4596Z" fill="url(#paint9_linear)"/>
<path d="M45.167 61.4201L31.4609 37.5009L17.7549 61.4201L15.0275 59.8572L31.4609 31.1785L47.8944 59.8572L45.167 61.4201Z" fill="url(#paint10_linear)"/>
<path d="M29.8893 34.3397H33.0327V60.6387H29.8893V34.3397Z" fill="url(#paint11_linear)"/>
<path d="M41.0063 47.8366L31.4609 31.1785L27.2728 38.4874L29.5759 40.7906L29.8893 40.2437V41.1039L33.0326 44.2473V40.2437L37.3834 47.8366H41.0063Z" fill="url(#paint12_linear)"/>
<path d="M31.4609 40.2352C34.7168 40.2352 37.3563 37.5957 37.3563 34.3398C37.3563 31.0839 34.7168 28.4444 31.4609 28.4444C28.205 28.4444 25.5655 31.0839 25.5655 34.3398C25.5655 37.5957 28.205 40.2352 31.4609 40.2352Z" fill="url(#paint13_radial)"/>
<path d="M31.4609 39.8548C34.5068 39.8548 36.9759 37.3856 36.9759 34.3398C36.9759 31.2939 34.5068 28.8247 31.4609 28.8247C28.415 28.8247 25.9459 31.2939 25.9459 34.3398C25.9459 37.3856 28.415 39.8548 31.4609 39.8548Z" fill="url(#paint14_linear)"/>
<path d="M34.098 29.066C34.4956 29.8596 34.7198 30.7551 34.7198 31.7032C34.7198 34.9592 32.0804 37.5986 28.8244 37.5986C27.8764 37.5986 26.9809 37.3745 26.1873 36.9768C27.1552 38.9086 29.153 40.2351 31.461 40.2351C34.717 40.2351 37.3564 37.5956 37.3564 34.3396C37.3563 32.0319 36.03 30.0341 34.098 29.066Z" fill="url(#paint15_linear)"/>
<path d="M36.3973 37.5632L32.3622 33.5282C32.1403 33.2818 31.8188 33.1268 31.4609 33.1268C30.791 33.1268 30.2479 33.6699 30.2479 34.3398C30.2479 34.6975 30.4028 35.0192 30.6493 35.2412L34.6843 39.2762C35.3667 38.8297 35.9508 38.2455 36.3973 37.5632Z" fill="url(#paint16_linear)"/>
<path d="M31.4609 35.5528C32.1308 35.5528 32.6738 35.0097 32.6738 34.3398C32.6738 33.6698 32.1308 33.1268 31.4609 33.1268C30.7909 33.1268 30.2479 33.6698 30.2479 34.3398C30.2479 35.0097 30.7909 35.5528 31.4609 35.5528Z" fill="url(#paint17_linear)"/>
<path d="M31.4609 35.3521C32.02 35.3521 32.4733 34.8988 32.4733 34.3397C32.4733 33.7806 32.02 33.3274 31.4609 33.3274C30.9018 33.3274 30.4486 33.7806 30.4486 34.3397C30.4486 34.8988 30.9018 35.3521 31.4609 35.3521Z" fill="url(#paint18_linear)"/>
<path d="M32.0035 33.2546C32.0854 33.4179 32.1314 33.6022 32.1314 33.7973C32.1314 34.4671 31.5883 35.0103 30.9184 35.0103C30.7234 35.0103 30.5391 34.9642 30.3758 34.8824C30.5749 35.2798 30.9861 35.5527 31.4609 35.5527C32.1308 35.5527 32.6739 35.0096 32.6739 34.3398C32.6739 33.8649 32.4011 33.4538 32.0035 33.2546Z" fill="url(#paint19_linear)"/>
<path d="M31.4609 33.1268C33.4365 33.1268 35.0381 32.1958 35.0381 31.0474C35.0381 29.899 33.4365 28.968 31.4609 28.968C29.4852 28.968 27.8837 29.899 27.8837 31.0474C27.8837 32.1958 29.4852 33.1268 31.4609 33.1268Z" fill="url(#paint20_linear)"/>
<path d="M53.0899 28.9092L46.4514 40.2384L41.0139 37.4877L1.0177 17.2574L10.8348 0.504456L50.9917 27.4987L53.0899 28.9092Z" fill="url(#paint21_linear)"/>
<path d="M40.4617 37.2117L45.1415 39.5787L50.1122 30.5332L48.5389 25.8498L47.5208 25.1654L40.4617 37.2117Z" fill="url(#paint22_linear)"/>
<path d="M1.01746 17.2575L49.5183 41.7892L54.597 33.1224L9.48955 2.80005L1.01746 17.2575Z" fill="url(#paint23_linear)"/>
<path d="M1.01746 17.2575L19.2153 26.462L12.8438 2.05375L12.7076 1.76387L10.8346 0.5047L1.01746 17.2575Z" fill="url(#paint24_linear)"/>
<path d="M1.35454 18.393C0.508989 17.8975 0.225256 16.8104 0.720691 15.9649L9.56173 0.877552C10.0572 0.0319994 11.1443 -0.251734 11.9898 0.243701C12.8354 0.739137 13.1191 1.82626 12.6237 2.67181L3.78253 17.7592C3.28709 18.6047 2.19997 18.8885 1.35454 18.393Z" fill="url(#paint25_linear)"/>
<path d="M9.70037 1.89452L0.859209 16.9818C0.744134 17.1782 0.672731 17.3879 0.639099 17.6C0.785421 17.9206 1.02737 18.2013 1.35452 18.393C2.20007 18.8884 3.28707 18.6047 3.78263 17.7591L12.6238 2.67181C12.7389 2.47541 12.8103 2.26572 12.8439 2.05364C12.6976 1.73301 12.4556 1.45229 12.1285 1.26067C11.2829 0.765234 10.1958 1.04897 9.70037 1.89452Z" fill="url(#paint26_linear)"/>
<path d="M27.5893 30.6975L41.588 37.7781L36.3326 17.6451L35.5474 17.1172L27.5893 30.6975Z" fill="url(#paint27_linear)"/>
<path d="M26.2863 31.4561L26.0854 31.3384C25.2953 30.8755 25.0302 29.8596 25.4932 29.0695L33.1026 16.0843C33.5655 15.2942 34.5814 15.0291 35.3714 15.4921L35.5722 15.6098C36.3623 16.0728 36.6275 17.0886 36.1644 17.8787L28.5551 30.8639C28.0921 31.6539 27.0764 31.9191 26.2863 31.4561Z" fill="url(#paint28_linear)"/>
<path d="M33.3479 16.919L25.6287 30.0919C25.5281 30.2635 25.4708 30.4493 25.4498 30.6394C25.6092 30.9379 25.8588 31.2054 26.1858 31.3972C27.0314 31.8926 28.0674 31.6958 28.5001 30.9576L36.2194 17.7846C36.3199 17.6131 36.3773 17.4272 36.3982 17.2371C36.2388 16.9387 35.9892 16.6711 35.6621 16.4794C34.8167 15.9839 33.7806 16.1808 33.3479 16.919Z" fill="url(#paint29_linear)"/>
<path d="M39.8369 37.8506L39.6618 37.7481C38.9734 37.3446 38.7424 36.4594 39.1457 35.771L45.7766 24.4554C46.18 23.767 47.0652 23.5359 47.7537 23.9393L47.9287 24.0418C48.6172 24.4452 48.8482 25.3305 48.4449 26.0189L41.814 37.3345C41.4105 38.023 40.5253 38.2541 39.8369 37.8506Z" fill="url(#paint30_linear)"/>
<path d="M45.9904 25.1829L39.2637 36.6619C39.1761 36.8114 39.126 36.9734 39.1078 37.1391C39.2468 37.3991 39.4642 37.6322 39.7492 37.7994C40.486 38.2312 41.3889 38.0597 41.7659 37.4164L48.4925 25.9373C48.5801 25.7879 48.6302 25.6258 48.6484 25.4602C48.5094 25.2002 48.292 24.967 48.007 24.8C47.2702 24.3681 46.3673 24.5396 45.9904 25.1829Z" fill="url(#paint31_linear)"/>
<path d="M47.3345 38.0199L51.5862 30.7643L62.345 37.0689L58.0933 44.3245L47.3345 38.0199Z" fill="url(#paint32_linear)"/>
<path d="M46.9069 37.7621L51.1586 30.5065L52.6837 31.4001L54.8081 39.5387L53.5634 41.6627L46.9069 37.7621Z" fill="url(#paint33_linear)"/>
<path d="M56.3544 43.7961L61.0342 35.81C61.3146 35.3316 61.9297 35.171 62.4081 35.4513L63.0266 35.8139C63.505 36.0942 63.6656 36.7094 63.3853 37.1877L58.7055 45.1738C58.4251 45.6522 57.81 45.8128 57.3316 45.5325L56.7131 45.1701C56.2346 44.8896 56.0741 44.2744 56.3544 43.7961Z" fill="url(#paint34_linear)"/>
<path d="M45.2095 38.8995L51.3212 28.4697C51.6015 27.9913 52.2167 27.8307 52.6951 28.1111L53.3136 28.4736C53.792 28.754 53.9526 29.3691 53.6723 29.8475L47.5605 40.2772C47.2802 40.7556 46.665 40.9162 46.1866 40.6359L45.5681 40.2733C45.0897 39.993 44.9291 39.3778 45.2095 38.8995Z" fill="url(#paint35_linear)"/>
<path d="M45.5681 40.2734L46.1866 40.6359C46.665 40.9163 47.2802 40.7556 47.5605 40.2773L52.463 31.9111C52.7434 31.4327 52.5829 30.8175 52.1044 30.5372L51.4858 30.1747C51.0075 29.8943 50.3923 30.0549 50.112 30.5333L45.2095 38.8995C44.9291 39.3779 45.0897 39.993 45.5681 40.2734Z" fill="url(#paint36_linear)"/>
<path d="M18.6325 63.5442H14.1499C13.6464 63.5442 13.2383 63.1361 13.2383 62.6326V59.8731C13.2383 59.3696 13.6464 58.9615 14.1499 58.9615H18.6325C19.136 58.9615 19.5441 59.3696 19.5441 59.8731V62.6326C19.5441 63.1361 19.136 63.5442 18.6325 63.5442Z" fill="url(#paint37_linear)"/>
<path d="M19.9984 64H12.7842C12.2807 64 11.8726 63.5919 11.8726 63.0884V62.5727C11.8726 61.5045 12.7385 60.6386 13.8067 60.6386H18.976C20.0442 60.6386 20.91 61.5045 20.91 62.5727V63.0884C20.9098 63.5919 20.5017 64 19.9984 64Z" fill="url(#paint38_linear)"/>
<path d="M18.9759 60.6386H16.9668C17.167 61.0249 17.2809 61.4632 17.2809 61.9284V62.6769C17.2809 63.4077 16.6886 64 15.9578 64H19.9984C20.5018 64 20.9099 63.5919 20.9099 63.0884V62.5727C20.9098 61.5045 20.0439 60.6386 18.9759 60.6386Z" fill="url(#paint39_linear)"/>
<path d="M20.9098 63.0884V62.5727C20.9098 61.7023 20.3348 60.9664 19.5441 60.7237V59.8731C19.5441 59.3696 19.136 58.9615 18.6325 58.9615H15.3305C14.827 58.9615 14.4189 59.3696 14.4189 59.8731V60.7237C13.6282 60.9664 13.0532 61.7024 13.0532 62.5727V63.0884C13.0532 63.5919 13.4613 64 13.9648 64H19.9984C20.5017 64 20.9098 63.5919 20.9098 63.0884Z" fill="url(#paint40_linear)"/>
<path d="M33.7023 63.5442H29.2197C28.7162 63.5442 28.3081 63.1361 28.3081 62.6326V59.8731C28.3081 59.3696 28.7162 58.9615 29.2197 58.9615H33.7023C34.2058 58.9615 34.6139 59.3696 34.6139 59.8731V62.6326C34.6139 63.1361 34.2058 63.5442 33.7023 63.5442Z" fill="url(#paint41_linear)"/>
<path d="M35.068 64H27.8538C27.3504 64 26.9423 63.5919 26.9423 63.0884V62.5727C26.9423 61.5045 27.8081 60.6386 28.8763 60.6386H34.0456C35.1138 60.6386 35.9797 61.5045 35.9797 62.5727V63.0884C35.9796 63.5919 35.5715 64 35.068 64Z" fill="url(#paint42_linear)"/>
<path d="M34.0456 60.6386H32.0365C32.2368 61.0249 32.3506 61.4632 32.3506 61.9284V62.6769C32.3506 63.4077 31.7583 64 31.0276 64H35.0681C35.5716 64 35.9797 63.5919 35.9797 63.0884V62.5727C35.9796 61.5045 35.1137 60.6386 34.0456 60.6386Z" fill="url(#paint43_linear)"/>
<path d="M35.9795 63.0884V62.5727C35.9795 61.7023 35.4046 60.9664 34.6138 60.7237V59.8731C34.6138 59.3696 34.2057 58.9615 33.7023 58.9615H30.4003C29.8968 58.9615 29.4887 59.3696 29.4887 59.8731V60.7237C28.698 60.9664 28.123 61.7024 28.123 62.5727V63.0884C28.123 63.5919 28.5311 64 29.0345 64H35.0681C35.5715 64 35.9795 63.5919 35.9795 63.0884Z" fill="url(#paint44_linear)"/>
<path d="M48.772 63.5442H44.2893C43.7858 63.5442 43.3777 63.1361 43.3777 62.6326V59.8731C43.3777 59.3696 43.7858 58.9615 44.2893 58.9615H48.772C49.2754 58.9615 49.6835 59.3696 49.6835 59.8731V62.6326C49.6835 63.1361 49.2754 63.5442 48.772 63.5442Z" fill="url(#paint45_linear)"/>
<path d="M50.1378 64H42.9236C42.4201 64 42.012 63.5919 42.012 63.0884V62.5727C42.012 61.5045 42.8779 60.6386 43.9461 60.6386H49.1154C50.1836 60.6386 51.0494 61.5045 51.0494 62.5727V63.0884C51.0493 63.5919 50.6412 64 50.1378 64Z" fill="url(#paint46_linear)"/>
<path d="M49.1152 60.6386H47.1061C47.3064 61.0249 47.4202 61.4632 47.4202 61.9284V62.6769C47.4202 63.4077 46.8279 64 46.0972 64H50.1377C50.6412 64 51.0493 63.5919 51.0493 63.0884V62.5727C51.0493 61.5045 50.1834 60.6386 49.1152 60.6386Z" fill="url(#paint47_linear)"/>
<path d="M51.0493 63.0884V62.5727C51.0493 61.7023 50.4743 60.9664 49.6836 60.7237V59.8731C49.6836 59.3696 49.2755 58.9615 48.7721 58.9615H45.47C44.9666 58.9615 44.5585 59.3696 44.5585 59.8731V60.7237C43.7677 60.9664 43.1927 61.7024 43.1927 62.5727V63.0884C43.1927 63.5919 43.6008 64 44.1043 64H50.1379C50.6412 64 51.0493 63.5919 51.0493 63.0884Z" fill="url(#paint48_linear)"/>
</g>
<defs>
<linearGradient id="paint0_linear" x1="49.2983" y1="24.8129" x2="51.6049" y2="24.8129" gradientUnits="userSpaceOnUse">
<stop stop-color="#FFDA45"/>
<stop offset="1" stop-color="#FFA425"/>
</linearGradient>
<linearGradient id="paint1_linear" x1="51.2966" y1="26.4349" x2="50.1336" y2="22.6785" gradientUnits="userSpaceOnUse">
<stop stop-color="#FFDA45" stop-opacity="0"/>
<stop offset="0.5194" stop-color="#D9874F" stop-opacity="0.519"/>
<stop offset="1" stop-color="#B53759"/>
</linearGradient>
<linearGradient id="paint2_linear" x1="48.6944" y1="19.8766" x2="48.0041" y2="20.8876" gradientUnits="userSpaceOnUse">
<stop stop-color="#7E8595"/>
<stop offset="1" stop-color="#555A66"/>
</linearGradient>
<linearGradient id="paint3_linear" x1="48.3584" y1="20.3687" x2="46.5029" y2="23.0861" gradientUnits="userSpaceOnUse">
<stop stop-color="#7E8595"/>
<stop offset="1" stop-color="#555A66"/>
</linearGradient>
<linearGradient id="paint4_linear" x1="50.0455" y1="21.5207" x2="48.19" y2="24.2381" gradientUnits="userSpaceOnUse">
<stop stop-color="#555A66" stop-opacity="0"/>
<stop offset="1" stop-color="#555A66"/>
</linearGradient>
<linearGradient id="paint5_linear" x1="47.2733" y1="19.8317" x2="42.8072" y2="13.3668" gradientUnits="userSpaceOnUse">
<stop stop-color="#BEC3D2" stop-opacity="0"/>
<stop offset="0.221" stop-color="#C5C9D7" stop-opacity="0.221"/>
<stop offset="0.5343" stop-color="#D7DAE3" stop-opacity="0.534"/>
<stop offset="0.9014" stop-color="#F6F6F8" stop-opacity="0.901"/>
<stop offset="1" stop-color="white"/>
</linearGradient>
<linearGradient id="paint6_linear" x1="52.5349" y1="24.5387" x2="50.9003" y2="23.1976" gradientUnits="userSpaceOnUse">
<stop stop-color="#555A66" stop-opacity="0"/>
<stop offset="1" stop-color="#555A66"/>
</linearGradient>
<linearGradient id="paint7_linear" x1="49.7684" y1="22.0908" x2="51.3394" y2="23.6618" gradientUnits="userSpaceOnUse">
<stop stop-color="#F9F7FC"/>
<stop offset="1" stop-color="#F0DDFC"/>
</linearGradient>
<linearGradient id="paint8_linear" x1="50.3679" y1="22.751" x2="49.6193" y2="21.69" gradientUnits="userSpaceOnUse">
<stop stop-color="#E9EDF5" stop-opacity="0"/>
<stop offset="1" stop-color="white"/>
</linearGradient>
<linearGradient id="paint9_linear" x1="50.3875" y1="22.7809" x2="52.0547" y2="19.6799" gradientUnits="userSpaceOnUse">
<stop stop-color="#F0DDFC" stop-opacity="0"/>
<stop offset="0.2889" stop-color="#C8B7E0" stop-opacity="0.289"/>
<stop offset="0.5915" stop-color="#A595C8" stop-opacity="0.592"/>
<stop offset="0.8395" stop-color="#8F81B8" stop-opacity="0.84"/>
<stop offset="1" stop-color="#8779B3"/>
</linearGradient>
<linearGradient id="paint10_linear" x1="31.4609" y1="52.5576" x2="31.4609" y2="64.5125" gradientUnits="userSpaceOnUse">
<stop stop-color="#7E8595"/>
<stop offset="1" stop-color="#555A66"/>
</linearGradient>
<linearGradient id="paint11_linear" x1="30.4551" y1="47.4891" x2="33.4158" y2="47.4891" gradientUnits="userSpaceOnUse">
<stop stop-color="#7E8595"/>
<stop offset="1" stop-color="#555A66"/>
</linearGradient>
<linearGradient id="paint12_linear" x1="34.7518" y1="44.9744" x2="31.5665" y2="35.5443" gradientUnits="userSpaceOnUse">
<stop stop-color="#555A66" stop-opacity="0"/>
<stop offset="1" stop-color="#555A66"/>
</linearGradient>
<radialGradient id="paint13_radial" cx="0" cy="0" r="1" gradientUnits="userSpaceOnUse" gradientTransform="translate(29.4915 31.5107) scale(8.37723)">
<stop stop-color="#FFDA45"/>
<stop offset="0.3043" stop-color="#FFCE3E"/>
<stop offset="0.8558" stop-color="#FFAE2B"/>
<stop offset="1" stop-color="#FFA425"/>
</radialGradient>
<linearGradient id="paint14_linear" x1="32.1192" y1="34.998" x2="26.1391" y2="29.018" gradientUnits="userSpaceOnUse">
<stop stop-color="#FFDA45" stop-opacity="0"/>
<stop offset="1" stop-color="#FCEE21"/>
</linearGradient>
<linearGradient id="paint15_linear" x1="31.6657" y1="36.5991" x2="39.7692" y2="21.5277" gradientUnits="userSpaceOnUse">
<stop stop-color="#FFDA45" stop-opacity="0"/>
<stop offset="1" stop-color="#B53759"/>
</linearGradient>
<linearGradient id="paint16_linear" x1="34.277" y1="37.1559" x2="30.7906" y2="33.6695" gradientUnits="userSpaceOnUse">
<stop stop-color="#FFDA45" stop-opacity="0"/>
<stop offset="0.5194" stop-color="#D9874F" stop-opacity="0.519"/>
<stop offset="1" stop-color="#B53759"/>
</linearGradient>
<linearGradient id="paint17_linear" x1="31.0071" y1="33.8859" x2="32.5781" y2="35.4569" gradientUnits="userSpaceOnUse">
<stop stop-color="#F9F7FC"/>
<stop offset="1" stop-color="#F0DDFC"/>
</linearGradient>
<linearGradient id="paint18_linear" x1="31.6065" y1="34.546" x2="30.8581" y2="33.485" gradientUnits="userSpaceOnUse">
<stop stop-color="#E9EDF5" stop-opacity="0"/>
<stop offset="1" stop-color="white"/>
</linearGradient>
<linearGradient id="paint19_linear" x1="31.6261" y1="34.5758" x2="33.2933" y2="31.4748" gradientUnits="userSpaceOnUse">
<stop stop-color="#F0DDFC" stop-opacity="0"/>
<stop offset="0.2889" stop-color="#C8B7E0" stop-opacity="0.289"/>
<stop offset="0.5915" stop-color="#A595C8" stop-opacity="0.592"/>
<stop offset="0.8395" stop-color="#8F81B8" stop-opacity="0.84"/>
<stop offset="1" stop-color="#8779B3"/>
</linearGradient>
<linearGradient id="paint20_linear" x1="31.8508" y1="32.6988" x2="30.7789" y2="28.158" gradientUnits="userSpaceOnUse">
<stop stop-color="#FFDA45" stop-opacity="0"/>
<stop offset="1" stop-color="white"/>
</linearGradient>
<linearGradient id="paint21_linear" x1="27.0538" y1="12.8361" x2="27.0538" y2="39.8161" gradientUnits="userSpaceOnUse">
<stop stop-color="#7E8595"/>
<stop offset="1" stop-color="#555A66"/>
</linearGradient>
<linearGradient id="paint22_linear" x1="44.8944" y1="41.291" x2="45.9554" y2="21.1871" gradientUnits="userSpaceOnUse">
<stop stop-color="#555A66" stop-opacity="0"/>
<stop offset="1" stop-color="#555A66"/>
</linearGradient>
<linearGradient id="paint23_linear" x1="29.6963" y1="21.9783" x2="39.8426" y2="4.92419" gradientUnits="userSpaceOnUse">
<stop stop-color="#BEC3D2" stop-opacity="0"/>
<stop offset="0.221" stop-color="#C5C9D7" stop-opacity="0.221"/>
<stop offset="0.5343" stop-color="#D7DAE3" stop-opacity="0.534"/>
<stop offset="0.9014" stop-color="#F6F6F8" stop-opacity="0.901"/>
<stop offset="1" stop-color="white"/>
</linearGradient>
<linearGradient id="paint24_linear" x1="12.8405" y1="12.9479" x2="6.19562" y2="9.05185" gradientUnits="userSpaceOnUse">
<stop stop-color="#555A66" stop-opacity="0"/>
<stop offset="1" stop-color="#555A66"/>
</linearGradient>
<linearGradient id="paint25_linear" x1="5.34778" y1="8.55474" x2="8.52741" y2="10.419" gradientUnits="userSpaceOnUse">
<stop stop-color="#FFDA45"/>
<stop offset="1" stop-color="#FFA425"/>
</linearGradient>
<linearGradient id="paint26_linear" x1="7.91986" y1="11.0687" x2="3.85407" y2="6.84755" gradientUnits="userSpaceOnUse">
<stop stop-color="#FFDA45" stop-opacity="0"/>
<stop offset="1" stop-color="#FCEE21"/>
</linearGradient>
<linearGradient id="paint27_linear" x1="36.8911" y1="27.0494" x2="31.7796" y2="24.0524" gradientUnits="userSpaceOnUse">
<stop stop-color="#555A66" stop-opacity="0"/>
<stop offset="1" stop-color="#555A66"/>
</linearGradient>
<linearGradient id="paint28_linear" x1="29.5107" y1="22.7221" x2="32.6903" y2="24.5864" gradientUnits="userSpaceOnUse">
<stop stop-color="#FFDA45"/>
<stop offset="1" stop-color="#FFA425"/>
</linearGradient>
<linearGradient id="paint29_linear" x1="32.0123" y1="25.0919" x2="28.2758" y2="21.2125" gradientUnits="userSpaceOnUse">
<stop stop-color="#FFDA45" stop-opacity="0"/>
<stop offset="1" stop-color="#FCEE21"/>
</linearGradient>
<linearGradient id="paint30_linear" x1="42.6493" y1="30.2482" x2="45.4201" y2="31.8728" gradientUnits="userSpaceOnUse">
<stop stop-color="#FFDA45"/>
<stop offset="1" stop-color="#FFA425"/>
</linearGradient>
<linearGradient id="paint31_linear" x1="44.8291" y1="32.3132" x2="41.5731" y2="28.9327" gradientUnits="userSpaceOnUse">
<stop stop-color="#FFDA45" stop-opacity="0"/>
<stop offset="1" stop-color="#FCEE21"/>
</linearGradient>
<linearGradient id="paint32_linear" x1="59.1416" y1="36.2839" x2="51.3112" y2="42.8234" gradientUnits="userSpaceOnUse">
<stop stop-color="#7E8595"/>
<stop offset="1" stop-color="#555A66"/>
</linearGradient>
<linearGradient id="paint33_linear" x1="54.6906" y1="42.4148" x2="46.7599" y2="29.8467" gradientUnits="userSpaceOnUse">
<stop stop-color="#555A66" stop-opacity="0"/>
<stop offset="1" stop-color="#555A66"/>
</linearGradient>
<linearGradient id="paint34_linear" x1="60.4095" y1="40.851" x2="58.5119" y2="39.7383" gradientUnits="userSpaceOnUse">
<stop stop-color="#7E8595"/>
<stop offset="1" stop-color="#555A66"/>
</linearGradient>
<linearGradient id="paint35_linear" x1="49.9778" y1="34.7274" x2="48.0802" y2="33.6148" gradientUnits="userSpaceOnUse">
<stop stop-color="#7E8595"/>
<stop offset="1" stop-color="#555A66"/>
</linearGradient>
<linearGradient id="paint36_linear" x1="50.9551" y1="34.846" x2="57.5593" y2="33.0814" gradientUnits="userSpaceOnUse">
<stop stop-color="#BEC3D2" stop-opacity="0"/>
<stop offset="0.221" stop-color="#C5C9D7" stop-opacity="0.221"/>
<stop offset="0.5343" stop-color="#D7DAE3" stop-opacity="0.534"/>
<stop offset="0.9014" stop-color="#F6F6F8" stop-opacity="0.901"/>
<stop offset="1" stop-color="white"/>
</linearGradient>
<linearGradient id="paint37_linear" x1="16.3912" y1="59.5752" x2="16.3912" y2="61.5054" gradientUnits="userSpaceOnUse">
<stop stop-color="#7E8595"/>
<stop offset="1" stop-color="#555A66"/>
</linearGradient>
<linearGradient id="paint38_linear" x1="16.3911" y1="61.6232" x2="16.3911" y2="64.9122" gradientUnits="userSpaceOnUse">
<stop stop-color="#7E8595"/>
<stop offset="1" stop-color="#555A66"/>
</linearGradient>
<linearGradient id="paint39_linear" x1="18.4339" y1="61.6232" x2="18.4339" y2="64.9122" gradientUnits="userSpaceOnUse">
<stop stop-color="#555A66" stop-opacity="0"/>
<stop offset="1" stop-color="#555A66"/>
</linearGradient>
<linearGradient id="paint40_linear" x1="15.439" y1="61.1502" x2="8.10602" y2="58.3298" gradientUnits="userSpaceOnUse">
<stop stop-color="#BEC3D2" stop-opacity="0"/>
<stop offset="0.221" stop-color="#C5C9D7" stop-opacity="0.221"/>
<stop offset="0.5343" stop-color="#D7DAE3" stop-opacity="0.534"/>
<stop offset="0.9014" stop-color="#F6F6F8" stop-opacity="0.901"/>
<stop offset="1" stop-color="white"/>
</linearGradient>
<linearGradient id="paint41_linear" x1="31.4609" y1="59.5752" x2="31.4609" y2="61.5054" gradientUnits="userSpaceOnUse">
<stop stop-color="#7E8595"/>
<stop offset="1" stop-color="#555A66"/>
</linearGradient>
<linearGradient id="paint42_linear" x1="31.4609" y1="61.6232" x2="31.4609" y2="64.9122" gradientUnits="userSpaceOnUse">
<stop stop-color="#7E8595"/>
<stop offset="1" stop-color="#555A66"/>
</linearGradient>
<linearGradient id="paint43_linear" x1="33.5035" y1="61.6232" x2="33.5035" y2="64.9122" gradientUnits="userSpaceOnUse">
<stop stop-color="#555A66" stop-opacity="0"/>
<stop offset="1" stop-color="#555A66"/>
</linearGradient>
<linearGradient id="paint44_linear" x1="30.5088" y1="61.1502" x2="23.1758" y2="58.3298" gradientUnits="userSpaceOnUse">
<stop stop-color="#BEC3D2" stop-opacity="0"/>
<stop offset="0.221" stop-color="#C5C9D7" stop-opacity="0.221"/>
<stop offset="0.5343" stop-color="#D7DAE3" stop-opacity="0.534"/>
<stop offset="0.9014" stop-color="#F6F6F8" stop-opacity="0.901"/>
<stop offset="1" stop-color="white"/>
</linearGradient>
<linearGradient id="paint45_linear" x1="46.5307" y1="59.5752" x2="46.5307" y2="61.5054" gradientUnits="userSpaceOnUse">
<stop stop-color="#7E8595"/>
<stop offset="1" stop-color="#555A66"/>
</linearGradient>
<linearGradient id="paint46_linear" x1="46.5307" y1="61.6232" x2="46.5307" y2="64.9122" gradientUnits="userSpaceOnUse">
<stop stop-color="#7E8595"/>
<stop offset="1" stop-color="#555A66"/>
</linearGradient>
<linearGradient id="paint47_linear" x1="48.5732" y1="61.6232" x2="48.5732" y2="64.9122" gradientUnits="userSpaceOnUse">
<stop stop-color="#555A66" stop-opacity="0"/>
<stop offset="1" stop-color="#555A66"/>
</linearGradient>
<linearGradient id="paint48_linear" x1="45.5784" y1="61.1502" x2="38.2455" y2="58.3298" gradientUnits="userSpaceOnUse">
<stop stop-color="#BEC3D2" stop-opacity="0"/>
<stop offset="0.221" stop-color="#C5C9D7" stop-opacity="0.221"/>
<stop offset="0.5343" stop-color="#D7DAE3" stop-opacity="0.534"/>
<stop offset="0.9014" stop-color="#F6F6F8" stop-opacity="0.901"/>
<stop offset="1" stop-color="white"/>
</linearGradient>
<clipPath id="clip0">
<rect width="64" height="64" fill="white"/>
</clipPath>
</defs>
</svg>
