<svg width="64" height="64" viewBox="0 0 64 64" fill="none" xmlns="http://www.w3.org/2000/svg">
<path d="M46.1884 0C45.6706 0 45.2509 0.419633 45.2509 0.937518V8.43641H47.1259V0.937518C47.1259 0.419633 46.7061 0 46.1884 0V0Z" fill="#468943"/>
<path d="M55.0942 2.38632C54.6458 2.12744 54.0724 2.28106 53.8135 2.72945L50.0641 9.2237L51.6879 10.1612L55.4373 3.66697C55.6963 3.21858 55.5426 2.6452 55.0942 2.38632Z" fill="#468943"/>
<path d="M61.6136 8.90581C61.3548 8.45743 60.7814 8.3038 60.333 8.56268L53.8387 12.3121L54.7763 13.9359L61.2705 10.1865C61.7189 9.92758 61.8725 9.35419 61.6136 8.90581Z" fill="#468943"/>
<path d="M64 17.8116C64 17.2938 63.5804 16.8741 63.0625 16.8741H55.5636V18.7491H63.0625C63.5804 18.7491 64 18.3294 64 17.8116Z" fill="#468943"/>
<path d="M28.3768 17.8116C28.3768 18.3294 28.7965 18.7491 29.3143 18.7491H36.8132V16.8741H29.3143C28.7965 16.8741 28.3768 17.2938 28.3768 17.8116Z" fill="#5B9B40"/>
<path d="M30.7631 8.90581C30.5042 9.35419 30.6578 9.92758 31.1062 10.1865L37.6005 13.9359L38.538 12.3121L32.0437 8.56268C31.5954 8.3038 31.022 8.45743 30.7631 8.90581Z" fill="#5B9B40"/>
<path d="M37.2826 2.38632C36.8342 2.6452 36.6806 3.21858 36.9395 3.66697L40.6889 10.1612L42.3127 9.2237L38.5633 2.72945C38.3044 2.28106 37.731 2.12744 37.2826 2.38632Z" fill="#5B9B40"/>
<path d="M28.4939 24.3901C28.0229 24.1752 27.4667 24.3825 27.2516 24.8535C27.0365 25.3245 27.244 25.8806 27.715 26.0957L34.5373 29.2114L35.3162 27.5058L28.4939 24.3901Z" fill="#5B9B40"/>
<path d="M23.9576 30.4317C23.6776 29.9961 23.0974 29.8702 22.6621 30.1498C22.2265 30.4297 22.1004 31.0099 22.3802 31.4454L26.4351 37.7549L28.0125 36.7412L23.9576 30.4317Z" fill="#5B9B40"/>
<path d="M0.937518 47.1247C0.419758 47.1247 0 47.5443 0 48.0622C0 48.5801 0.419758 48.9997 0.937518 48.9997H8.43766V47.1247H0.937518Z" fill="#5B9B40"/>
<path d="M3.41593 39.7501C2.96754 39.4913 2.39416 39.6449 2.13528 40.0933C1.8764 40.5418 2.03003 41.115 2.47841 41.3739L8.97378 45.124L9.9113 43.5002L3.41593 39.7501Z" fill="#5B9B40"/>
<path d="M9.24957 34.6028C8.99069 34.1544 8.4173 34.0008 7.96892 34.2597C7.52041 34.5185 7.3669 35.0919 7.62578 35.5403L11.3759 42.0357L12.9996 41.0982L9.24957 34.6028Z" fill="#5B9B40"/>
<path d="M16.8754 33.0619C16.8754 32.5441 16.4558 32.1244 15.9379 32.1244C15.42 32.1244 15.0004 32.5441 15.0004 33.0619V40.5621H16.8754V33.0619Z" fill="#5B9B40"/>
<path d="M63.2577 26.0586C63.3502 25.5491 63.0122 25.0612 62.5027 24.9687L55.1243 23.6297L54.7896 25.4746L62.1679 26.8136C62.6774 26.9061 63.1653 26.5681 63.2577 26.0586Z" fill="#468943"/>
<path d="M61.0549 34.0406C61.2368 33.5559 60.9914 33.0155 60.5067 32.8335L53.4859 30.1986L52.827 31.9541L59.8478 34.589C60.3325 34.7709 60.8729 34.5254 61.0549 34.0406Z" fill="#468943"/>
<path d="M57.4622 41.5009C57.7277 41.0564 57.5828 40.4809 57.1381 40.2153L50.7007 36.3691L49.739 37.9787L56.1765 41.8249C56.621 42.0906 57.1965 41.9455 57.4622 41.5009Z" fill="#468943"/>
<path d="M52.5951 48.1999C52.9358 47.81 52.8959 47.2178 52.5059 46.877L46.8586 41.9432L45.625 43.3552L51.2722 48.289C51.6623 48.6298 52.2544 48.5898 52.5951 48.1999Z" fill="#468943"/>
<path d="M46.6102 53.9222C47.0149 53.5993 47.0814 53.0095 46.7587 52.6047L42.0832 46.7418L40.6173 47.9108L45.2928 53.7737C45.6154 54.1786 46.2053 54.2451 46.6102 53.9222Z" fill="#468943"/>
<path d="M39.6994 58.4837C40.1554 58.2384 40.3261 57.6698 40.0807 57.2138L36.5273 50.6103L34.8761 51.4988L38.4295 58.1024C38.675 58.5585 39.2435 58.7291 39.6994 58.4837Z" fill="#468943"/>
<path d="M32.0855 61.7382C32.5779 61.5782 32.8474 61.0493 32.6874 60.5568L30.3701 53.4249L28.5868 54.0043L30.9041 61.1362C31.0642 61.6288 31.5931 61.8982 32.0855 61.7382Z" fill="#468943"/>
<path d="M24.0127 63.5807C24.5258 63.5112 24.8854 63.039 24.8159 62.5258L23.8092 55.0948L21.9512 55.3464L22.9578 62.7775C23.0273 63.2907 23.4996 63.6502 24.0127 63.5807Z" fill="#468943"/>
<path d="M15.0002 63.0625C15.0002 63.5803 15.4199 64 15.9378 64C16.4557 64 16.8753 63.5803 16.8753 63.0625V55.5623H15.0002V63.0625Z" fill="#468943"/>
<path d="M7.62576 60.584C7.36688 61.0324 7.52051 61.6058 7.96889 61.8647C8.41727 62.1236 8.99066 61.9699 9.24954 61.5216L12.9996 55.0262L11.3758 54.0887L7.62576 60.584Z" fill="#468943"/>
<path d="M2.47841 54.7505C2.03003 55.0094 1.8764 55.5827 2.13528 56.0311C2.39416 56.4796 2.96754 56.6331 3.41593 56.3743L9.9113 52.6242L8.97378 51.0004L2.47841 54.7505Z" fill="#468943"/>
<path d="M46.1883 4.68625C38.9394 4.68625 33.0631 10.5626 33.0631 17.8115V19.6865C33.0631 29.1446 25.3958 36.8119 15.9377 36.8119C9.72435 36.8119 4.6875 41.8487 4.6875 48.0621C4.6875 54.2755 9.72435 59.3123 15.9377 59.3123H17.8128C40.733 59.3123 59.3136 40.7318 59.3136 17.8115C59.3136 10.5626 53.4372 4.68625 46.1883 4.68625Z" fill="#70AE3E"/>
<path d="M55.5636 17.8116C55.5636 12.9559 51.8529 8.95117 47.1183 8.48279L35.8043 35.8031L8.44519 48.3595C8.60194 52.3577 11.9019 55.5624 15.9378 55.5624H17.8129C27.8964 55.5624 37.3765 51.6357 44.5066 44.5054C51.6369 37.3752 55.5636 27.8952 55.5636 17.8116Z" fill="#9DCB3B"/>
<path d="M14.5144 51.6823L16.3305 51.7413C26.0971 52.0583 35.1558 48.553 41.8376 41.871C48.5197 35.1891 52.025 26.1305 51.708 16.3638C51.6018 13.0938 49.7705 10.1662 47.1184 8.48281C46.8124 8.45256 46.5022 8.43643 46.1885 8.43643C41.019 8.43643 36.8133 12.6421 36.8133 17.8116V19.6867C36.8133 31.1974 27.4486 40.5621 15.9379 40.5621C11.8023 40.5621 8.43774 43.9266 8.43774 48.0622C8.43774 48.1618 8.44137 48.2607 8.44524 48.3595C9.81965 50.2913 12.0446 51.6022 14.5144 51.6823Z" fill="#CEDE51"/>
<path d="M12.1877 48.9997C12.7055 48.9997 13.1252 48.5799 13.1252 48.0622C13.1252 47.5444 12.7055 47.1247 12.1877 47.1247C11.67 47.1247 11.2502 47.5444 11.2502 48.0622C11.2502 48.5799 11.67 48.9997 12.1877 48.9997Z" fill="#9DCB3B"/>
<path d="M15.9379 52.7498C16.4556 52.7498 16.8754 52.33 16.8754 51.8123C16.8754 51.2945 16.4556 50.8748 15.9379 50.8748C15.4201 50.8748 15.0004 51.2945 15.0004 51.8123C15.0004 52.33 15.4201 52.7498 15.9379 52.7498Z" fill="#70AE3E"/>
<path d="M41.855 42.7912C42.3727 42.7912 42.7925 42.3714 42.7925 41.8537C42.7925 41.3359 42.3727 40.9162 41.855 40.9162C41.3372 40.9162 40.9175 41.3359 40.9175 41.8537C40.9175 42.3714 41.3372 42.7912 41.855 42.7912Z" fill="#70AE3E"/>
<path d="M51.8135 18.7491C52.3312 18.7491 52.751 18.3294 52.751 17.8116C52.751 17.2938 52.3312 16.8741 51.8135 16.8741C51.2957 16.8741 50.876 17.2938 50.876 17.8116C50.876 18.3294 51.2957 18.7491 51.8135 18.7491Z" fill="#70AE3E"/>
<path d="M48.0635 22.4991C48.5812 22.4991 49.001 22.0794 49.001 21.5616C49.001 21.0439 48.5812 20.6241 48.0635 20.6241C47.5457 20.6241 47.126 21.0439 47.126 21.5616C47.126 22.0794 47.5457 22.4991 48.0635 22.4991Z" fill="#9DCB3B"/>
<path d="M46.1884 13.124C46.7061 13.124 47.1259 12.7042 47.1259 12.1865C47.1259 11.6687 46.7061 11.249 46.1884 11.249C45.6706 11.249 45.2509 11.6687 45.2509 12.1865C45.2509 12.7042 45.6706 13.124 46.1884 13.124Z" fill="#9DCB3B"/>
</svg>
