<svg width="64" height="64" viewBox="0 0 64 64" fill="none" xmlns="http://www.w3.org/2000/svg">
<g clip-path="url(#clip0)">
<path d="M54.4158 58.814C49.8259 58.814 46.1051 55.0932 46.1051 50.5033V8.05145H62.7264V50.5034C62.7264 55.0932 59.0056 58.814 54.4158 58.814Z" fill="url(#paint0_linear)"/>
<path d="M54.5262 57.192H54.3051C50.6873 57.192 47.7546 54.2593 47.7546 50.6416V8.05145H61.0765V50.6416C61.0767 54.2593 58.144 57.192 54.5262 57.192Z" fill="url(#paint1_linear)"/>
<path d="M56.8906 26.8971C58.189 26.8971 59.2415 25.8445 59.2415 24.5461C59.2415 23.2477 58.189 22.1952 56.8906 22.1952C55.5922 22.1952 54.5397 23.2477 54.5397 24.5461C54.5397 25.8445 55.5922 26.8971 56.8906 26.8971Z" fill="url(#paint2_linear)"/>
<path d="M56.8906 26.5082C57.9742 26.5082 58.8527 25.6297 58.8527 24.5461C58.8527 23.4625 57.9742 22.5841 56.8906 22.5841C55.807 22.5841 54.9286 23.4625 54.9286 24.5461C54.9286 25.6297 55.807 26.5082 56.8906 26.5082Z" fill="url(#paint3_linear)"/>
<path d="M57.9422 22.4432C58.1007 22.7597 58.1901 23.1167 58.1901 23.4948C58.1901 24.7931 57.1377 25.8457 55.8392 25.8457C55.4611 25.8457 55.1041 25.7564 54.7876 25.5977C55.1736 26.3681 55.9702 26.8971 56.8906 26.8971C58.1889 26.8971 59.2415 25.8446 59.2415 24.5461C59.2415 23.6258 58.7126 22.8292 57.9422 22.4432Z" fill="url(#paint4_linear)"/>
<path d="M53.0756 18.6048C55.0823 18.6048 56.709 16.9781 56.709 14.9714C56.709 12.9647 55.0823 11.3379 53.0756 11.3379C51.0689 11.3379 49.4421 12.9647 49.4421 14.9714C49.4421 16.9781 51.0689 18.6048 53.0756 18.6048Z" fill="url(#paint5_linear)"/>
<path d="M53.0756 18.0038C54.7503 18.0038 56.108 16.6461 56.108 14.9713C56.108 13.2966 54.7503 11.9389 53.0756 11.9389C51.4008 11.9389 50.0431 13.2966 50.0431 14.9713C50.0431 16.6461 51.4008 18.0038 53.0756 18.0038Z" fill="url(#paint6_linear)"/>
<path d="M54.701 11.721C54.9461 12.2101 55.0842 12.7621 55.0842 13.3464C55.0842 15.3531 53.4575 16.9798 51.4508 16.9798C50.8665 16.9798 50.3145 16.8417 49.8254 16.5966C50.422 17.7872 51.6533 18.6047 53.0758 18.6047C55.0825 18.6047 56.7092 16.9779 56.7092 14.9712C56.7091 13.5489 55.8916 12.3176 54.701 11.721Z" fill="url(#paint7_linear)"/>
<path d="M55.8774 57.0519C58.8468 56.4291 61.0767 53.7962 61.0767 50.6417V8.05145H50.6781V50.6416C50.6781 53.796 52.9081 56.4291 55.8774 57.0519Z" fill="url(#paint8_linear)"/>
<path d="M61.0768 29.3971V50.641C61.0768 54.2594 58.1435 57.1914 54.5265 57.1914H54.3051C50.6882 57.1914 47.7548 54.2594 47.7548 50.641V28.8903C48.5423 28.3762 49.483 28.0775 50.495 28.0775C53.0375 28.0775 55.1387 29.9663 55.4745 32.4166C55.5682 32.4077 55.6633 32.4032 55.7584 32.4032C56.2755 32.4032 56.7645 32.522 57.1984 32.7331C57.4749 30.8459 59.1005 29.3969 61.0635 29.3969H61.0768V29.3971Z" fill="url(#paint9_linear)"/>
<path d="M62.7392 8.05145H46.0923V10.1308L62.7392 27.1322V8.05145Z" fill="url(#paint10_linear)"/>
<path d="M61.3254 10.5353H47.5062C46.0291 10.5353 44.8315 9.33785 44.8315 7.86058C44.8315 6.38344 46.0291 5.18588 47.5062 5.18588H61.3255C62.8026 5.18588 64.0002 6.38344 64.0002 7.86058C64.0001 9.33785 62.8025 10.5353 61.3254 10.5353Z" fill="url(#paint11_linear)"/>
<path d="M55.4747 32.4166C55.4745 32.4166 55.4745 32.4166 55.4747 32.4166C55.3187 31.2793 54.7821 30.2635 53.998 29.5009C53.9901 29.4932 53.9827 29.4852 53.9748 29.4775C53.9739 29.4767 53.9729 29.4758 53.972 29.475C53.069 28.6096 51.844 28.0779 50.495 28.0779C50.4704 28.0779 50.4463 28.08 50.4217 28.0802C50.3306 28.0815 50.2398 28.0841 50.15 28.0902C50.1012 28.0935 50.0531 28.0994 50.0047 28.104C49.9382 28.1106 49.8717 28.1171 49.8059 28.1261C49.7539 28.1333 49.7026 28.1421 49.6512 28.1507C49.5898 28.1611 49.5287 28.1722 49.4681 28.1847C49.4165 28.1955 49.365 28.2069 49.3141 28.2192C49.2542 28.2337 49.1949 28.2495 49.1359 28.2661C49.0866 28.2799 49.0371 28.2937 48.9883 28.309C48.9265 28.3284 48.8655 28.35 48.8047 28.3717C48.7608 28.3874 48.7165 28.4021 48.6732 28.419C48.5893 28.4518 48.5068 28.4873 48.4251 28.5243C48.3981 28.5366 48.3709 28.5485 48.3441 28.5612C48.2538 28.604 48.165 28.6493 48.0778 28.6972C48.046 28.7147 48.0154 28.7338 47.984 28.7519C47.9184 28.7898 47.8533 28.8285 47.7896 28.8693C47.7779 28.8768 47.7664 28.885 47.7548 28.8926V37.3175C48.543 37.8313 49.4836 38.1308 50.495 38.1308C51.3954 38.1308 52.2404 37.8939 52.9723 37.4793C54.4952 36.6158 55.522 34.9809 55.522 33.1051C55.522 32.8707 55.5062 32.6416 55.4747 32.4166Z" fill="url(#paint12_linear)"/>
<path d="M61.0768 37.2075V29.3972C61.0749 29.3972 61.073 29.3971 61.071 29.3971H61.0633C59.7557 29.3971 58.5985 30.0405 57.8893 31.0276C57.5339 31.5225 57.2908 32.1035 57.199 32.7338C57.1726 32.9194 57.1582 33.109 57.1582 33.3025C57.1582 34.6781 57.869 35.8877 58.9444 36.5828C59.5552 36.979 60.2832 37.2081 61.0637 37.2081C61.0681 37.208 61.0724 37.2075 61.0768 37.2075Z" fill="url(#paint13_linear)"/>
<path d="M59.063 35.7074C59.063 36.0102 59.0222 36.3037 58.9445 36.5827C58.5614 37.9819 57.2807 39.01 55.759 39.01C54.5874 39.01 53.558 38.3993 52.9723 37.4792C52.6458 36.967 52.4563 36.3603 52.4563 35.7074C52.4563 33.979 53.7831 32.5599 55.4747 32.4165C55.5682 32.4073 55.663 32.4033 55.7591 32.4033C56.2751 32.4033 56.7648 32.5218 57.1991 32.7337C58.3021 33.2682 59.063 34.3989 59.063 35.7074Z" fill="url(#paint14_linear)"/>
<path d="M61.0634 29.3971C59.1004 29.3971 57.4748 30.846 57.1983 32.7332C56.7644 32.5222 56.2755 32.4033 55.7583 32.4033C55.6632 32.4033 55.5681 32.4078 55.4745 32.4168C55.1467 30.0255 53.1376 28.17 50.678 28.0818V52.9832C50.678 53.1574 50.6848 53.3299 50.6982 53.5006C50.845 55.3747 52.3032 56.8929 54.1617 57.175C54.2302 57.1854 54.2799 57.1913 54.305 57.1913H54.5264C57.8042 57.1913 60.5207 54.7834 61.0012 51.6387C61.0147 51.5501 61.0253 51.4605 61.0352 51.3707C61.0375 51.3507 61.0407 51.3311 61.0427 51.3112C61.0651 51.0909 61.0766 50.8676 61.0766 50.6414V29.3971H61.0634Z" fill="url(#paint15_linear)"/>
<path d="M46.1051 40.7977V50.5034C46.1051 55.0932 49.8259 58.8141 54.4158 58.8141C59.0056 58.8141 62.7265 55.0933 62.7265 50.5034V40.7977H46.1051Z" fill="url(#paint16_linear)"/>
<path d="M44.7198 48.2273L33.3855 31.5505C31.8903 29.3505 31.0908 26.7519 31.0908 24.0919V8.05145H14.4438V24.0919C14.4438 26.7519 13.6443 29.3505 12.1491 31.5505L0.814782 48.2273C-0.900292 50.7509 0.206155 54.2143 3.0667 55.2761C15.7767 59.9935 29.7577 59.9935 42.4677 55.2761C45.3284 54.2143 46.435 50.7509 44.7198 48.2273Z" fill="url(#paint17_linear)"/>
<path d="M40.5238 42.0534C28.9929 45.8624 16.5416 45.8624 5.01067 42.0534L0.814782 48.2273C-0.900292 50.7509 0.206155 54.2143 3.0667 55.2761C15.7767 59.9935 29.7577 59.9935 42.4677 55.2761C45.3283 54.2143 46.4349 50.7509 44.7197 48.2273L40.5238 42.0534Z" fill="url(#paint18_radial)"/>
<path d="M22.7674 57.3279C16.1974 57.3279 9.74323 56.1689 3.58392 53.8828C2.65153 53.5367 1.94326 52.795 1.64045 51.8475C1.33777 50.9002 1.48485 49.885 2.0439 49.0625L13.3782 32.3858C15.0476 29.9295 15.9299 27.0616 15.9299 24.0919V9.53751H29.6049V24.0919C29.6049 27.0616 30.4873 29.9295 32.1567 32.3858L43.4909 49.0625C44.0499 49.8851 44.1969 50.9002 43.8944 51.8475C43.5917 52.795 42.8833 53.5367 41.9509 53.8828C35.7915 56.1689 29.3373 57.3279 22.7674 57.3279Z" fill="url(#paint19_linear)"/>
<path d="M23.2072 33.4327C25.2139 33.4327 26.8406 31.806 26.8406 29.7993C26.8406 27.7926 25.2139 26.1658 23.2072 26.1658C21.2005 26.1658 19.5737 27.7926 19.5737 29.7993C19.5737 31.806 21.2005 33.4327 23.2072 33.4327Z" fill="url(#paint20_radial)"/>
<path d="M23.2072 32.8317C24.8819 32.8317 26.2396 31.4741 26.2396 29.7993C26.2396 28.1245 24.8819 26.7668 23.2072 26.7668C21.5324 26.7668 20.1747 28.1245 20.1747 29.7993C20.1747 31.4741 21.5324 32.8317 23.2072 32.8317Z" fill="url(#paint21_linear)"/>
<path d="M24.8325 26.549C25.0775 27.038 25.2157 27.59 25.2157 28.1743C25.2157 30.181 23.589 31.8077 21.5823 31.8077C20.998 31.8077 20.4459 31.6696 19.9569 31.4245C20.5535 32.6151 21.7848 33.4326 23.2072 33.4326C25.2139 33.4326 26.8407 31.8059 26.8407 29.7991C26.8406 28.3768 26.0231 27.1455 24.8325 26.549Z" fill="url(#paint22_linear)"/>
<path d="M25.7036 23.0409C26.7599 23.0409 27.6162 22.1846 27.6162 21.1283C27.6162 20.072 26.7599 19.2157 25.7036 19.2157C24.6473 19.2157 23.791 20.072 23.791 21.1283C23.791 22.1846 24.6473 23.0409 25.7036 23.0409Z" fill="url(#paint23_radial)"/>
<path d="M25.7037 22.7245C26.5852 22.7245 27.2999 22.0099 27.2999 21.1283C27.2999 20.2467 26.5852 19.532 25.7037 19.532C24.8221 19.532 24.1074 20.2467 24.1074 21.1283C24.1074 22.0099 24.8221 22.7245 25.7037 22.7245Z" fill="url(#paint24_linear)"/>
<path d="M26.5591 19.4175C26.6881 19.6749 26.7607 19.9655 26.7607 20.2731C26.7607 21.3293 25.9045 22.1857 24.8483 22.1857C24.5407 22.1857 24.2502 22.113 23.9927 21.984C24.3067 22.6107 24.9548 23.041 25.7035 23.041C26.7597 23.041 27.6161 22.1848 27.6161 21.1285C27.6161 20.3796 27.1858 19.7316 26.5591 19.4175Z" fill="url(#paint25_linear)"/>
<path d="M33.3855 31.5505C31.8903 29.3505 31.0908 26.7519 31.0908 24.0919V9.53751H20.3005V24.0919C20.3005 27.0616 19.4182 29.9295 17.7488 32.3858L6.41451 49.0625C5.85545 49.8851 5.70838 50.9002 6.01106 51.8475C6.31374 52.795 7.02213 53.5367 7.95453 53.8828C14.1138 56.1689 20.568 57.3279 27.138 57.3279C32.6014 57.3279 37.9843 56.5235 43.1848 54.9388C45.5013 53.6074 46.283 50.5272 44.7196 48.2271L33.3855 31.5505Z" fill="url(#paint26_linear)"/>
<path d="M43.8938 51.847C43.5922 52.7951 42.8834 53.5366 41.9501 53.8828C35.7921 56.1684 29.3369 57.3274 22.7673 57.3274C16.1977 57.3274 9.74244 56.1684 3.58451 53.8828C2.65124 53.5366 1.94247 52.7951 1.64079 51.847C1.33761 50.9004 1.48481 49.8855 2.04349 49.0623L10.9803 35.9155C11.9996 34.4058 13.7264 33.4131 15.685 33.4131C18.5545 33.4131 20.9276 35.5441 21.3066 38.311C21.4121 38.3006 21.5191 38.2962 21.6276 38.2962C22.2101 38.2962 22.7629 38.43 23.2533 38.6692C23.5639 36.5382 25.3991 34.9021 27.6163 34.9021C29.0606 34.9021 30.343 35.596 31.147 36.6705C31.6553 36.409 32.2304 36.2633 32.8397 36.2633C33.9869 36.2633 35.0137 36.7804 35.6972 37.5962L36.1236 38.2233L43.4913 49.0623C44.05 49.8855 44.197 50.9004 43.8938 51.847Z" fill="url(#paint27_radial)"/>
<path d="M31.0908 24.0919V8.05145H14.4437V10.1308L31.4453 27.1322C31.2119 26.1409 31.0908 25.1211 31.0908 24.0919Z" fill="url(#paint28_linear)"/>
<path d="M29.6769 10.5353H15.8577C14.3805 10.5353 13.183 9.33785 13.183 7.86058C13.183 6.38344 14.3805 5.18588 15.8577 5.18588H29.6769C31.1541 5.18588 32.3516 6.38344 32.3516 7.86058C32.3516 9.33785 31.1541 10.5353 29.6769 10.5353Z" fill="url(#paint29_linear)"/>
<path d="M21.3601 39.0882C21.3601 41.2057 20.201 43.0514 18.4817 44.0262C17.6555 44.4943 16.7015 44.7619 15.685 44.7619C12.551 44.7619 10.0115 42.2223 10.0115 39.0883C10.0115 37.9144 10.3681 36.8222 10.9804 35.9157C11.9997 34.4059 13.7265 33.4133 15.6851 33.4133C18.5546 33.4133 20.9277 35.5442 21.3067 38.3112C21.3422 38.5651 21.3601 38.8237 21.3601 39.0882Z" fill="url(#paint30_linear)"/>
<path d="M36.5693 39.9917C36.5693 42.0514 34.8991 43.7202 32.8395 43.7202C31.8825 43.7202 31.0118 43.3605 30.3519 42.7677C31.3713 41.9623 32.0252 40.7125 32.0252 39.3112C32.0252 38.3201 31.6983 37.4061 31.147 36.6705C31.6553 36.409 32.2304 36.2633 32.8396 36.2633C33.9869 36.2633 35.0136 36.7804 35.6972 37.5962C35.8606 37.7894 36.0032 37.9989 36.1236 38.2233C36.4073 38.7494 36.5693 39.3512 36.5693 39.9917Z" fill="url(#paint31_linear)"/>
<path d="M32.0251 39.3111C32.0251 40.7124 31.3713 41.962 30.3518 42.7676C29.5999 43.3649 28.6489 43.72 27.6161 43.72C26.7349 43.72 25.9132 43.4615 25.2237 43.0142C24.0095 42.2296 23.2072 40.8639 23.2072 39.3111C23.2072 39.0926 23.2235 38.8786 23.2532 38.6691C23.5638 36.5381 25.399 34.902 27.6161 34.902C29.0605 34.902 30.3429 35.5959 31.1469 36.6704C31.6982 37.406 32.0251 38.32 32.0251 39.3111Z" fill="url(#paint32_linear)"/>
<path d="M25.3574 42.026C25.3574 42.3679 25.3114 42.6992 25.2237 43.0143C24.7912 44.5938 23.3453 45.7545 21.6275 45.7545C20.3049 45.7545 19.1429 45.065 18.4816 44.0262C18.113 43.4482 17.899 42.7632 17.899 42.026C17.899 40.0749 19.3969 38.473 21.3065 38.311C21.412 38.3006 21.5189 38.2962 21.6275 38.2962C22.21 38.2962 22.7628 38.43 23.2532 38.6692C24.4986 39.2725 25.3574 40.5489 25.3574 42.026Z" fill="url(#paint33_linear)"/>
<path d="M36.1235 38.2233L35.6971 37.5962C35.0135 36.7804 33.9866 36.2633 32.8395 36.2633C32.2303 36.2633 31.6551 36.409 31.1469 36.6705C30.343 35.5961 29.0605 34.9021 27.6161 34.9021C25.399 34.9021 23.5638 36.5382 23.2532 38.6692C22.7628 38.4299 22.21 38.2962 21.6275 38.2962C21.519 38.2962 21.412 38.3006 21.3065 38.311C20.9838 35.9556 19.2157 34.0619 16.9269 33.5506L12.8906 39.4894C12.8209 39.5919 12.7529 39.6949 12.6867 39.7986C7.8553 47.3475 13.3971 57.2603 22.3595 57.3259C22.4954 57.3269 22.6314 57.3274 22.7673 57.3274C29.337 57.3274 35.7922 56.1684 41.9501 53.8829C42.8833 53.5366 43.5921 52.7951 43.8938 51.847C44.197 50.9005 44.0498 49.8855 43.4911 49.0623L36.1235 38.2233Z" fill="url(#paint34_linear)"/>
<path d="M43.8938 51.847C43.5922 52.7951 42.8834 53.5366 41.9501 53.8828C35.7921 56.1684 29.3369 57.3274 22.7673 57.3274C16.1977 57.3274 9.74244 56.1684 3.58451 53.8828C2.65124 53.5366 1.94247 52.7951 1.64079 51.847C1.33761 50.9004 1.48481 49.8855 2.04349 49.0623L10.9803 35.9155C11.9996 34.4058 13.7264 33.4131 15.685 33.4131C18.5545 33.4131 20.9276 35.5441 21.3066 38.311C21.4121 38.3006 21.5191 38.2962 21.6276 38.2962C22.2101 38.2962 22.7629 38.43 23.2533 38.6692C23.5639 36.5382 25.3991 34.9021 27.6163 34.9021C29.0606 34.9021 30.343 35.596 31.147 36.6705C31.6553 36.409 32.2304 36.2633 32.8397 36.2633C33.9869 36.2633 35.0137 36.7804 35.6972 37.5962L36.1236 38.2233L43.4913 49.0623C44.05 49.8855 44.197 50.9004 43.8938 51.847Z" fill="url(#paint35_linear)"/>
<path d="M39.0425 42.5176C28.4269 45.7043 17.108 45.7043 6.49237 42.5177L2.04349 49.0623C1.48481 49.8855 1.33761 50.9004 1.64079 51.847C1.94247 52.7951 2.65124 53.5366 3.58451 53.8828C9.74257 56.1684 16.1978 57.3274 22.7673 57.3274C29.337 57.3274 35.7922 56.1684 41.9501 53.8828C42.8833 53.5366 43.5922 52.7951 43.8938 51.847C44.197 50.9004 44.0498 49.8855 43.4911 49.0623L39.0425 42.5176Z" fill="url(#paint36_linear)"/>
</g>
<defs>
<linearGradient id="paint0_linear" x1="46.5959" y1="26.619" x2="68.9053" y2="40.7331" gradientUnits="userSpaceOnUse">
<stop stop-color="#F9F7FC"/>
<stop offset="1" stop-color="#F0DDFC"/>
</linearGradient>
<linearGradient id="paint1_linear" x1="59.0247" y1="26.633" x2="39.9255" y2="43.9034" gradientUnits="userSpaceOnUse">
<stop stop-color="#F9F7FC"/>
<stop offset="1" stop-color="#F0DDFC"/>
</linearGradient>
<linearGradient id="paint2_linear" x1="54.5397" y1="24.5461" x2="59.2415" y2="24.5461" gradientUnits="userSpaceOnUse">
<stop stop-color="#FFDA45"/>
<stop offset="1" stop-color="#FFA425"/>
</linearGradient>
<linearGradient id="paint3_linear" x1="56.9784" y1="24.6705" x2="55.5278" y2="22.6141" gradientUnits="userSpaceOnUse">
<stop stop-color="#FFDA45" stop-opacity="0"/>
<stop offset="1" stop-color="#FCEE21"/>
</linearGradient>
<linearGradient id="paint4_linear" x1="56.9723" y1="25.4472" x2="60.2036" y2="19.4372" gradientUnits="userSpaceOnUse">
<stop stop-color="#FFDA45" stop-opacity="0"/>
<stop offset="1" stop-color="#B53759"/>
</linearGradient>
<linearGradient id="paint5_linear" x1="49.4421" y1="14.9714" x2="56.709" y2="14.9714" gradientUnits="userSpaceOnUse">
<stop stop-color="#FFDA45"/>
<stop offset="1" stop-color="#FFA425"/>
</linearGradient>
<linearGradient id="paint6_linear" x1="53.2111" y1="15.1636" x2="50.9692" y2="11.9852" gradientUnits="userSpaceOnUse">
<stop stop-color="#FFDA45" stop-opacity="0"/>
<stop offset="1" stop-color="#FCEE21"/>
</linearGradient>
<linearGradient id="paint7_linear" x1="53.2019" y1="16.3639" x2="58.1963" y2="7.07501" gradientUnits="userSpaceOnUse">
<stop stop-color="#FFDA45" stop-opacity="0"/>
<stop offset="1" stop-color="#B53759"/>
</linearGradient>
<linearGradient id="paint8_linear" x1="60.8718" y1="29.7133" x2="49.8686" y2="33.887" gradientUnits="userSpaceOnUse">
<stop stop-color="white" stop-opacity="0"/>
<stop offset="1" stop-color="white"/>
</linearGradient>
<linearGradient id="paint9_linear" x1="52.2801" y1="38.8206" x2="62.9794" y2="51.006" gradientUnits="userSpaceOnUse">
<stop stop-color="#FFDA45"/>
<stop offset="1" stop-color="#FFA425"/>
</linearGradient>
<linearGradient id="paint10_linear" x1="57.7038" y1="16.5835" x2="45.6884" y2="-10.7957" gradientUnits="userSpaceOnUse">
<stop stop-color="#F0DDFC" stop-opacity="0"/>
<stop offset="0.2889" stop-color="#C8B7E0" stop-opacity="0.289"/>
<stop offset="0.5915" stop-color="#A595C8" stop-opacity="0.592"/>
<stop offset="0.8395" stop-color="#8F81B8" stop-opacity="0.84"/>
<stop offset="1" stop-color="#8779B3"/>
</linearGradient>
<linearGradient id="paint11_linear" x1="54.1049" y1="5.90682" x2="55.4919" y2="14.6248" gradientUnits="userSpaceOnUse">
<stop stop-color="#F9F7FC"/>
<stop offset="1" stop-color="#F0DDFC"/>
</linearGradient>
<linearGradient id="paint12_linear" x1="48.5366" y1="35.6169" x2="53.8862" y2="29.2271" gradientUnits="userSpaceOnUse">
<stop stop-color="#FFDA45" stop-opacity="0"/>
<stop offset="1" stop-color="#FCEE21"/>
</linearGradient>
<linearGradient id="paint13_linear" x1="58.8868" y1="35.7776" x2="60.1499" y2="31.3939" gradientUnits="userSpaceOnUse">
<stop stop-color="#FFDA45" stop-opacity="0"/>
<stop offset="1" stop-color="#FCEE21"/>
</linearGradient>
<linearGradient id="paint14_linear" x1="57.272" y1="37.3453" x2="53.7056" y2="33.4817" gradientUnits="userSpaceOnUse">
<stop stop-color="#FFDA45" stop-opacity="0"/>
<stop offset="1" stop-color="#FCEE21"/>
</linearGradient>
<linearGradient id="paint15_linear" x1="59.0048" y1="41.3996" x2="43.4512" y2="44.5697" gradientUnits="userSpaceOnUse">
<stop stop-color="#FFDA45" stop-opacity="0"/>
<stop offset="1" stop-color="white"/>
</linearGradient>
<linearGradient id="paint16_linear" x1="53.7232" y1="44.6435" x2="58.3299" y2="56.5316" gradientUnits="userSpaceOnUse">
<stop stop-color="#F0DDFC" stop-opacity="0"/>
<stop offset="0.1831" stop-color="#ECD9F9" stop-opacity="0.183"/>
<stop offset="0.3829" stop-color="#DECCF0" stop-opacity="0.383"/>
<stop offset="0.5905" stop-color="#C9B8E1" stop-opacity="0.591"/>
<stop offset="0.8021" stop-color="#AA9BCC" stop-opacity="0.802"/>
<stop offset="1" stop-color="#8779B3"/>
</linearGradient>
<linearGradient id="paint17_linear" x1="14.1692" y1="28.6728" x2="52.081" y2="73.9299" gradientUnits="userSpaceOnUse">
<stop stop-color="#F9F7FC"/>
<stop offset="1" stop-color="#F0DDFC"/>
</linearGradient>
<radialGradient id="paint18_radial" cx="0" cy="0" r="1" gradientUnits="userSpaceOnUse" gradientTransform="translate(21.5785 21.2769) scale(40.2556)">
<stop stop-color="#F0DDFC" stop-opacity="0"/>
<stop offset="0.4454" stop-color="#EEDBFB" stop-opacity="0.445"/>
<stop offset="0.6058" stop-color="#E7D5F6" stop-opacity="0.606"/>
<stop offset="0.7201" stop-color="#DCC9EE" stop-opacity="0.72"/>
<stop offset="0.8126" stop-color="#CBB9E2" stop-opacity="0.813"/>
<stop offset="0.8918" stop-color="#B5A4D3" stop-opacity="0.892"/>
<stop offset="0.9607" stop-color="#9A8BC0" stop-opacity="0.961"/>
<stop offset="1" stop-color="#8779B3"/>
</radialGradient>
<linearGradient id="paint19_linear" x1="28.5499" y1="31.9879" x2="15.3741" y2="40.1114" gradientUnits="userSpaceOnUse">
<stop stop-color="#F9F7FC"/>
<stop offset="1" stop-color="#F0DDFC"/>
</linearGradient>
<radialGradient id="paint20_radial" cx="0" cy="0" r="1" gradientUnits="userSpaceOnUse" gradientTransform="translate(21.9621 28.0698) scale(5.62974)">
<stop stop-color="#92F37F"/>
<stop offset="0.2819" stop-color="#8FF07E"/>
<stop offset="0.5001" stop-color="#85E77D"/>
<stop offset="0.6969" stop-color="#75D97A"/>
<stop offset="0.88" stop-color="#5EC476"/>
<stop offset="1" stop-color="#4AB272"/>
</radialGradient>
<linearGradient id="paint21_linear" x1="23.3428" y1="29.9915" x2="21.1009" y2="26.8131" gradientUnits="userSpaceOnUse">
<stop stop-color="#92F37F" stop-opacity="0"/>
<stop offset="1" stop-color="#FFEE83"/>
</linearGradient>
<linearGradient id="paint22_linear" x1="23.3333" y1="31.1918" x2="28.3277" y2="21.9029" gradientUnits="userSpaceOnUse">
<stop stop-color="#4AB272" stop-opacity="0"/>
<stop offset="1" stop-color="#009245"/>
</linearGradient>
<radialGradient id="paint23_radial" cx="0" cy="0" r="1" gradientUnits="userSpaceOnUse" gradientTransform="translate(25.0482 20.218) scale(2.96333)">
<stop stop-color="#92F37F"/>
<stop offset="0.2819" stop-color="#8FF07E"/>
<stop offset="0.5001" stop-color="#85E77D"/>
<stop offset="0.6969" stop-color="#75D97A"/>
<stop offset="0.88" stop-color="#5EC476"/>
<stop offset="1" stop-color="#4AB272"/>
</radialGradient>
<linearGradient id="paint24_linear" x1="25.7749" y1="21.2296" x2="24.595" y2="19.5565" gradientUnits="userSpaceOnUse">
<stop stop-color="#92F37F" stop-opacity="0"/>
<stop offset="1" stop-color="#FFEE83"/>
</linearGradient>
<linearGradient id="paint25_linear" x1="25.77" y1="21.8613" x2="28.3989" y2="16.9719" gradientUnits="userSpaceOnUse">
<stop stop-color="#4AB272" stop-opacity="0"/>
<stop offset="1" stop-color="#009245"/>
</linearGradient>
<linearGradient id="paint26_linear" x1="23.6134" y1="33.2174" x2="12.3198" y2="29.0566" gradientUnits="userSpaceOnUse">
<stop stop-color="white" stop-opacity="0"/>
<stop offset="1" stop-color="white"/>
</linearGradient>
<radialGradient id="paint27_radial" cx="0" cy="0" r="1" gradientUnits="userSpaceOnUse" gradientTransform="translate(16.3775 41.5927) scale(25.4167)">
<stop stop-color="#92F37F"/>
<stop offset="0.2819" stop-color="#8FF07E"/>
<stop offset="0.5001" stop-color="#85E77D"/>
<stop offset="0.6969" stop-color="#75D97A"/>
<stop offset="0.88" stop-color="#5EC476"/>
<stop offset="1" stop-color="#4AB272"/>
</radialGradient>
<linearGradient id="paint28_linear" x1="26.0848" y1="16.6509" x2="13.9987" y2="-10.8897" gradientUnits="userSpaceOnUse">
<stop stop-color="#F0DDFC" stop-opacity="0"/>
<stop offset="0.2889" stop-color="#C8B7E0" stop-opacity="0.289"/>
<stop offset="0.5915" stop-color="#A595C8" stop-opacity="0.592"/>
<stop offset="0.8395" stop-color="#8F81B8" stop-opacity="0.84"/>
<stop offset="1" stop-color="#8779B3"/>
</linearGradient>
<linearGradient id="paint29_linear" x1="22.4565" y1="5.90682" x2="23.8434" y2="14.6248" gradientUnits="userSpaceOnUse">
<stop stop-color="#F9F7FC"/>
<stop offset="1" stop-color="#F0DDFC"/>
</linearGradient>
<linearGradient id="paint30_linear" x1="15.351" y1="39.5063" x2="19.809" y2="33.9338" gradientUnits="userSpaceOnUse">
<stop stop-color="#92F37F" stop-opacity="0"/>
<stop offset="1" stop-color="#FFEE83"/>
</linearGradient>
<linearGradient id="paint31_linear" x1="33.3455" y1="40.7145" x2="31.9337" y2="35.7735" gradientUnits="userSpaceOnUse">
<stop stop-color="#92F37F" stop-opacity="0"/>
<stop offset="1" stop-color="#FFEE83"/>
</linearGradient>
<linearGradient id="paint32_linear" x1="27.2335" y1="40.3093" x2="30.156" y2="32.6812" gradientUnits="userSpaceOnUse">
<stop stop-color="#92F37F" stop-opacity="0"/>
<stop offset="1" stop-color="#FFEE83"/>
</linearGradient>
<linearGradient id="paint33_linear" x1="21.9233" y1="43.3714" x2="20.3382" y2="36.1395" gradientUnits="userSpaceOnUse">
<stop stop-color="#92F37F" stop-opacity="0"/>
<stop offset="1" stop-color="#FFEE83"/>
</linearGradient>
<linearGradient id="paint34_linear" x1="25.8197" y1="48.0048" x2="16.3135" y2="58.5463" gradientUnits="userSpaceOnUse">
<stop stop-color="#92F37F" stop-opacity="0"/>
<stop offset="1" stop-color="#FFEE83"/>
</linearGradient>
<linearGradient id="paint35_linear" x1="20.0457" y1="47.3397" x2="50.9547" y2="33.3712" gradientUnits="userSpaceOnUse">
<stop stop-color="white" stop-opacity="0"/>
<stop offset="1" stop-color="white"/>
</linearGradient>
<linearGradient id="paint36_linear" x1="21.642" y1="45.4135" x2="24.4131" y2="58.8361" gradientUnits="userSpaceOnUse">
<stop stop-color="#4AB272" stop-opacity="0"/>
<stop offset="0.3114" stop-color="#47B170" stop-opacity="0.311"/>
<stop offset="0.5196" stop-color="#3EAD6B" stop-opacity="0.52"/>
<stop offset="0.6976" stop-color="#2FA662" stop-opacity="0.698"/>
<stop offset="0.8576" stop-color="#1A9D55" stop-opacity="0.858"/>
<stop offset="1" stop-color="#009245"/>
</linearGradient>
<clipPath id="clip0">
<rect width="64" height="64" fill="white"/>
</clipPath>
</defs>
</svg>
