<svg width="64" height="64" viewBox="0 0 64 64" fill="none" xmlns="http://www.w3.org/2000/svg">
<g clip-path="url(#clip0)">
<path d="M28.9806 56.0176C28.9806 54.8479 29.8822 53.8839 31.0478 53.7869C43.7036 52.7332 53.6802 42.0962 53.6802 29.173C53.6802 16.2495 43.7034 5.6123 31.0473 4.55893C29.882 4.46193 28.9806 3.49817 28.9806 2.32885V0C36.5109 0 43.6056 2.83369 49.0469 7.99686C55.175 13.8117 58.495 22.0416 58.1249 30.4814C57.8048 37.7827 54.8095 44.6009 49.6089 49.8014C44.6688 54.7416 38.2688 57.6919 31.3816 58.2492C30.0858 58.3541 28.9806 57.3178 28.9806 56.0176Z" fill="url(#paint0_radial)"/>
<path d="M31.3817 58.2492C38.2689 57.6919 44.6687 54.7416 49.609 49.8014C54.8096 44.6008 57.8049 37.7826 58.1251 30.4814C58.1313 30.3385 58.1338 30.1957 58.138 30.0529C57.9103 22.3749 54.6561 15.029 49.047 9.70654C44.192 5.09979 38.0209 2.34741 31.3985 1.80768C30.399 1.72624 29.5115 2.31529 29.152 3.18393C29.4662 3.93876 30.1839 4.48715 31.0474 4.55905C43.7035 5.61242 53.6803 16.2496 53.6803 29.1731C53.6803 29.4593 53.6737 29.7439 53.664 30.0279C53.6737 30.3118 53.6803 30.5965 53.6803 30.8828C53.6803 43.806 43.7037 54.443 31.0479 55.4967C30.1839 55.5686 29.4658 56.1175 29.1516 56.8728C29.5089 57.7383 30.3882 58.3296 31.3817 58.2492Z" fill="url(#paint1_linear)"/>
<path d="M30.8474 4.53282C30.9132 4.54411 30.9797 4.5534 31.0473 4.55892C32.599 4.68805 34.11 4.96212 35.5677 5.36595L30.8474 0.645508V4.53282Z" fill="url(#paint2_linear)"/>
<path d="M32.006 7.82093H25.9553V3.02532C25.9553 1.35442 27.3099 0 28.9806 0C30.6514 0 32.006 1.35442 32.006 3.02532V7.82093Z" fill="url(#paint3_linear)"/>
<path d="M25.9553 50.4356H32.006V58.2565H25.9553V50.4356Z" fill="url(#paint4_linear)"/>
<path d="M32.006 50.4356H25.9553V52.11L32.006 58.1607V50.4356Z" fill="url(#paint5_linear)"/>
<path d="M28.9805 52.3066C41.7568 52.3066 52.114 41.9494 52.114 29.1731C52.114 16.3968 41.7568 6.03961 28.9805 6.03961C16.2043 6.03961 5.84705 16.3968 5.84705 29.1731C5.84705 41.9494 16.2043 52.3066 28.9805 52.3066Z" fill="url(#paint6_linear)"/>
<path d="M45.2694 17.0053C44.4756 16.4222 43.6339 15.8875 42.7518 15.4017C42.2661 14.5196 41.7313 13.6778 41.1482 12.884C37.91 8.47589 33.5888 6.04828 28.9805 6.04828C24.3722 6.04828 20.051 8.47589 16.8129 12.884C16.2297 13.6778 15.695 14.5195 15.2092 15.4016C14.3272 15.8872 13.4855 16.4221 12.6917 17.0052C8.28357 20.2434 5.85596 24.5646 5.85596 29.1729C5.85596 33.7811 8.28357 38.1024 12.6917 41.3405C13.4855 41.9237 14.3272 42.4584 15.2092 42.9442C15.6949 43.8262 16.2297 44.668 16.8129 45.4617C20.051 49.8698 24.3723 52.2974 28.9805 52.2974C33.5888 52.2974 37.9102 49.8698 41.1482 45.4617C41.7313 44.6679 42.2662 43.8262 42.7518 42.944C43.6339 42.4584 44.4756 41.9235 45.2694 41.3404C49.6775 38.1022 52.1051 33.781 52.1051 29.1727C52.1051 24.5645 49.6775 20.2435 45.2694 17.0053ZM28.9805 51.2091C27.7106 51.2091 26.3644 49.3173 25.3003 46.0893C26.5065 46.2312 27.7359 46.3048 28.9805 46.3048C30.2253 46.3048 31.4547 46.2312 32.6608 46.0893C31.5966 49.3173 30.2506 51.2091 28.9805 51.2091ZM28.9805 45.216C27.6045 45.216 26.2582 45.1229 24.9513 44.9464C24.2261 42.3821 23.6995 39.3038 23.3982 35.9431C25.2023 36.0721 27.0737 36.1384 28.9805 36.1384C30.8872 36.1384 32.7588 36.0719 34.5628 35.9431C34.2615 39.3038 33.7351 42.382 33.0098 44.9464C31.703 45.1229 30.3565 45.216 28.9805 45.216ZM28.9805 7.13703C30.2505 7.13703 31.5966 9.0288 32.6608 12.2568C31.4546 12.1149 30.2251 12.0413 28.9805 12.0413C27.7358 12.0413 26.5065 12.1149 25.3003 12.2568C26.3646 9.0288 27.7106 7.13703 28.9805 7.13703ZM28.9805 13.1301C30.3565 13.1301 31.703 13.2233 33.0098 13.3997C33.735 15.9641 34.2615 19.0423 34.5628 22.403C32.7588 22.274 30.8874 22.2077 28.9805 22.2077C27.0738 22.2077 25.2023 22.2742 23.3982 22.403C23.6995 19.0423 24.226 15.964 24.9513 13.3997C26.2582 13.2232 27.6047 13.1301 28.9805 13.1301ZM23.1037 29.1731C23.1037 27.2322 23.1737 25.33 23.3086 23.5012C25.1374 23.3663 27.0396 23.2963 28.9805 23.2963C30.9216 23.2963 32.8237 23.3663 34.6526 23.5012C34.7875 25.33 34.8575 27.2322 34.8575 29.1731C34.8575 31.1141 34.7875 33.0162 34.6526 34.845C32.8237 34.9799 30.9216 35.0499 28.9805 35.0499C27.0396 35.0499 25.1374 34.9799 23.3086 34.845C23.1737 33.0161 23.1037 31.1141 23.1037 29.1731ZM22.2106 34.7553C18.8498 34.454 15.7716 33.9276 13.2073 33.2022C13.0307 31.8955 12.9376 30.549 12.9376 29.173C12.9376 27.797 13.0309 26.4506 13.2073 25.1437C15.7716 24.4185 18.8498 23.892 22.2106 23.5907C22.0816 25.3946 22.0152 27.2662 22.0152 29.173C22.0152 31.0798 22.0816 32.9514 22.2106 34.7553ZM35.7506 23.5908C39.1114 23.8921 42.1895 24.4187 44.7539 25.1439C44.9305 26.4506 45.0236 27.7971 45.0236 29.1731C45.0236 30.5491 44.9303 31.8955 44.7539 33.2024C42.1895 33.9276 39.1114 34.4541 35.7506 34.7554C35.8796 32.9515 35.946 31.0799 35.946 29.1731C35.9461 27.2663 35.8796 25.3947 35.7506 23.5908ZM35.6634 22.4903C35.3766 19.1961 34.8769 16.1584 34.1891 13.584C37.028 14.0868 39.6531 14.9907 41.9448 16.2088C43.1628 18.5005 44.0668 21.1257 44.5697 23.9645C41.9951 23.2767 38.9575 22.777 35.6634 22.4903ZM22.2978 22.4903C19.0037 22.777 15.9659 23.2766 13.3915 23.9644C13.8944 21.1256 14.7983 18.5004 16.0164 16.2087C18.3081 14.9907 20.9332 14.0867 23.7721 13.584C23.0843 16.1585 22.5846 19.1961 22.2978 22.4903ZM12.0643 32.8534C8.83635 31.7892 6.94458 30.4431 6.94458 29.1731C6.94458 27.9032 8.83635 26.557 12.0643 25.4929C11.9224 26.6991 11.8489 27.9285 11.8489 29.1731C11.8489 30.4177 11.9225 31.6472 12.0643 32.8534ZM22.2978 35.8557C22.5846 39.1498 23.0841 42.1876 23.7719 44.762C20.9331 44.2592 18.308 43.3553 16.0163 42.1373C14.7983 39.8456 13.8942 37.2204 13.3914 34.3816C15.9661 35.0694 19.0037 35.5691 22.2978 35.8557ZM35.6634 35.8557C38.9575 35.5691 41.9953 35.0694 44.5697 34.3816C44.0668 37.2204 43.1629 39.8454 41.9448 42.1373C39.6531 43.3553 37.028 44.2593 34.1891 44.7621C34.8769 42.1876 35.3766 39.15 35.6634 35.8557ZM45.8969 25.4929C49.1249 26.557 51.0165 27.9032 51.0165 29.1731C51.0165 30.4431 49.1247 31.7891 45.8969 32.8534C46.0388 31.6472 46.1123 30.4177 46.1123 29.1731C46.1122 27.9284 46.0387 26.6989 45.8969 25.4929ZM50.7595 26.7214C49.6943 25.8131 48.0059 24.9965 45.7325 24.2979C45.3366 21.7914 44.6358 19.4032 43.655 17.2159C47.3769 19.6395 49.9655 22.9676 50.7595 26.7214ZM40.9379 14.4988C38.7505 13.518 36.3624 12.8171 33.8557 12.4212C33.1571 10.1477 32.3405 8.4592 31.4322 7.39404C35.186 8.18814 38.5142 10.7768 40.9379 14.4988ZM26.529 7.39404C25.6207 8.4592 24.8041 10.1477 24.1054 12.4212C21.5987 12.8171 19.2106 13.5178 17.0232 14.4988C19.4469 10.7768 22.7752 8.18814 26.529 7.39404ZM14.3063 17.2158C13.3255 19.4031 12.6246 21.7913 12.2289 24.2979C9.95535 24.9967 8.26687 25.8131 7.20171 26.7215C7.99569 22.9676 10.5842 19.6395 14.3063 17.2158ZM7.20159 31.6247C8.26675 32.533 9.95522 33.3496 12.2287 34.0482C12.6246 36.5548 13.3254 38.9429 14.3062 41.1303C10.5842 38.7066 7.99569 35.3785 7.20159 31.6247ZM17.0233 43.8473C19.2106 44.8281 21.5988 45.529 24.1055 45.9249C24.8042 48.1984 25.6207 49.8869 26.5291 50.9521C22.7752 50.158 19.4469 47.5695 17.0233 43.8473ZM31.4322 50.9519C32.3405 49.8868 33.1571 48.1983 33.8557 45.9248C36.3624 45.5289 38.7506 44.8281 40.9379 43.8472C38.5142 47.5694 35.186 50.158 31.4322 50.9519ZM43.6549 41.1303C44.6357 38.943 45.3366 36.5548 45.7323 34.0483C48.0059 33.3497 49.6942 32.5331 50.7594 31.6248C49.9655 35.3785 47.3769 38.7066 43.6549 41.1303Z" fill="url(#paint7_linear)"/>
<path d="M28.9806 49.8228C40.3851 49.8228 49.6303 40.5776 49.6303 29.1731C49.6303 17.7686 40.3851 8.52344 28.9806 8.52344C17.5761 8.52344 8.33093 17.7686 8.33093 29.1731C8.33093 40.5776 17.5761 49.8228 28.9806 49.8228Z" fill="url(#paint8_linear)"/>
<path d="M26.819 30.1364L27.7145 31.0319C28.0421 31.3594 28.2262 31.8037 28.2262 32.267C28.2262 33.2316 29.0082 34.0135 29.9727 34.0135C30.9788 34.0135 31.7942 34.8291 31.7942 35.835C31.7942 37.143 31.5213 38.4368 30.993 39.6334L27.7686 46.9351C27.3273 47.9347 26.0195 48.1791 25.2469 47.4065C24.1207 46.2803 23.4882 44.753 23.4882 43.1604V42.3111C23.4882 40.0968 22.6086 37.9734 21.0428 36.4076L20.9475 36.3123C19.4741 34.8389 18.6464 32.8405 18.6464 30.7567V30.4522C18.6464 29.0069 19.8181 27.835 21.2636 27.835C23.3472 27.8353 25.3455 28.663 26.819 30.1364Z" fill="url(#paint9_linear)"/>
<path d="M21.0244 7.4447C15.2324 9.56624 10.5256 13.9377 7.9616 19.5005C7.65766 20.1597 7.5072 20.8794 7.5072 21.6054C7.5072 22.9576 8.0443 24.2542 9.00041 25.2104L9.47326 25.6832C11.592 27.802 14.4658 28.9922 17.4621 28.9922C17.9097 28.9922 18.2726 28.6293 18.2726 28.1817C18.2726 27.7341 17.9097 27.3712 17.4621 27.3712H14.9705C13.8214 27.3712 12.8899 26.4397 12.8899 25.2905C12.8899 24.1414 13.8214 23.2098 14.9705 23.2098H16.9165C19.2498 23.2098 21.4877 22.2829 23.1376 20.6328L26.1422 17.6282C26.7966 16.9739 27.6839 16.6064 28.6093 16.6064C29.9477 16.6064 31.1684 15.8405 31.7507 14.6353C32.4643 13.1581 31.3881 11.4431 29.7477 11.4431H25.8711C24.7312 11.4431 23.8074 10.5191 23.8074 9.37938C23.8074 7.94102 22.375 6.94989 21.0244 7.4447Z" fill="url(#paint10_linear)"/>
<path d="M29.7478 11.4432H25.871C24.7312 11.4432 23.8073 10.5192 23.8073 9.37953C23.8073 9.31176 23.8032 9.24538 23.7969 9.17975C16.2393 11.1336 10.3606 17.2594 8.76294 24.954C8.83924 25.0416 8.91767 25.1277 9.00037 25.2105L9.47321 25.6833C11.592 27.8021 14.4657 28.9924 17.462 28.9924C17.9097 28.9924 18.2726 28.6295 18.2726 28.1819C18.2726 27.7342 17.9097 27.3713 17.462 27.3713H14.9704C13.8213 27.3713 12.8898 26.4398 12.8898 25.2906C12.8898 24.1413 13.8213 23.2098 14.9704 23.2098H16.9164C19.2498 23.2098 21.4876 22.2829 23.1376 20.6329L26.1422 17.6283C26.7965 16.9739 27.6839 16.6064 28.6092 16.6064C29.9477 16.6064 31.1683 15.8405 31.7506 14.6353C32.4644 13.1583 31.3883 11.4432 29.7478 11.4432Z" fill="url(#paint11_linear)"/>
<path d="M51.5756 24.1886C51.2561 22.7339 49.9554 21.705 48.466 21.705H45.2049H43.4617C40.4989 21.705 38.097 24.1069 38.097 27.0697V27.7224C38.097 30.3248 40.2067 32.4344 42.8091 32.4344C44.1322 32.4344 45.2049 33.5071 45.2049 34.8303V41.0866C45.2049 42.717 47.3218 43.3664 48.2279 42.011C50.1107 39.1942 51.3916 35.9405 51.8864 32.4344C52.0361 31.3694 52.1142 30.2799 52.1142 29.1731C52.1142 27.4615 51.9282 25.7939 51.5756 24.1886Z" fill="url(#paint12_linear)"/>
<path d="M49.6303 18.7339H42.7202C41.4841 18.7339 40.4821 17.7319 40.4821 16.4958C40.4821 15.2597 41.4841 14.2577 42.7202 14.2577H46.6647C47.8177 15.6232 48.8156 17.1245 49.6303 18.7339Z" fill="url(#paint13_linear)"/>
<path d="M39.329 8.47925C40.8892 11.5932 41.7688 15.1074 41.7688 18.8275C41.7688 31.6038 31.4116 41.961 18.6353 41.961C14.9151 41.961 11.4009 41.0816 8.28699 39.5213C12.0852 47.1019 19.9246 52.3064 28.9808 52.3064C41.7571 52.3064 52.1143 41.9492 52.1143 29.173C52.1142 20.1168 46.9095 12.2775 39.329 8.47925Z" fill="url(#paint14_linear)"/>
<path d="M42.7503 63.3322H15.2107C14.4731 63.3322 13.875 62.7342 13.875 61.9965V57.9529C13.875 57.2153 14.4731 56.6172 15.2107 56.6172H42.7503C43.4879 56.6172 44.086 57.2152 44.086 57.9529V61.9965C44.086 62.7342 43.488 63.3322 42.7503 63.3322Z" fill="url(#paint15_linear)"/>
<path d="M44.7517 64H13.2096C12.472 64 11.8739 63.4021 11.8739 62.6643V61.9086C11.8739 60.3435 13.1427 59.0746 14.7078 59.0746H43.2535C44.8186 59.0746 46.0874 60.3435 46.0874 61.9086V62.6643C46.0873 63.4021 45.4893 64 44.7517 64Z" fill="url(#paint16_linear)"/>
</g>
<defs>
<radialGradient id="paint0_radial" cx="0" cy="0" r="1" gradientUnits="userSpaceOnUse" gradientTransform="translate(29.6197 28.2804) scale(29.3259)">
<stop stop-color="#FFDA45"/>
<stop offset="0.509" stop-color="#FFD844"/>
<stop offset="0.6924" stop-color="#FFD140"/>
<stop offset="0.823" stop-color="#FFC639"/>
<stop offset="0.9279" stop-color="#FFB52F"/>
<stop offset="1" stop-color="#FFA425"/>
</radialGradient>
<linearGradient id="paint1_linear" x1="43.294" y1="20.3775" x2="47.3838" y2="-18.6044" gradientUnits="userSpaceOnUse">
<stop stop-color="#FFDA45" stop-opacity="0"/>
<stop offset="1" stop-color="#FCEE21"/>
</linearGradient>
<linearGradient id="paint2_linear" x1="35.6503" y1="4.6957" x2="28.4974" y2="1.55846" gradientUnits="userSpaceOnUse">
<stop stop-color="#FFDA45" stop-opacity="0"/>
<stop offset="1" stop-color="#B53759"/>
</linearGradient>
<linearGradient id="paint3_linear" x1="27.0118" y1="3.24141" x2="32.039" y2="6.82014" gradientUnits="userSpaceOnUse">
<stop stop-color="#FFDA45"/>
<stop offset="1" stop-color="#FFA425"/>
</linearGradient>
<linearGradient id="paint4_linear" x1="26.5675" y1="56.064" x2="32.3201" y2="51.9688" gradientUnits="userSpaceOnUse">
<stop stop-color="#FFDA45"/>
<stop offset="1" stop-color="#FFA425"/>
</linearGradient>
<linearGradient id="paint5_linear" x1="32.979" y1="55.7289" x2="24.7594" y2="46.5681" gradientUnits="userSpaceOnUse">
<stop stop-color="#FFDA45" stop-opacity="0"/>
<stop offset="1" stop-color="#B53759"/>
</linearGradient>
<linearGradient id="paint6_linear" x1="17.778" y1="17.9705" x2="45.8166" y2="46.009" gradientUnits="userSpaceOnUse">
<stop stop-color="#18CFFC"/>
<stop offset="1" stop-color="#4A98F7"/>
</linearGradient>
<linearGradient id="paint7_linear" x1="32.5162" y1="54.6422" x2="24.1923" y2="-5.3185" gradientUnits="userSpaceOnUse">
<stop stop-color="#18CFFC" stop-opacity="0"/>
<stop offset="1" stop-color="#65E1DC"/>
</linearGradient>
<linearGradient id="paint8_linear" x1="33.9752" y1="34.1676" x2="10.9263" y2="11.1188" gradientUnits="userSpaceOnUse">
<stop stop-color="#18CFFC" stop-opacity="0"/>
<stop offset="1" stop-color="#65E1DC"/>
</linearGradient>
<linearGradient id="paint9_linear" x1="14.2793" y1="30.3776" x2="50.7282" y2="56.2397" gradientUnits="userSpaceOnUse">
<stop stop-color="#92F37F"/>
<stop offset="1" stop-color="#4AB272"/>
</linearGradient>
<linearGradient id="paint10_linear" x1="21.7133" y1="19.9002" x2="58.1623" y2="45.7624" gradientUnits="userSpaceOnUse">
<stop stop-color="#92F37F"/>
<stop offset="1" stop-color="#4AB272"/>
</linearGradient>
<linearGradient id="paint11_linear" x1="23.3101" y1="21.8014" x2="12.9844" y2="11.4758" gradientUnits="userSpaceOnUse">
<stop stop-color="#92F37F" stop-opacity="0"/>
<stop offset="1" stop-color="#FFEE83"/>
</linearGradient>
<linearGradient id="paint12_linear" x1="41.61" y1="31.1463" x2="57.9439" y2="34.0199" gradientUnits="userSpaceOnUse">
<stop stop-color="#92F37F"/>
<stop offset="1" stop-color="#4AB272"/>
</linearGradient>
<linearGradient id="paint13_linear" x1="44.1997" y1="16.4265" x2="60.5336" y2="19.3001" gradientUnits="userSpaceOnUse">
<stop stop-color="#92F37F"/>
<stop offset="1" stop-color="#4AB272"/>
</linearGradient>
<linearGradient id="paint14_linear" x1="33.2339" y1="31.6225" x2="65.0322" y2="-27.5177" gradientUnits="userSpaceOnUse">
<stop stop-color="#0469BC" stop-opacity="0"/>
<stop offset="1" stop-color="#0469BC"/>
</linearGradient>
<linearGradient id="paint15_linear" x1="28.9805" y1="57.5165" x2="28.9805" y2="60.3446" gradientUnits="userSpaceOnUse">
<stop stop-color="#FFDA45"/>
<stop offset="1" stop-color="#FFA425"/>
</linearGradient>
<linearGradient id="paint16_linear" x1="28.9806" y1="60.5173" x2="28.9806" y2="65.3367" gradientUnits="userSpaceOnUse">
<stop stop-color="#FFDA45"/>
<stop offset="1" stop-color="#FFA425"/>
</linearGradient>
<clipPath id="clip0">
<rect width="64" height="64" fill="white"/>
</clipPath>
</defs>
</svg>
