<svg width="64" height="64" viewBox="0 0 64 64" fill="none" xmlns="http://www.w3.org/2000/svg">
<g clip-path="url(#clip0)">
<path d="M61.6345 -1.52588e-05H3.99315C2.28824 -1.52588e-05 1.43453 2.06129 2.63999 3.26675L60.7333 61.3601C61.9388 62.5655 64.0001 61.7118 64.0001 60.0069V2.3656C64.0001 1.05912 62.9409 -1.52588e-05 61.6345 -1.52588e-05V-1.52588e-05ZM51.3071 36.3081C51.3071 36.9789 50.4959 37.315 50.0215 36.8405L27.1595 13.9786C26.685 13.5041 27.0211 12.6929 27.692 12.6929H50.3761C50.8902 12.6929 51.3071 13.1098 51.3071 13.624V36.3081Z" fill="url(#paint0_linear)"/>
<path d="M61.6341 8.05308H12.1267C11.41 8.05308 11.051 8.91959 11.5578 9.42644L63.4673 61.336C63.7916 61.0049 63.9995 60.5493 63.9995 60.0061V10.4186C63.9995 9.11209 62.9404 8.05308 61.6341 8.05308ZM51.3076 36.3083C51.3076 36.9787 50.4963 37.3153 50.0216 36.8405L27.1595 13.9785C26.6848 13.5037 27.0213 12.6925 27.6917 12.6925H50.376C50.8903 12.6925 51.3076 13.1097 51.3076 13.6241V36.3083Z" fill="url(#paint1_linear)"/>
<path d="M63.3072 0.692829C62.8791 0.264657 62.288 0.00062561 61.6341 0.00062561H3.99379C2.28775 0.00062561 1.43404 2.06092 2.63937 3.26626L5.67661 6.30337H57.6967L63.3072 0.692829Z" fill="url(#paint2_linear)"/>
<path d="M57.6967 58.3235L60.7338 61.3606C61.939 62.5659 63.9994 61.7122 63.9994 60.0061V2.36599C63.9994 1.71206 63.7354 1.12101 63.3072 0.692833L57.6967 6.30337V58.3235Z" fill="url(#paint3_linear)"/>
<path d="M8.33143 1.75147V4.55241C8.33143 4.93227 8.02348 5.2401 7.64362 5.2401C7.26376 5.2401 6.95581 4.93215 6.95581 4.55241V1.75147C6.95581 1.37161 7.26376 1.06366 7.64362 1.06366C8.02348 1.06366 8.33143 1.37161 8.33143 1.75147Z" fill="url(#paint4_linear)"/>
<path d="M12.1848 1.75147V3.18344C12.1848 3.5633 11.8769 3.87125 11.497 3.87125C11.1172 3.87125 10.8092 3.5633 10.8092 3.18344V1.75147C10.8092 1.37161 11.1172 1.06366 11.497 1.06366C11.8769 1.06366 12.1848 1.37161 12.1848 1.75147Z" fill="url(#paint5_linear)"/>
<path d="M16.0382 1.75147V3.18344C16.0382 3.5633 15.7303 3.87125 15.3504 3.87125C14.9705 3.87125 14.6626 3.5633 14.6626 3.18344V1.75147C14.6626 1.37161 14.9705 1.06366 15.3504 1.06366C15.7304 1.06366 16.0382 1.37161 16.0382 1.75147Z" fill="url(#paint6_linear)"/>
<path d="M19.8919 1.75147V4.55241C19.8919 4.93227 19.5839 5.2401 19.2042 5.2401C18.8243 5.2401 18.5164 4.93215 18.5164 4.55241V1.75147C18.5164 1.37161 18.8243 1.06366 19.2042 1.06366C19.5839 1.06366 19.8919 1.37161 19.8919 1.75147Z" fill="url(#paint7_linear)"/>
<path d="M23.7453 1.75147V3.18344C23.7453 3.5633 23.4373 3.87125 23.0574 3.87125C22.6776 3.87125 22.3696 3.5633 22.3696 3.18344V1.75147C22.3696 1.37161 22.6776 1.06366 23.0574 1.06366C23.4373 1.06366 23.7453 1.37161 23.7453 1.75147Z" fill="url(#paint8_linear)"/>
<path d="M27.5988 1.75147V3.18344C27.5988 3.5633 27.2908 3.87125 26.911 3.87125C26.5311 3.87125 26.2231 3.5633 26.2231 3.18344V1.75147C26.2231 1.37161 26.5311 1.06366 26.911 1.06366C27.2908 1.06366 27.5988 1.37161 27.5988 1.75147Z" fill="url(#paint9_linear)"/>
<path d="M31.4523 1.75147V4.55241C31.4523 4.93227 31.1443 5.2401 30.7645 5.2401C30.3846 5.2401 30.0768 4.93215 30.0768 4.55241V1.75147C30.0768 1.37161 30.3847 1.06366 30.7645 1.06366C31.1443 1.06366 31.4523 1.37161 31.4523 1.75147Z" fill="url(#paint10_linear)"/>
<path d="M35.3057 1.75147V3.18344C35.3057 3.5633 34.9977 3.87125 34.6179 3.87125C34.238 3.87125 33.9301 3.5633 33.9301 3.18344V1.75147C33.9301 1.37161 34.238 1.06366 34.6179 1.06366C34.9977 1.06366 35.3057 1.37161 35.3057 1.75147Z" fill="url(#paint11_linear)"/>
<path d="M39.1592 1.75147V3.18344C39.1592 3.5633 38.8512 3.87125 38.4715 3.87125C38.0916 3.87125 37.7837 3.5633 37.7837 3.18344V1.75147C37.7837 1.37161 38.0916 1.06366 38.4715 1.06366C38.8512 1.06366 39.1592 1.37161 39.1592 1.75147Z" fill="url(#paint12_linear)"/>
<path d="M43.0126 1.75147V4.55241C43.0126 4.93227 42.7046 5.2401 42.3248 5.2401C41.9449 5.2401 41.637 4.93215 41.637 4.55241V1.75147C41.637 1.37161 41.9449 1.06366 42.3248 1.06366C42.7046 1.06366 43.0126 1.37161 43.0126 1.75147Z" fill="url(#paint13_linear)"/>
<path d="M46.8661 1.75147V3.18344C46.8661 3.5633 46.5581 3.87125 46.1783 3.87125C45.7984 3.87125 45.4905 3.5633 45.4905 3.18344V1.75147C45.4905 1.37161 45.7984 1.06366 46.1783 1.06366C46.5583 1.06366 46.8661 1.37161 46.8661 1.75147Z" fill="url(#paint14_linear)"/>
<path d="M50.7196 1.75147V3.18344C50.7196 3.5633 50.4117 3.87125 50.0318 3.87125C49.6519 3.87125 49.3441 3.5633 49.3441 3.18344V1.75147C49.3441 1.37161 49.6521 1.06366 50.0318 1.06366C50.4117 1.06366 50.7196 1.37161 50.7196 1.75147Z" fill="url(#paint15_linear)"/>
<path d="M54.5731 1.75147V4.55241C54.5731 4.93227 54.2652 5.2401 53.8853 5.2401C53.5055 5.2401 53.1975 4.93215 53.1975 4.55241V1.75147C53.1975 1.37161 53.5055 1.06366 53.8853 1.06366C54.2652 1.06366 54.5731 1.37161 54.5731 1.75147Z" fill="url(#paint16_linear)"/>
<path d="M62.2485 8.87567H59.4476C59.0677 8.87567 58.7599 8.56772 58.7599 8.18786C58.7599 7.808 59.0678 7.50005 59.4476 7.50005H62.2485C62.6284 7.50005 62.9362 7.808 62.9362 8.18786C62.9362 8.56784 62.6284 8.87567 62.2485 8.87567Z" fill="url(#paint17_linear)"/>
<path d="M62.2486 12.7292H60.8166C60.4367 12.7292 60.1289 12.4213 60.1289 12.0414C60.1289 11.6615 60.4369 11.3536 60.8166 11.3536H62.2486C62.6284 11.3536 62.9362 11.6615 62.9362 12.0414C62.9362 12.4213 62.6284 12.7292 62.2486 12.7292Z" fill="url(#paint18_linear)"/>
<path d="M62.2486 16.5826H60.8166C60.4367 16.5826 60.1289 16.2747 60.1289 15.8948C60.1289 15.515 60.4369 15.2072 60.8166 15.2072H62.2486C62.6284 15.2072 62.9362 15.5151 62.9362 15.8948C62.9362 16.2747 62.6284 16.5826 62.2486 16.5826Z" fill="url(#paint19_linear)"/>
<path d="M62.2485 20.4361H59.4476C59.0677 20.4361 58.7599 20.1281 58.7599 19.7483C58.7599 19.3684 59.0678 19.0605 59.4476 19.0605H62.2485C62.6284 19.0605 62.9362 19.3684 62.9362 19.7483C62.9362 20.1283 62.6284 20.4361 62.2485 20.4361Z" fill="url(#paint20_linear)"/>
<path d="M62.2486 24.2896H60.8166C60.4367 24.2896 60.1289 23.9817 60.1289 23.602C60.1289 23.2221 60.4369 22.9141 60.8166 22.9141H62.2486C62.6284 22.9141 62.9362 23.2221 62.9362 23.602C62.9362 23.9817 62.6284 24.2896 62.2486 24.2896Z" fill="url(#paint21_linear)"/>
<path d="M62.2486 28.1431H60.8166C60.4367 28.1431 60.1289 27.8351 60.1289 27.4553C60.1289 27.0754 60.4369 26.7674 60.8166 26.7674H62.2486C62.6284 26.7674 62.9362 27.0754 62.9362 27.4553C62.9362 27.8351 62.6284 28.1431 62.2486 28.1431Z" fill="url(#paint22_linear)"/>
<path d="M62.2485 31.9966H59.4476C59.0677 31.9966 58.7599 31.6887 58.7599 31.3088C58.7599 30.9289 59.0678 30.621 59.4476 30.621H62.2485C62.6284 30.621 62.9362 30.9289 62.9362 31.3088C62.9362 31.6887 62.6284 31.9966 62.2485 31.9966Z" fill="url(#paint23_linear)"/>
<path d="M62.2486 35.85H60.8166C60.4367 35.85 60.1289 35.5421 60.1289 35.1622C60.1289 34.7824 60.4369 34.4745 60.8166 34.4745H62.2486C62.6284 34.4745 62.9362 34.7825 62.9362 35.1622C62.9362 35.5421 62.6284 35.85 62.2486 35.85Z" fill="url(#paint24_linear)"/>
<path d="M62.2486 39.7035H60.8166C60.4367 39.7035 60.1289 39.3955 60.1289 39.0157C60.1289 38.6358 60.4369 38.3279 60.8166 38.3279H62.2486C62.6284 38.3279 62.9362 38.6358 62.9362 39.0157C62.9362 39.3956 62.6284 39.7035 62.2486 39.7035Z" fill="url(#paint25_linear)"/>
<path d="M62.2485 43.557H59.4476C59.0677 43.557 58.7599 43.2491 58.7599 42.8693C58.7599 42.4895 59.0678 42.1815 59.4476 42.1815H62.2485C62.6284 42.1815 62.9362 42.4895 62.9362 42.8693C62.9362 43.2491 62.6284 43.557 62.2485 43.557Z" fill="url(#paint26_linear)"/>
<path d="M62.2486 47.4104H60.8166C60.4367 47.4104 60.1289 47.1025 60.1289 46.7226C60.1289 46.3428 60.4369 46.0348 60.8166 46.0348H62.2486C62.6284 46.0348 62.9362 46.3428 62.9362 46.7226C62.9362 47.1025 62.6284 47.4104 62.2486 47.4104Z" fill="url(#paint27_linear)"/>
<path d="M62.2486 51.2639H60.8166C60.4367 51.2639 60.1289 50.9559 60.1289 50.5762C60.1289 50.1963 60.4369 49.8884 60.8166 49.8884H62.2486C62.6284 49.8884 62.9362 50.1963 62.9362 50.5762C62.9362 50.956 62.6284 51.2639 62.2486 51.2639Z" fill="url(#paint28_linear)"/>
<path d="M62.2485 55.1174H59.4476C59.0677 55.1174 58.7599 54.8095 58.7599 54.4296C58.7599 54.0498 59.0678 53.7419 59.4476 53.7419H62.2485C62.6284 53.7419 62.9362 54.0499 62.9362 54.4296C62.9362 54.8095 62.6284 55.1174 62.2485 55.1174Z" fill="url(#paint29_linear)"/>
<path d="M52.819 62.9086H50.9366C50.0704 62.9086 49.368 62.2063 49.368 61.34C49.368 60.4737 50.0704 59.7714 50.9366 59.7714H52.819C53.6852 59.7714 54.3876 60.4737 54.3876 61.34C54.3876 62.2063 53.6854 62.9086 52.819 62.9086ZM44.6621 62.9086H42.7798C41.9135 62.9086 41.2111 62.2063 41.2111 61.34C41.2111 60.4737 41.9135 59.7714 42.7798 59.7714H44.6621C45.5284 59.7714 46.2308 60.4737 46.2308 61.34C46.2308 62.2063 45.5285 62.9086 44.6621 62.9086ZM36.5053 62.9086H34.6229C33.7567 62.9086 33.0543 62.2063 33.0543 61.34C33.0543 60.4737 33.7567 59.7714 34.6229 59.7714H36.5053C37.3715 59.7714 38.0739 60.4737 38.0739 61.34C38.0739 62.2063 37.3717 62.9086 36.5053 62.9086ZM28.3484 62.9086H26.4661C25.5998 62.9086 24.8974 62.2063 24.8974 61.34C24.8974 60.4737 25.5998 59.7714 26.4661 59.7714H28.3484C29.2147 59.7714 29.917 60.4737 29.917 61.34C29.917 62.2063 29.2148 62.9086 28.3484 62.9086ZM20.1915 62.9086H18.3092C17.4429 62.9086 16.7406 62.2063 16.7406 61.34C16.7406 60.4737 17.4429 59.7714 18.3092 59.7714H20.1915C21.0578 59.7714 21.7602 60.4737 21.7602 61.34C21.7602 62.2063 21.0579 62.9086 20.1915 62.9086ZM12.0347 62.9086H10.1523C9.28607 62.9086 8.5837 62.2063 8.5837 61.34C8.5837 60.4737 9.28607 59.7714 10.1523 59.7714H12.0347C12.9009 59.7714 13.6033 60.4737 13.6033 61.34C13.6033 62.2063 12.9011 62.9086 12.0347 62.9086ZM3.87782 62.9086H2.65994C1.79368 62.9086 1.09131 62.2063 1.09131 61.34V60.6755C1.09131 59.8093 1.79368 59.1069 2.65994 59.1069C3.19026 59.1069 3.65896 59.3699 3.94295 59.7728C4.77909 59.8069 5.44645 60.4956 5.44645 61.34C5.44645 62.2064 4.7442 62.9086 3.87782 62.9086ZM2.66006 55.9697C1.7938 55.9697 1.09143 55.2673 1.09143 54.401V52.5187C1.09143 51.6524 1.7938 50.95 2.66006 50.95C3.52632 50.95 4.22869 51.6524 4.22869 52.5187V54.401C4.22869 55.2673 3.52632 55.9697 2.66006 55.9697ZM2.66006 47.8128C1.7938 47.8128 1.09143 47.1104 1.09143 46.2442V44.3618C1.09143 43.4955 1.7938 42.7932 2.66006 42.7932C3.52632 42.7932 4.22869 43.4955 4.22869 44.3618V46.2442C4.22869 47.1104 3.52632 47.8128 2.66006 47.8128ZM2.66006 39.6559C1.7938 39.6559 1.09143 38.9536 1.09143 38.0873V36.2049C1.09143 35.3387 1.7938 34.6363 2.66006 34.6363C3.52632 34.6363 4.22869 35.3387 4.22869 36.2049V38.0873C4.22869 38.9536 3.52632 39.6559 2.66006 39.6559ZM2.66006 31.4991C1.7938 31.4991 1.09143 30.7967 1.09143 29.9304V28.0481C1.09143 27.1818 1.7938 26.4794 2.66006 26.4794C3.52632 26.4794 4.22869 27.1818 4.22869 28.0481V29.9304C4.22869 30.7967 3.52632 31.4991 2.66006 31.4991ZM2.66006 23.3422C1.7938 23.3422 1.09143 22.6398 1.09143 21.7736V19.8912C1.09143 19.0249 1.7938 18.3226 2.66006 18.3226C3.52632 18.3226 4.22869 19.0249 4.22869 19.8912V21.7736C4.22869 22.6398 3.52632 23.3422 2.66006 23.3422ZM2.66006 15.1853C1.7938 15.1853 1.09143 14.483 1.09143 13.6167V11.7343C1.09143 10.8681 1.7938 10.1657 2.66006 10.1657C3.52632 10.1657 4.22869 10.8681 4.22869 11.7343V13.6167C4.22869 14.483 3.52632 15.1853 2.66006 15.1853Z" fill="#7E8595"/>
<path d="M3.33641 64C5.17906 64 6.67282 62.5062 6.67282 60.6636C6.67282 58.8209 5.17906 57.3272 3.33641 57.3272C1.49376 57.3272 0 58.8209 0 60.6636C0 62.5062 1.49376 64 3.33641 64Z" fill="url(#paint30_linear)"/>
<path d="M3.33638 63.4481C4.87422 63.4481 6.12088 62.2014 6.12088 60.6636C6.12088 59.1258 4.87422 57.8791 3.33638 57.8791C1.79854 57.8791 0.55188 59.1258 0.55188 60.6636C0.55188 62.2014 1.79854 63.4481 3.33638 63.4481Z" fill="url(#paint31_linear)"/>
<path d="M4.82904 57.6789C5.05404 58.1281 5.18091 58.6349 5.18091 59.1714C5.18091 61.0141 3.68708 62.5078 1.84451 62.5078C1.30791 62.5078 0.80118 62.3809 0.352051 62.1559C0.89969 63.2493 2.03036 64 3.33646 64C5.17916 64 6.67287 62.5062 6.67287 60.6636C6.67299 59.3574 5.92231 58.2268 4.82904 57.6789Z" fill="url(#paint32_linear)"/>
<path d="M3.33641 16.0656C5.17906 16.0656 6.67282 14.5719 6.67282 12.7292C6.67282 10.8866 5.17906 9.39281 3.33641 9.39281C1.49376 9.39281 0 10.8866 0 12.7292C0 14.5719 1.49376 16.0656 3.33641 16.0656Z" fill="url(#paint33_linear)"/>
<path d="M3.33638 15.5137C4.87422 15.5137 6.12088 14.2671 6.12088 12.7292C6.12088 11.1914 4.87422 9.94472 3.33638 9.94472C1.79854 9.94472 0.55188 11.1914 0.55188 12.7292C0.55188 14.2671 1.79854 15.5137 3.33638 15.5137Z" fill="url(#paint34_linear)"/>
<path d="M4.82904 9.74456C5.05404 10.1937 5.18091 10.7005 5.18091 11.237C5.18091 13.0797 3.68708 14.5734 1.84451 14.5734C1.30791 14.5734 0.80118 14.4466 0.352051 14.2215C0.899816 15.3148 2.03048 16.0655 3.33658 16.0655C5.17928 16.0655 6.67299 14.5717 6.67299 12.7291C6.67299 11.4231 5.92231 10.2925 4.82904 9.74456Z" fill="url(#paint35_linear)"/>
<path d="M51.3076 64C53.1503 64 54.644 62.5062 54.644 60.6636C54.644 58.8209 53.1503 57.3272 51.3076 57.3272C49.465 57.3272 47.9712 58.8209 47.9712 60.6636C47.9712 62.5062 49.465 64 51.3076 64Z" fill="url(#paint36_linear)"/>
<path d="M51.3076 63.4481C52.8454 63.4481 54.0921 62.2014 54.0921 60.6636C54.0921 59.1258 52.8454 57.8791 51.3076 57.8791C49.7697 57.8791 48.5231 59.1258 48.5231 60.6636C48.5231 62.2014 49.7697 63.4481 51.3076 63.4481Z" fill="url(#paint37_linear)"/>
<path d="M52.8 57.6789C53.025 58.1281 53.1519 58.6349 53.1519 59.1714C53.1519 61.0141 51.658 62.5078 49.8155 62.5078C49.2789 62.5078 48.772 62.3809 48.323 62.1559C48.8708 63.2492 50.0014 63.9999 51.3075 63.9999C53.1502 63.9999 54.6439 62.506 54.6439 60.6635C54.6439 59.3574 53.8934 58.2268 52.8 57.6789Z" fill="url(#paint38_linear)"/>
</g>
<defs>
<linearGradient id="paint0_linear" x1="29.7096" y1="-13.7396" x2="56.7963" y2="115.333" gradientUnits="userSpaceOnUse">
<stop stop-color="#FF7044"/>
<stop offset="1" stop-color="#F92814"/>
</linearGradient>
<linearGradient id="paint1_linear" x1="41.9399" y1="21.8712" x2="29.627" y2="-13.6991" gradientUnits="userSpaceOnUse">
<stop stop-color="#FF7044" stop-opacity="0"/>
<stop offset="1" stop-color="#FFA425"/>
</linearGradient>
<linearGradient id="paint2_linear" x1="32.6913" y1="-0.201539" x2="32.6913" y2="19.4383" gradientUnits="userSpaceOnUse">
<stop stop-color="#FF7044"/>
<stop offset="1" stop-color="#F92814"/>
</linearGradient>
<linearGradient id="paint3_linear" x1="64.2471" y1="31.3088" x2="53.0288" y2="31.3088" gradientUnits="userSpaceOnUse">
<stop stop-color="#FF7044"/>
<stop offset="1" stop-color="#F92814"/>
</linearGradient>
<linearGradient id="paint4_linear" x1="7.4835" y1="3.15194" x2="8.89865" y2="3.15194" gradientUnits="userSpaceOnUse">
<stop stop-color="#FFDA45"/>
<stop offset="1" stop-color="#FFA425"/>
</linearGradient>
<linearGradient id="paint5_linear" x1="11.3369" y1="2.46752" x2="12.7522" y2="2.46752" gradientUnits="userSpaceOnUse">
<stop stop-color="#FFDA45"/>
<stop offset="1" stop-color="#FFA425"/>
</linearGradient>
<linearGradient id="paint6_linear" x1="15.1904" y1="2.46752" x2="16.6056" y2="2.46752" gradientUnits="userSpaceOnUse">
<stop stop-color="#FFDA45"/>
<stop offset="1" stop-color="#FFA425"/>
</linearGradient>
<linearGradient id="paint7_linear" x1="19.0439" y1="3.15194" x2="20.4591" y2="3.15194" gradientUnits="userSpaceOnUse">
<stop stop-color="#FFDA45"/>
<stop offset="1" stop-color="#FFA425"/>
</linearGradient>
<linearGradient id="paint8_linear" x1="22.8974" y1="2.46752" x2="24.3126" y2="2.46752" gradientUnits="userSpaceOnUse">
<stop stop-color="#FFDA45"/>
<stop offset="1" stop-color="#FFA425"/>
</linearGradient>
<linearGradient id="paint9_linear" x1="26.7508" y1="2.46752" x2="28.166" y2="2.46752" gradientUnits="userSpaceOnUse">
<stop stop-color="#FFDA45"/>
<stop offset="1" stop-color="#FFA425"/>
</linearGradient>
<linearGradient id="paint10_linear" x1="30.6043" y1="3.15194" x2="32.0195" y2="3.15194" gradientUnits="userSpaceOnUse">
<stop stop-color="#FFDA45"/>
<stop offset="1" stop-color="#FFA425"/>
</linearGradient>
<linearGradient id="paint11_linear" x1="34.4579" y1="2.46752" x2="35.873" y2="2.46752" gradientUnits="userSpaceOnUse">
<stop stop-color="#FFDA45"/>
<stop offset="1" stop-color="#FFA425"/>
</linearGradient>
<linearGradient id="paint12_linear" x1="38.3112" y1="2.46752" x2="39.7264" y2="2.46752" gradientUnits="userSpaceOnUse">
<stop stop-color="#FFDA45"/>
<stop offset="1" stop-color="#FFA425"/>
</linearGradient>
<linearGradient id="paint13_linear" x1="42.1646" y1="3.15194" x2="43.5799" y2="3.15194" gradientUnits="userSpaceOnUse">
<stop stop-color="#FFDA45"/>
<stop offset="1" stop-color="#FFA425"/>
</linearGradient>
<linearGradient id="paint14_linear" x1="46.0183" y1="2.46752" x2="47.4334" y2="2.46752" gradientUnits="userSpaceOnUse">
<stop stop-color="#FFDA45"/>
<stop offset="1" stop-color="#FFA425"/>
</linearGradient>
<linearGradient id="paint15_linear" x1="49.8717" y1="2.46752" x2="51.2868" y2="2.46752" gradientUnits="userSpaceOnUse">
<stop stop-color="#FFDA45"/>
<stop offset="1" stop-color="#FFA425"/>
</linearGradient>
<linearGradient id="paint16_linear" x1="53.7253" y1="3.15194" x2="55.1405" y2="3.15194" gradientUnits="userSpaceOnUse">
<stop stop-color="#FFDA45"/>
<stop offset="1" stop-color="#FFA425"/>
</linearGradient>
<linearGradient id="paint17_linear" x1="60.848" y1="8.02786" x2="60.848" y2="9.44301" gradientUnits="userSpaceOnUse">
<stop stop-color="#FFDA45"/>
<stop offset="1" stop-color="#FFA425"/>
</linearGradient>
<linearGradient id="paint18_linear" x1="61.5325" y1="11.8813" x2="61.5325" y2="13.2966" gradientUnits="userSpaceOnUse">
<stop stop-color="#FFDA45"/>
<stop offset="1" stop-color="#FFA425"/>
</linearGradient>
<linearGradient id="paint19_linear" x1="61.5325" y1="15.7348" x2="61.5325" y2="17.15" gradientUnits="userSpaceOnUse">
<stop stop-color="#FFDA45"/>
<stop offset="1" stop-color="#FFA425"/>
</linearGradient>
<linearGradient id="paint20_linear" x1="60.848" y1="19.5883" x2="60.848" y2="21.0034" gradientUnits="userSpaceOnUse">
<stop stop-color="#FFDA45"/>
<stop offset="1" stop-color="#FFA425"/>
</linearGradient>
<linearGradient id="paint21_linear" x1="61.5325" y1="23.4417" x2="61.5325" y2="24.8569" gradientUnits="userSpaceOnUse">
<stop stop-color="#FFDA45"/>
<stop offset="1" stop-color="#FFA425"/>
</linearGradient>
<linearGradient id="paint22_linear" x1="61.5325" y1="27.2953" x2="61.5325" y2="28.7104" gradientUnits="userSpaceOnUse">
<stop stop-color="#FFDA45"/>
<stop offset="1" stop-color="#FFA425"/>
</linearGradient>
<linearGradient id="paint23_linear" x1="60.848" y1="31.1487" x2="60.848" y2="32.5638" gradientUnits="userSpaceOnUse">
<stop stop-color="#FFDA45"/>
<stop offset="1" stop-color="#FFA425"/>
</linearGradient>
<linearGradient id="paint24_linear" x1="61.5325" y1="35.0021" x2="61.5325" y2="36.4174" gradientUnits="userSpaceOnUse">
<stop stop-color="#FFDA45"/>
<stop offset="1" stop-color="#FFA425"/>
</linearGradient>
<linearGradient id="paint25_linear" x1="61.5325" y1="38.8557" x2="61.5325" y2="40.2708" gradientUnits="userSpaceOnUse">
<stop stop-color="#FFDA45"/>
<stop offset="1" stop-color="#FFA425"/>
</linearGradient>
<linearGradient id="paint26_linear" x1="60.848" y1="42.7091" x2="60.848" y2="44.1242" gradientUnits="userSpaceOnUse">
<stop stop-color="#FFDA45"/>
<stop offset="1" stop-color="#FFA425"/>
</linearGradient>
<linearGradient id="paint27_linear" x1="61.5325" y1="46.5625" x2="61.5325" y2="47.9778" gradientUnits="userSpaceOnUse">
<stop stop-color="#FFDA45"/>
<stop offset="1" stop-color="#FFA425"/>
</linearGradient>
<linearGradient id="paint28_linear" x1="61.5325" y1="50.416" x2="61.5325" y2="51.8312" gradientUnits="userSpaceOnUse">
<stop stop-color="#FFDA45"/>
<stop offset="1" stop-color="#FFA425"/>
</linearGradient>
<linearGradient id="paint29_linear" x1="60.848" y1="54.2695" x2="60.848" y2="55.6846" gradientUnits="userSpaceOnUse">
<stop stop-color="#FFDA45"/>
<stop offset="1" stop-color="#FFA425"/>
</linearGradient>
<linearGradient id="paint30_linear" x1="2.08816" y1="59.4152" x2="6.40942" y2="63.7365" gradientUnits="userSpaceOnUse">
<stop stop-color="#92F37F"/>
<stop offset="1" stop-color="#4AB272"/>
</linearGradient>
<linearGradient id="paint31_linear" x1="3.7367" y1="61.2311" x2="1.67816" y2="58.3125" gradientUnits="userSpaceOnUse">
<stop stop-color="#92F37F" stop-opacity="0"/>
<stop offset="1" stop-color="#FFEE83"/>
</linearGradient>
<linearGradient id="paint32_linear" x1="3.45241" y1="61.9422" x2="8.03847" y2="53.4128" gradientUnits="userSpaceOnUse">
<stop stop-color="#4AB272" stop-opacity="0"/>
<stop offset="1" stop-color="#009245"/>
</linearGradient>
<linearGradient id="paint33_linear" x1="2.08816" y1="11.4808" x2="6.40941" y2="15.8021" gradientUnits="userSpaceOnUse">
<stop stop-color="#92F37F"/>
<stop offset="1" stop-color="#4AB272"/>
</linearGradient>
<linearGradient id="paint34_linear" x1="3.7367" y1="13.2967" x2="1.67815" y2="10.3782" gradientUnits="userSpaceOnUse">
<stop stop-color="#92F37F" stop-opacity="0"/>
<stop offset="1" stop-color="#FFEE83"/>
</linearGradient>
<linearGradient id="paint35_linear" x1="3.45241" y1="14.0078" x2="8.03845" y2="5.47839" gradientUnits="userSpaceOnUse">
<stop stop-color="#4AB272" stop-opacity="0"/>
<stop offset="1" stop-color="#009245"/>
</linearGradient>
<linearGradient id="paint36_linear" x1="50.0592" y1="59.4152" x2="54.3805" y2="63.7365" gradientUnits="userSpaceOnUse">
<stop stop-color="#92F37F"/>
<stop offset="1" stop-color="#4AB272"/>
</linearGradient>
<linearGradient id="paint37_linear" x1="51.7079" y1="61.2311" x2="49.6493" y2="58.3125" gradientUnits="userSpaceOnUse">
<stop stop-color="#92F37F" stop-opacity="0"/>
<stop offset="1" stop-color="#FFEE83"/>
</linearGradient>
<linearGradient id="paint38_linear" x1="51.4235" y1="61.9422" x2="56.0095" y2="53.4128" gradientUnits="userSpaceOnUse">
<stop stop-color="#4AB272" stop-opacity="0"/>
<stop offset="1" stop-color="#009245"/>
</linearGradient>
<clipPath id="clip0">
<rect width="64" height="64" fill="white"/>
</clipPath>
</defs>
</svg>
