<svg width="10" height="11" viewBox="0 0 10 11" fill="none" xmlns="http://www.w3.org/2000/svg">
<path d="M6.5 10.0325V7.5325C6.5 7.13467 6.34196 6.75314 6.06066 6.47184C5.77936 6.19053 5.39782 6.0325 5 6.0325C4.60218 6.0325 4.22064 6.19053 3.93934 6.47184C3.65804 6.75314 3.5 7.13467 3.5 7.5325V10.0325H1C0.734784 10.0325 0.48043 9.92714 0.292893 9.7396C0.105357 9.55207 0 9.29771 0 9.0325V3.5985C-1.66137e-06 3.42581 0.0447153 3.25607 0.129797 3.10579C0.214878 2.95552 0.337423 2.82984 0.4855 2.741L4.4855 0.340996C4.64092 0.247745 4.81875 0.198486 5 0.198486C5.18125 0.198486 5.35908 0.247745 5.5145 0.340996L9.5145 2.741C9.66258 2.82984 9.78512 2.95552 9.8702 3.10579C9.95529 3.25607 10 3.42581 10 3.5985V9.0325C10 9.29771 9.89464 9.55207 9.70711 9.7396C9.51957 9.92714 9.26522 10.0325 9 10.0325H6.5Z" fill="#9F9F9F"/>
</svg>
