<svg width="64" height="64" viewBox="0 0 64 64" fill="none" xmlns="http://www.w3.org/2000/svg">
<g clip-path="url(#clip0)">
<path d="M55.8398 21.1122H42.8873V8.15911C42.8873 3.65214 39.2351 0 34.7281 0H30.0153H29.2721C24.7661 0 21.1121 3.65214 21.1121 8.15911V21.1122H8.15853C3.65519 21.1122 0.000976562 24.7655 0.000976562 29.2706V34.7279C0.000976562 39.2336 3.65519 42.8858 8.15853 42.8858H21.1123V55.8392C21.1123 60.3461 24.7663 64 29.2723 64H30.0155H34.7283C39.2353 64 42.8874 60.3461 42.8874 55.8392V42.8858H55.84C60.3478 42.8858 64.0003 39.2336 64.0003 34.7279V29.2706C64.0001 24.7655 60.3476 21.1122 55.8398 21.1122ZM42.6162 30.8156C42.1243 33.8118 38.5458 37.1796 35.6634 39.8913C35.6634 39.8913 34.2251 41.3354 33.7932 41.7056C33.4693 41.9844 32.7639 42.5452 32.0012 42.5452C31.2372 42.5452 30.5336 41.9844 30.2079 41.7056C29.7761 41.3352 28.3375 39.8913 28.3375 39.8913C25.4549 37.1796 21.8768 33.8134 21.3847 30.8156C21.0398 28.697 21.3764 26.9502 22.3871 25.6238C23.4069 24.2846 24.9587 23.5206 27.1319 23.288C27.3426 23.2669 27.5315 23.257 27.7224 23.257C29.2575 23.257 30.81 23.829 31.9999 24.7966C33.1916 23.829 34.7423 23.257 36.2804 23.257C36.4696 23.257 36.6604 23.2669 36.8692 23.288C39.0423 23.5206 40.5928 24.2846 41.6137 25.6238C42.6247 26.9502 42.9611 28.697 42.6162 30.8156Z" fill="#E74424"/>
<path d="M36.8686 23.288C36.6598 23.2669 36.4689 23.257 36.2798 23.257C34.7417 23.257 33.191 23.829 31.9992 24.7966C30.8092 23.829 29.2569 23.257 27.7218 23.257C27.5308 23.257 27.342 23.2669 27.1313 23.288C24.9582 23.5206 23.4063 24.2846 22.3865 25.6238C21.3758 26.9502 21.0392 28.6972 21.3841 30.8156C21.8764 33.8133 25.4543 37.1796 28.3369 39.8913C28.3369 39.8913 29.7753 41.3354 30.2072 41.7056C30.533 41.9844 31.2366 42.5452 32.0006 42.5452C32.7633 42.5452 33.4686 41.9844 33.7926 41.7056C34.2244 41.3352 35.6628 39.8913 35.6628 39.8913C38.5452 37.1796 42.1238 33.812 42.6156 30.8156C42.9605 28.697 42.6241 26.9502 41.6131 25.6238C40.5924 24.2846 39.0418 23.5206 36.8686 23.288Z" fill="#F7F1E6"/>
</g>
<defs>
<clipPath id="clip0">
<rect width="64" height="64" fill="white"/>
</clipPath>
</defs>
</svg>
