<svg width="64" height="64" viewBox="0 0 64 64" fill="none" xmlns="http://www.w3.org/2000/svg">
<g clip-path="url(#clip0)">
<path d="M57.0972 54.9326L6.90415 54.9341C5.47428 54.9341 4.31503 53.775 4.3149 52.3451L4.3139 18.4796C4.3139 17.0496 5.47303 15.8904 6.90303 15.8904L57.0959 15.8889C58.5258 15.8889 59.685 17.048 59.6852 18.4779L59.6862 52.3434C59.6862 53.7734 58.527 54.9326 57.0972 54.9326Z" fill="#4380A0"/>
<path d="M59.6861 52.3299C59.6861 53.7668 58.5336 54.9329 57.1106 54.9329H53.2475C54.6704 54.9329 55.823 53.7668 55.823 52.3299L55.8217 18.4919C55.8217 17.0563 54.6731 15.8928 53.2527 15.8889H57.1095C58.5324 15.8889 59.685 17.0538 59.685 18.4919L59.6861 52.3299Z" fill="#3B7191"/>
<path d="M55.8229 50.523C55.8229 50.8021 55.599 51.0284 55.3229 51.0284H51.9598L8.67837 51.0296C8.40225 51.0296 8.17837 50.8034 8.17837 50.5243L8.17712 20.3C8.17712 20.0209 8.401 19.7946 8.67712 19.7946L51.9585 19.7934H55.3218C55.5979 19.7934 55.8218 20.0196 55.8218 20.2988L55.8229 50.523Z" fill="#F3F3F3"/>
<path d="M55.3229 51.0284H51.9597L51.9585 19.7934H55.3217C55.5979 19.7934 55.8217 20.0196 55.8217 20.2988L55.823 50.523C55.823 50.8021 55.5991 51.0284 55.3229 51.0284Z" fill="#E4E4E4"/>
<path d="M60.6504 61H3.34963C1.49963 61 0 59.5004 0 57.6504V55.0709C0 54.7863 0.23075 54.5555 0.515375 54.5555H63.4847C63.7694 54.5555 64.0001 54.7863 64.0001 55.0709V57.6504C64 59.5004 62.5004 61 60.6504 61Z" fill="#A9DBF5"/>
<path d="M63.4848 54.5555H59.6217C59.9062 54.5555 60.1368 54.7864 60.1368 55.071V57.6488C60.1368 59.4995 58.6378 60.9999 56.7887 60.9999H60.6518C62.5009 61 63.9999 59.4996 63.9999 57.6489V55.0711C63.9999 54.7864 63.7693 54.5555 63.4848 54.5555Z" fill="#88C3E0"/>
<path d="M36.3775 57.6489H27.6225C26.7686 57.6489 26.0765 56.9568 26.0765 56.1029V54.5555H37.9235V56.1029C37.9235 56.9568 37.2313 57.6489 36.3775 57.6489Z" fill="#88C3E0"/>
<path d="M45.7189 21.9979C45.6472 22.5068 45.4759 23.2356 45.3229 23.8279C45.1801 24.3811 44.6826 24.768 44.1117 24.768H42.3636C41.7927 24.768 41.2952 24.3811 41.1523 23.8279C40.9993 23.2356 40.8281 22.5068 40.7563 21.9979C40.7029 21.6188 40.4753 21.2868 40.1438 21.0956L38.5286 20.1645C38.1974 19.9736 37.7968 19.9426 37.4424 20.0856C36.9643 20.2786 36.2434 20.4958 35.6518 20.66C35.1024 20.8125 34.5196 20.5754 34.2339 20.0815L33.3611 18.572C33.0752 18.0776 33.1614 17.4529 33.5693 17.0533C34.0069 16.6244 34.5543 16.1111 34.9602 15.7946C35.2618 15.5594 35.4356 15.1965 35.4356 14.8139V12.954C35.4356 12.5714 35.2618 12.2085 34.9602 11.9733C34.5543 11.6568 34.0071 11.1434 33.5693 10.7146C33.1614 10.315 33.0752 9.69038 33.3611 9.19588L34.2339 7.68638C34.5196 7.1925 35.1023 6.95538 35.6518 7.10788C36.2434 7.27213 36.9643 7.48913 37.4424 7.68225C37.7968 7.82538 38.1974 7.79425 38.5286 7.60338L40.1438 6.67225C40.4753 6.48113 40.7029 6.14913 40.7563 5.77C40.8281 5.26113 40.9993 4.53225 41.1523 3.94C41.2952 3.38675 41.7927 2.99988 42.3636 2.99988H44.1117C44.6826 2.99988 45.1801 3.38675 45.3229 3.94C45.4759 4.53225 45.6472 5.26113 45.7189 5.77C45.7723 6.14913 45.9999 6.48113 46.3314 6.67225L47.9467 7.60338C48.2778 7.79425 48.6784 7.82525 49.0328 7.68225C49.5109 7.48925 50.2318 7.27213 50.8234 7.10788C51.3728 6.95538 51.9557 7.1925 52.2413 7.68638L53.1142 9.19588C53.4001 9.69025 53.3138 10.315 52.9059 10.7146C52.4683 11.1435 51.9209 11.6568 51.5151 11.9733C51.2134 12.2085 51.0397 12.5714 51.0397 12.954V14.8139C51.0397 15.1965 51.2134 15.5594 51.5151 15.7946C51.9209 16.1111 52.4682 16.6245 52.9059 17.0533C53.3138 17.4529 53.4001 18.0775 53.1142 18.572L52.2413 20.0815C51.9557 20.5754 51.3729 20.8125 50.8234 20.66C50.2318 20.4958 49.5109 20.2788 49.0328 20.0856C48.6784 19.9425 48.2778 19.9736 47.9467 20.1645L46.3314 21.0956C45.9998 21.2868 45.7723 21.6186 45.7189 21.9979ZM47.5417 13.884C47.5417 11.5106 45.6147 9.58663 43.2376 9.58663C40.8604 9.58663 38.9334 11.5106 38.9334 13.884C38.9334 16.2574 40.8604 18.1814 43.2376 18.1814C45.6147 18.1814 47.5417 16.2574 47.5417 13.884Z" fill="#FFC328"/>
<path d="M30.5736 38.7534C30.5019 39.2622 30.3306 39.9911 30.1776 40.5834C30.0347 41.1366 29.5372 41.5235 28.9664 41.5235H27.2182C26.6474 41.5235 26.1499 41.1366 26.007 40.5834C25.854 39.9911 25.6827 39.2622 25.611 38.7534C25.5576 38.3742 25.33 38.0422 24.9985 37.8511L23.3832 36.92C23.0521 36.7291 22.6515 36.6981 22.2971 36.8411C21.819 37.0341 21.0981 37.2512 20.5065 37.4155C19.9571 37.568 19.3742 37.3309 19.0886 36.837L18.2157 35.3275C17.9299 34.8331 18.0161 34.2084 18.424 33.8087C18.8616 33.3799 19.409 32.8666 19.8149 32.5501C20.1165 32.3149 20.2902 31.952 20.2902 31.5694V29.7095C20.2902 29.3269 20.1165 28.964 19.8149 28.7287C19.409 28.4122 18.8617 27.8989 18.424 27.4701C18.0161 27.0705 17.9299 26.4459 18.2157 25.9514L19.0886 24.4419C19.3742 23.948 19.957 23.7109 20.5065 23.8634C21.0981 24.0276 21.819 24.2446 22.2971 24.4377C22.6515 24.5809 23.0521 24.5497 23.3832 24.3589L24.9985 23.4277C25.33 23.2366 25.5576 22.9046 25.611 22.5255C25.6827 22.0166 25.854 21.2877 26.007 20.6955C26.1499 20.1422 26.6474 19.7554 27.2182 19.7554H28.9664C29.5372 19.7554 30.0347 20.1422 30.1776 20.6955C30.3306 21.2877 30.5019 22.0166 30.5736 22.5255C30.627 22.9046 30.8546 23.2366 31.1861 23.4277L32.8014 24.3589C33.1325 24.5497 33.5331 24.5807 33.8875 24.4377C34.3656 24.2447 35.0865 24.0276 35.6781 23.8634C36.2275 23.7109 36.8104 23.948 37.096 24.4419L37.9689 25.9514C38.2547 26.4457 38.1685 27.0705 37.7606 27.4701C37.323 27.899 36.7756 28.4122 36.3697 28.7287C36.0681 28.964 35.8944 29.3269 35.8944 29.7095V31.5694C35.8944 31.952 36.0681 32.3149 36.3697 32.5501C36.7756 32.8666 37.3229 33.38 37.7606 33.8087C38.1685 34.2084 38.2547 34.833 37.9689 35.3275L37.096 36.837C36.8104 37.3309 36.2276 37.568 35.6781 37.4155C35.0865 37.2512 34.3656 37.0341 33.8875 36.8411C33.5331 36.698 33.1325 36.7291 32.8014 36.92L31.1861 37.8511C30.8545 38.0422 30.627 38.3742 30.5736 38.7534ZM32.3964 30.6395C32.3964 28.2661 30.4694 26.3421 28.0922 26.3421C25.7151 26.3421 23.7881 28.2661 23.7881 30.6395C23.7881 33.0129 25.7151 34.9369 28.0922 34.9369C30.4694 34.9369 32.3964 33.0129 32.3964 30.6395Z" fill="#F78E36"/>
</g>
<defs>
<clipPath id="clip0">
<rect width="64" height="64" fill="white"/>
</clipPath>
</defs>
</svg>
