<svg width="111" height="64" viewBox="0 0 111 64" fill="none" xmlns="http://www.w3.org/2000/svg">
<path d="M47.2108 42.085C47.5448 42.085 47.8017 42.2361 47.9816 42.5383C48.1871 42.8405 48.2899 43.256 48.2899 43.7849C48.2899 44.767 48.0458 45.5477 47.5576 46.127C46.2216 47.7387 44.9113 48.9098 43.6266 49.6401C42.342 50.3452 40.9546 50.6978 39.4644 50.6978C37.2034 50.6978 35.482 49.6023 34.3001 47.4113C33.1439 45.1952 32.5658 41.9969 32.5658 37.8164C32.5658 34.9454 32.8613 31.5205 33.4522 27.5414H33.3751C30.8058 34.4669 28.3393 41.5939 25.9756 48.9224C25.7186 49.703 25.3975 50.2445 25.0121 50.5467C24.6267 50.8489 24.0743 51 23.3549 51C22.1216 51 21.3251 50.3956 20.9654 49.1868C20.3231 47.1721 19.8221 44.7671 19.4624 41.9717C19.1027 39.1511 18.9229 36.3053 18.9229 33.4344C18.9229 31.7723 18.9742 30.3242 19.077 29.0902H18.9999C17.9979 34.127 17.0858 38.0682 16.2636 40.914C15.4672 43.7345 14.311 46.0892 12.7951 47.978C11.2792 49.8667 9.288 50.8111 6.82148 50.8111C5.48544 50.8111 4.29072 50.5341 3.23731 49.9801C2.20959 49.4008 1.41311 48.6327 0.847867 47.6758C0.282622 46.7188 0 45.6863 0 44.5782C0 43.7975 0.205544 43.1805 0.616631 42.7272C1.02772 42.2487 1.60581 42.0094 2.3509 42.0094C3.35293 42.0094 3.96956 42.4879 4.2008 43.4449C4.43203 44.3767 4.80458 45.0944 5.31844 45.5981C5.85799 46.0766 6.51316 46.3158 7.28395 46.3158C8.26028 46.3158 9.19808 45.4974 10.0973 43.8604C11.0223 42.2235 11.9729 39.5918 12.9492 35.9654C13.9513 32.3389 15.0304 27.5289 16.1866 21.5352C16.3921 20.4271 16.816 19.6464 17.4584 19.1931C18.1007 18.7146 19.0513 18.4753 20.3103 18.4753C22.4171 18.4753 23.3934 19.5708 23.2393 21.7618C23.1108 23.9024 23.0466 25.8416 23.0466 27.5792C23.0466 31.659 23.3549 36.4439 23.9715 41.9339H24.0486C24.7166 39.1385 25.7572 35.8646 27.1703 32.1123C28.5834 28.3599 30.0864 24.8216 31.6794 21.4974C32.0905 20.616 32.4502 19.9738 32.7585 19.5708C33.0668 19.1679 33.4137 18.8909 33.7991 18.7398C34.1845 18.5635 34.724 18.4753 35.4177 18.4753C36.4968 18.4753 37.319 18.7398 37.8843 19.2686C38.4752 19.7723 38.7193 20.5026 38.6165 21.4596C37.9742 27.8059 37.653 32.7545 37.653 36.3053C37.653 39.4029 37.8971 41.8332 38.3853 43.596C38.8734 45.3337 39.6828 46.2025 40.8133 46.2025C41.6611 46.2025 42.4704 45.9507 43.2412 45.447C44.0377 44.9182 45.014 43.9738 46.1702 42.6138C46.4529 42.2613 46.7997 42.085 47.2108 42.085Z" fill="url(#paint0_linear)"/>
<path d="M64.8161 38.9119C65.1501 38.9119 65.407 39.0756 65.5869 39.4029C65.7667 39.7303 65.8566 40.1459 65.8566 40.6495C65.8566 41.8583 65.4841 42.5761 64.739 42.8027C63.1974 43.3316 61.5017 43.6338 59.6518 43.7093C59.1636 45.8248 58.2001 47.5247 56.7613 48.809C55.3225 50.0682 53.691 50.6978 51.8668 50.6978C50.3253 50.6978 49.0021 50.3326 47.8973 49.6023C46.8182 48.872 45.996 47.9024 45.4307 46.6936C44.8655 45.4848 44.5829 44.1752 44.5829 42.765C44.5829 40.851 44.9554 39.1511 45.7005 37.6653C46.4456 36.1543 47.4733 34.9832 48.7837 34.1521C50.094 33.2959 51.5457 32.8678 53.1386 32.8678C55.0913 32.8678 56.6586 33.5352 57.8404 34.8699C59.048 36.1794 59.7546 37.8038 59.9601 39.7429C61.1677 39.6674 62.6065 39.4155 64.2765 38.9874C64.4821 38.937 64.6619 38.9119 64.8161 38.9119ZM52.1752 46.6936C52.9973 46.6936 53.7039 46.3662 54.2948 45.7114C54.9114 45.0567 55.3225 44.1123 55.5281 42.8783C54.7316 42.3494 54.115 41.6569 53.6782 40.8006C53.2671 39.9444 53.0616 39.0378 53.0616 38.0808C53.0616 37.6779 53.1001 37.2749 53.1772 36.872H52.9845C51.9568 36.872 51.096 37.3631 50.4023 38.3452C49.7343 39.3022 49.4003 40.6621 49.4003 42.425C49.4003 43.8101 49.6701 44.8678 50.2096 45.5981C50.7749 46.3284 51.4301 46.6936 52.1752 46.6936Z" fill="url(#paint1_linear)"/>
<path d="M83.0518 38.9119C83.3859 38.9119 83.6428 39.0756 83.8226 39.4029C84.0025 39.7303 84.0924 40.1459 84.0924 40.6495C84.0924 41.2791 84.0025 41.7702 83.8226 42.1228C83.6428 42.4502 83.3602 42.6768 82.9748 42.8027C81.4332 43.3316 79.7375 43.6338 77.8876 43.7093C77.3737 45.7996 76.3974 47.4869 74.9586 48.7712C73.5455 50.0556 71.9782 50.6978 70.2568 50.6978C67.6618 50.6978 65.7733 49.7282 64.5915 47.7891C63.4096 45.8499 62.8187 43.042 62.8187 39.3652C62.8187 36.1165 63.2297 32.5908 64.0519 28.788C64.8741 24.9601 66.0688 21.7114 67.6361 19.042C69.229 16.3473 71.1175 15 73.3014 15C74.4833 15 75.4339 15.5037 76.1533 16.511C76.8727 17.4932 77.2324 18.7775 77.2324 20.3641C77.2324 22.4292 76.8342 24.4816 76.0377 26.5215C75.2412 28.5614 73.918 30.702 72.0681 32.9433C73.7895 33.0693 75.1898 33.7744 76.2689 35.0588C77.348 36.3179 77.9903 37.8793 78.1959 39.7429C79.4035 39.6674 80.8423 39.4155 82.5123 38.9874C82.6665 38.937 82.8463 38.9119 83.0518 38.9119ZM72.415 18.7398C71.9011 18.7398 71.3359 19.4953 70.7192 21.0063C70.1283 22.4921 69.5759 24.5194 69.062 27.0881C68.5482 29.6569 68.1628 32.4648 67.9059 35.5121C69.6016 32.4648 70.9505 29.7828 71.9525 27.4659C72.9802 25.1238 73.4941 23.0462 73.4941 21.2329C73.4941 20.4271 73.3913 19.8101 73.1858 19.382C73.0059 18.9538 72.749 18.7398 72.415 18.7398ZM70.4109 46.6936C71.2074 46.6936 71.914 46.3662 72.5306 45.7114C73.1472 45.0567 73.5583 44.1123 73.7638 42.8783C72.9674 42.3494 72.3507 41.6569 71.914 40.8006C71.5029 39.9444 71.2973 39.0378 71.2973 38.0808C71.2973 37.7282 71.3487 37.2497 71.4515 36.6453H71.3359C70.2825 36.6453 69.396 37.1616 68.6766 38.1941C67.9829 39.2015 67.6361 40.5614 67.6361 42.2739C67.6361 43.7093 67.9059 44.8048 68.4454 45.5603C69.0107 46.3158 69.6658 46.6936 70.4109 46.6936Z" fill="url(#paint2_linear)"/>
<path d="M85.5051 50.6978C83.9122 50.6978 82.6404 50.1312 81.6897 48.9979C80.7391 47.8646 80.2638 46.3788 80.2638 44.5404C80.2638 42.5257 80.7391 40.6243 81.6897 38.8363C82.6404 37.0231 83.8993 35.575 85.4666 34.4921C87.0595 33.384 88.7424 32.83 90.5153 32.83C91.0805 32.83 91.453 32.9433 91.6329 33.17C91.8384 33.3715 92.0054 33.7492 92.1339 34.3033C92.6735 34.2025 93.2387 34.1521 93.8296 34.1521C95.0886 34.1521 95.7181 34.5929 95.7181 35.4743C95.7181 36.0031 95.5254 37.2623 95.14 39.2518C94.549 42.148 94.2536 44.1626 94.2536 45.2959C94.2536 45.6737 94.3435 45.9759 94.5234 46.2025C94.7289 46.4292 94.9858 46.5425 95.2941 46.5425C95.7823 46.5425 96.3732 46.2403 97.067 45.6359C97.7607 45.0063 98.6985 43.9989 99.8803 42.6138C100.189 42.2613 100.536 42.085 100.921 42.085C101.255 42.085 101.512 42.2361 101.692 42.5383C101.897 42.8405 102 43.256 102 43.7849C102 44.7922 101.756 45.5729 101.268 46.127C100.214 47.4113 99.0967 48.4942 97.9148 49.3757C96.7329 50.2571 95.5896 50.6978 94.4848 50.6978C93.6369 50.6978 92.8533 50.4208 92.1339 49.8667C91.4402 49.2875 90.9135 48.5068 90.5538 47.5247C89.2178 49.6401 87.5349 50.6978 85.5051 50.6978ZM86.8925 46.8825C87.4578 46.8825 87.9973 46.5551 88.5112 45.9003C89.0251 45.2455 89.3976 44.3767 89.6288 43.2938L91.0548 36.3431C89.9757 36.3683 88.9737 36.7712 88.0487 37.5519C87.1495 38.3074 86.4301 39.3148 85.8905 40.574C85.351 41.8332 85.0812 43.1679 85.0812 44.5782C85.0812 45.3589 85.2354 45.9381 85.5437 46.3158C85.8777 46.6936 86.3273 46.8825 86.8925 46.8825Z" fill="url(#paint3_linear)"/>
<g clip-path="url(#clip0)">
<path d="M104.54 5.16699L97.5481 11.5118C96.5749 12.3949 95.813 13.4858 95.319 14.7035C94.6961 16.239 95.008 17.9956 96.1215 19.2228C96.9645 20.1518 98.1702 20.6677 99.4243 20.6359C102.538 20.5571 105.115 18.1378 105.329 15.03C105.46 13.1224 104.929 11.172 103.719 9.55199L105.309 8.10962C106.148 7.34809 106.211 6.0504 105.449 5.21118C105.21 4.9479 104.803 4.9281 104.54 5.16699Z" fill="#27B2FF"/>
<path d="M106.055 11.0725L101.835 14.9015C101.642 15.0767 101.344 15.0622 101.168 14.8692L100.975 14.6555C100.256 13.8641 100.316 12.6402 101.107 11.922L105.286 8.12991C105.55 7.89102 105.957 7.91077 106.195 8.17405C106.957 9.01327 106.894 10.311 106.055 11.0725Z" fill="#008CFF"/>
<path d="M105.697 9.78117L104.177 11.1604C103.975 11.3438 103.662 11.3286 103.479 11.1266C103.295 10.9245 103.311 10.612 103.513 10.4286L105.033 9.04939C105.235 8.86603 105.547 8.88119 105.731 9.08324C105.914 9.28533 105.899 9.59781 105.697 9.78117Z" fill="#5CCEFF"/>
<path d="M106.265 27.0986L100.316 22.6218L99.702 24.6334L102.794 28.1994C103.762 29.3162 105.514 29.2555 106.403 28.0744C106.634 27.7669 106.572 27.33 106.265 27.0986Z" fill="#008CFF"/>
<path d="M107.629 24.1811L100.918 22.8286C100.694 23.944 101.278 25.0649 102.322 25.5188L104.973 26.6719C106.329 27.2614 107.883 26.4508 108.175 25.0018C108.251 24.6246 108.007 24.2571 107.629 24.1811Z" fill="#27B2FF"/>
<path d="M92.8119 13.8571C92.6951 12.6958 91.7149 11.7892 90.5228 11.7892C89.4566 11.7892 88.5599 12.5144 88.2987 13.4984C88.2507 13.6793 88.3848 13.8571 88.5719 13.8571H92.8119Z" fill="#FFAF40"/>
<path d="M99.9803 15.9486C99.0728 15.0411 98.4001 8.34925 93.6845 8.34925C91.5324 8.34925 89.774 10.033 89.774 12.174C89.774 12.8762 89.9635 13.534 90.2939 14.0994C90.5987 14.621 90.6118 15.2572 90.3389 15.7961C89.2201 18.0056 89.9722 21.2245 92.3382 23.5905C95.1247 26.377 99.0944 26.9252 101.205 24.8149C103.315 22.7046 102.767 18.735 99.9803 15.9486Z" fill="#5CCEFF"/>
<path d="M94.8569 21.0689C94.848 20.8493 94.7745 20.6379 94.6485 20.4579C94.435 20.153 94.2599 19.819 94.1302 19.4622C93.9551 18.9813 93.8701 18.4825 93.8701 17.9883C93.8701 16.8812 94.2966 15.795 95.0966 14.9753C95.2825 14.7846 95.4767 14.603 95.6785 14.4309C95.9918 14.1637 96.1007 13.7286 95.9651 13.3397C95.2796 11.3742 93.9362 9.71752 92.1983 8.63289C90.7784 9.19884 89.774 10.5556 89.774 12.1739C89.774 12.8761 89.9638 13.5339 90.2938 14.0994C90.5987 14.621 90.612 15.2574 90.3391 15.7959C89.2205 18.0057 89.9725 21.2245 92.3382 23.5906C92.4063 23.6583 92.4749 23.725 92.5443 23.7904C93.3425 23.2404 94.0477 22.5653 94.6324 21.7939C94.7883 21.5881 94.8677 21.3343 94.8573 21.0763L94.8569 21.0689Z" fill="#73E1FF"/>
<path d="M107.894 21.4351L101.049 21.5206C101.063 22.6583 101.87 23.6316 102.986 23.8564L105.82 24.4277C107.269 24.7198 108.618 23.6011 108.6 22.1231C108.595 21.7383 108.279 21.4303 107.894 21.4351Z" fill="#5CCEFF"/>
<path d="M108.762 9.37014L99.8895 12.5994C98.6546 13.0489 97.5367 13.7706 96.6189 14.711C95.4614 15.8969 95.0859 17.641 95.6527 19.1981C96.0817 20.3769 97.0028 21.3105 98.1757 21.7553C101.088 22.8601 104.388 21.5948 105.761 18.7987C106.604 17.0823 106.851 15.0761 106.343 13.1189L108.36 12.3848C109.425 11.9972 109.974 10.8197 109.587 9.75481C109.465 9.42079 109.096 9.24859 108.762 9.37014Z" fill="#73E1FF"/>
<path d="M106.369 18.8467L101.838 20.496C101.593 20.5851 101.322 20.4588 101.233 20.2139L101.134 19.9429C100.769 18.9385 101.287 17.828 102.291 17.4625L106.771 15.832C107.105 15.7104 107.474 15.8826 107.596 16.2167C107.983 17.2816 107.434 18.459 106.369 18.8467Z" fill="#27B2FF"/>
<path d="M107.931 15.4098L102.576 17.3587C102.331 17.4478 102.06 17.3215 101.971 17.0766L101.873 16.8056C101.507 15.8012 102.025 14.6908 103.029 14.3252L108.332 12.3952C108.666 12.2736 109.035 12.4458 109.157 12.7798C109.544 13.8448 108.995 15.0223 107.931 15.4098Z" fill="#5CCEFF"/>
<path d="M96.6188 14.7111C96.04 15.304 95.6568 16.0366 95.4892 16.8153C95.4752 16.8803 95.4627 16.9455 95.4517 17.0111C95.3769 17.4585 95.8092 17.8219 96.2355 17.6667L96.2386 17.6655C96.4392 17.5925 96.5836 17.4168 96.6189 17.2063C96.723 16.5865 97.0108 15.9988 97.4632 15.5353C98.0559 14.9278 98.7555 14.4209 99.517 14.0423C99.7857 13.9087 99.9107 13.5946 99.8082 13.3127C99.688 12.9826 99.3073 12.8286 98.9926 12.9846C98.1117 13.4214 97.3085 14.0041 96.6188 14.7111Z" fill="#B6F0FF"/>
<path d="M100.948 13.4377C101.275 13.4377 101.541 13.1723 101.541 12.8449C101.541 12.5176 101.275 12.2522 100.948 12.2522C100.621 12.2522 100.355 12.5176 100.355 12.8449C100.355 13.1723 100.621 13.4377 100.948 13.4377Z" fill="#B6F0FF"/>
<path d="M108.087 14.079L106.159 14.781C105.902 14.8743 105.619 14.7421 105.525 14.4857C105.432 14.2293 105.564 13.9457 105.821 13.8524L107.749 13.1504C108.006 13.0571 108.289 13.1893 108.383 13.4457C108.476 13.7022 108.344 13.9857 108.087 14.079Z" fill="#9EDBFF"/>
<path d="M106.45 17.5548L104.521 18.2568C104.265 18.3501 103.981 18.2179 103.888 17.9615C103.795 17.7051 103.927 17.4215 104.183 17.3282L106.112 16.6262C106.368 16.5329 106.652 16.6651 106.745 16.9215C106.839 17.1779 106.706 17.4615 106.45 17.5548Z" fill="#5CCEFF"/>
<path d="M91.6678 12.1527C91.9412 12.1527 92.1629 11.8857 92.1629 11.5563C92.1629 11.2269 91.9412 10.9598 91.6678 10.9598C91.3943 10.9598 91.1726 11.2269 91.1726 11.5563C91.1726 11.8857 91.3943 12.1527 91.6678 12.1527Z" fill="#0465A0"/>
<path d="M90.7735 16.3138L90.7633 16.3092C90.4559 16.1708 90.0963 16.3393 90.0083 16.6648C89.8077 17.4075 89.7786 18.2226 89.9136 19.0573C89.9755 19.44 90.4026 19.6419 90.7365 19.4447C90.7398 19.4428 90.7431 19.4408 90.7464 19.4388C90.9429 19.3227 91.045 19.0978 91.009 18.8724C90.9 18.1907 90.9249 17.5373 91.0803 16.9577C91.1501 16.6971 91.0195 16.4246 90.7735 16.3138Z" fill="#B6F0FF"/>
</g>
<defs>
<linearGradient id="paint0_linear" x1="48.3355" y1="31" x2="48.3119" y2="40.4999" gradientUnits="userSpaceOnUse">
<stop stop-color="#27B2FF"/>
<stop offset="1" stop-color="#FFD500"/>
</linearGradient>
<linearGradient id="paint1_linear" x1="48.3355" y1="31" x2="48.3119" y2="40.4999" gradientUnits="userSpaceOnUse">
<stop stop-color="#27B2FF"/>
<stop offset="1" stop-color="#FFD500"/>
</linearGradient>
<linearGradient id="paint2_linear" x1="48.3355" y1="31" x2="48.3119" y2="40.4999" gradientUnits="userSpaceOnUse">
<stop stop-color="#27B2FF"/>
<stop offset="1" stop-color="#FFD500"/>
</linearGradient>
<linearGradient id="paint3_linear" x1="48.3355" y1="31" x2="48.3119" y2="40.4999" gradientUnits="userSpaceOnUse">
<stop stop-color="#27B2FF"/>
<stop offset="1" stop-color="#FFD500"/>
</linearGradient>
<clipPath id="clip0">
<rect width="24" height="24" fill="white" transform="translate(87 5)"/>
</clipPath>
</defs>
</svg>
