<svg width="64" height="64" viewBox="0 0 64 64" fill="none" xmlns="http://www.w3.org/2000/svg">
<g clip-path="url(#clip0)">
<path d="M22.069 7.72414H14.3448V0H7.72414V7.72414H0V14.3448H7.72414V22.069H14.3448V14.3448H22.069V7.72414Z" fill="#E9686A"/>
<path d="M64 7.72414V14.3448H41.931V7.72414H64Z" fill="#32B1CC"/>
<path d="M64 47.4483V54.069H41.931V47.4483H64Z" fill="#55B56A"/>
<path d="M52.9655 44.1379C54.7938 44.1379 56.2758 42.6558 56.2758 40.8276C56.2758 38.9993 54.7938 37.5172 52.9655 37.5172C51.1372 37.5172 49.6552 38.9993 49.6552 40.8276C49.6552 42.6558 51.1372 44.1379 52.9655 44.1379Z" fill="#55B56A"/>
<path d="M52.9655 64C54.7938 64 56.2758 62.5179 56.2758 60.6897C56.2758 58.8614 54.7938 57.3793 52.9655 57.3793C51.1372 57.3793 49.6552 58.8614 49.6552 60.6897C49.6552 62.5179 51.1372 64 52.9655 64Z" fill="#55B56A"/>
<path d="M52.9655 30.8966H33.1034V11.0345H30.8965V30.8966H11.0344V33.1034H30.8965V52.9655H33.1034V33.1034H52.9655V30.8966Z" fill="#195C85"/>
<path d="M23.1725 44.1379L17.6552 38.6207L12.138 44.1379L6.62076 38.6207L1.10352 44.0144L6.62076 49.6552L1.10352 55.1724L6.62076 60.6897L12.138 55.1724L17.6552 60.6897L23.1725 55.1724L17.6552 49.6552L23.1725 44.1379Z" fill="#F49E21"/>
</g>
<defs>
<clipPath id="clip0">
<rect width="64" height="64" fill="white"/>
</clipPath>
</defs>
</svg>
