<svg width="64" height="64" viewBox="0 0 64 64" fill="none" xmlns="http://www.w3.org/2000/svg">
<path d="M31.9998 12.4655H27.0294C26.5465 12.4655 26.0837 12.6591 25.7259 13.0106C24.7509 13.9683 22.9557 15.1101 19.9395 15.1101C16.3754 15.1101 13.617 13.2425 12.1725 9.85146C11.8867 9.18046 11.2269 8.74696 10.4917 8.74696H6.08253C5.19353 8.74696 4.4729 8.02633 4.4729 7.13733C4.4729 6.24833 5.19365 5.52771 6.08253 5.52771H10.4917C12.5195 5.52771 14.3419 6.72971 15.1343 8.58983C16.0674 10.7803 17.684 11.8908 19.9395 11.8908C21.8674 11.8908 22.9234 11.251 23.4698 10.7142C24.4332 9.76771 25.6974 9.24633 27.0294 9.24633H31.9998V12.4655Z" fill="#5B5555"/>
<path d="M8.53472 13.7729C8.00135 13.7729 7.56897 13.3405 7.56897 12.8071V4.63335C7.56897 4.09998 8.00135 3.6676 8.53472 3.6676C9.0681 3.6676 9.50047 4.09998 9.50047 4.63335V12.807C9.5006 13.3404 9.0681 13.7729 8.53472 13.7729Z" fill="#FFD597"/>
<path d="M32 12.4655H36.9704C37.4532 12.4655 37.9161 12.6591 38.2739 13.0106C39.2489 13.9684 41.0441 15.1101 44.0602 15.1101C47.6244 15.1101 50.3828 13.2425 51.8273 9.85152C52.1131 9.18052 52.7729 8.74702 53.5081 8.74702H57.9173C58.8063 8.74702 59.5269 8.0264 59.5269 7.1374C59.5269 6.2484 58.8061 5.52777 57.9173 5.52777H53.5081C51.4803 5.52777 49.6579 6.72977 48.8655 8.5899C47.9324 10.7804 46.3157 11.8909 44.0602 11.8909C42.1324 11.8909 41.0764 11.251 40.53 10.7143C39.5666 9.76777 38.3024 9.2464 36.9704 9.2464H32V12.4655Z" fill="#5B5555"/>
<path d="M55.465 13.7729C54.9315 13.7729 54.4993 13.3405 54.4993 12.8072L54.4994 4.63354C54.4994 4.10016 54.9319 3.66779 55.4651 3.66779C55.9986 3.66779 56.4309 4.10016 56.4309 4.63354L56.4308 12.8072C56.4309 13.3404 55.9984 13.7729 55.465 13.7729Z" fill="#FFD597"/>
<path d="M35.1966 61.5799H28.8033L30.365 5.48236H33.635L35.1966 61.5799Z" fill="#FCB44D"/>
<path d="M33.7604 9.96236C33.2117 10.1659 32.6181 10.2766 32 10.2766C31.3819 10.2766 30.7882 10.1659 30.2396 9.96236L30.3645 5.48236H33.6354L33.7604 9.96236Z" fill="#FB9927"/>
<path d="M29.3373 42.4042L29.1918 47.6312H34.8083L34.6628 42.4042H29.3373Z" fill="#FB9927"/>
<path d="M15.1051 43.6972C14.6756 43.6972 14.2837 43.4087 14.171 42.9736L8.53487 21.2405L2.89875 42.9737C2.76487 43.49 2.23762 43.7997 1.72137 43.6661C1.20512 43.5322 0.894996 43.0051 1.029 42.4887L7.59999 17.1506C7.71049 16.7247 8.09487 16.4272 8.53487 16.4272C8.97487 16.4272 9.35924 16.7246 9.46974 17.1506L16.0407 42.4887C16.1746 43.0051 15.8646 43.5322 15.3484 43.6661C15.267 43.6871 15.1854 43.6972 15.1051 43.6972Z" fill="#FFD597"/>
<path d="M11.64 49.6825H5.42963C2.43088 49.6825 0 47.2515 0 44.2529V43.6277C0 42.777 0.689625 42.0874 1.54025 42.0874H15.5293C16.3799 42.0874 17.0695 42.777 17.0695 43.6277V44.2529C17.0695 47.2515 14.6386 49.6825 11.64 49.6825Z" fill="#FCB44D"/>
<path d="M17.0636 44.5168C17.0313 45.2019 16.8717 45.8534 16.609 46.4484H0.460973C0.198223 45.8535 0.0385977 45.2019 0.00634766 44.5168H17.0636Z" fill="#FB9927"/>
<path d="M17.0696 43.6284V44.2521C17.0696 47.251 14.6391 49.683 11.6402 49.683H7.2998C10.2987 49.683 12.7292 47.251 12.7292 44.2521V43.6284C12.7292 42.7766 12.0392 42.0881 11.1889 42.0881H15.5293C16.3796 42.0881 17.0696 42.7766 17.0696 43.6284Z" fill="#FB9927"/>
<path d="M8.53467 17.3937C9.87216 17.3937 10.9564 16.3095 10.9564 14.972C10.9564 13.6345 9.87216 12.5502 8.53467 12.5502C7.19717 12.5502 6.11292 13.6345 6.11292 14.972C6.11292 16.3095 7.19717 17.3937 8.53467 17.3937Z" fill="#FCB44D"/>
<path d="M10.9562 14.9714C10.9562 16.3091 9.87192 17.3934 8.53417 17.3934C8.00504 17.3934 7.51654 17.2235 7.11804 16.9361C7.95417 16.5546 8.53417 15.7108 8.53417 14.7323C8.53417 13.9236 8.13829 13.2078 7.52954 12.7688C7.83529 12.6276 8.17617 12.5493 8.53417 12.5493C9.87192 12.5494 10.9562 13.6336 10.9562 14.9714Z" fill="#FB9927"/>
<path d="M62.0357 43.6973C61.6062 43.6973 61.2143 43.4087 61.1014 42.9736L55.4652 21.2404L49.8292 42.9738C49.6953 43.49 49.1688 43.8 48.6519 43.6661C48.1355 43.5323 47.8255 43.0051 47.9595 42.4888L54.5304 17.1506C54.6408 16.7247 55.0253 16.4272 55.4653 16.4272C55.9053 16.4272 56.2898 16.7246 56.4002 17.1506L62.9712 42.4888C63.105 43.0051 62.7952 43.5323 62.2788 43.6661C62.1974 43.6871 62.1159 43.6973 62.0357 43.6973Z" fill="#FFD597"/>
<path d="M58.5704 49.6825H52.36C49.3614 49.6825 46.9304 47.2517 46.9304 44.2529V43.6277C46.9304 42.777 47.62 42.0874 48.4707 42.0874H62.4597C63.3103 42.0874 63.9999 42.777 63.9999 43.6277V44.2529C63.9999 47.2515 61.569 49.6825 58.5704 49.6825Z" fill="#FCB44D"/>
<path d="M63.9935 44.5168C63.9613 45.2019 63.8017 45.8534 63.5389 46.4484H47.3909C47.1282 45.8535 46.9685 45.2019 46.9363 44.5168H63.9935Z" fill="#FB9927"/>
<path d="M64 43.6284V44.2521C64 47.251 61.5695 49.683 58.5706 49.683H54.2302C57.2291 49.683 59.6596 47.251 59.6596 44.2521V43.6284C59.6596 42.7766 58.9696 42.0881 58.1194 42.0881H62.4597C63.31 42.0881 64 42.7766 64 43.6284Z" fill="#FB9927"/>
<path d="M17.0636 44.5167C17.0314 45.2018 16.8717 45.8533 16.609 46.4483H12.2668C12.5308 45.8535 12.6905 45.2018 12.7227 44.5167H17.0636Z" fill="#F98824"/>
<path d="M63.9935 44.5167C63.9613 45.2018 63.8017 45.8533 63.5389 46.4483H59.1967C59.4607 45.8535 59.6203 45.2018 59.6525 44.5167H63.9935Z" fill="#F98824"/>
<path d="M55.4652 17.3937C56.8027 17.3937 57.887 16.3095 57.887 14.972C57.887 13.6345 56.8027 12.5502 55.4652 12.5502C54.1277 12.5502 53.0435 13.6345 53.0435 14.972C53.0435 16.3095 54.1277 17.3937 55.4652 17.3937Z" fill="#FCB44D"/>
<path d="M57.8867 14.9714C57.8867 16.3091 56.8025 17.3934 55.4647 17.3934C54.9356 17.3934 54.4471 17.2235 54.0486 16.9361C54.8847 16.5546 55.4647 15.7108 55.4647 14.7323C55.4647 13.9236 55.0688 13.2078 54.4601 12.7688C54.7658 12.6276 55.1067 12.5493 55.4647 12.5493C56.8025 12.5494 57.8867 13.6336 57.8867 14.9714Z" fill="#FB9927"/>
<path d="M31.9999 42.2379C34.3252 42.2379 36.2103 40.3528 36.2103 38.0275C36.2103 35.7022 34.3252 33.8171 31.9999 33.8171C29.6746 33.8171 27.7896 35.7022 27.7896 38.0275C27.7896 40.3528 29.6746 42.2379 31.9999 42.2379Z" fill="#FB9927"/>
<path d="M36.2109 38.0271C36.2109 40.3528 34.3256 42.238 32 42.238C31.4346 42.238 30.8951 42.126 30.4019 41.9238C31.9342 41.294 33.0134 39.7861 33.0134 38.0271C33.0134 36.2681 31.9342 34.7615 30.4019 34.1318C30.8951 33.9296 31.4346 33.8175 32 33.8175C34.3256 33.8175 36.2109 35.7028 36.2109 38.0271Z" fill="#F98824"/>
<path d="M31.9999 7.76451C33.7292 7.76451 35.131 6.36266 35.131 4.63338C35.131 2.90411 33.7292 1.50226 31.9999 1.50226C30.2706 1.50226 28.8688 2.90411 28.8688 4.63338C28.8688 6.36266 30.2706 7.76451 31.9999 7.76451Z" fill="#FFD597"/>
<path d="M35.1317 4.63401C35.1317 6.36301 33.7289 7.76413 31.9999 7.76413C31.5081 7.76413 31.0438 7.65163 30.6293 7.44926C31.6705 6.93988 32.3888 5.87138 32.3888 4.63413C32.3888 3.39688 31.6705 2.32676 30.6293 1.81738C31.0439 1.61488 31.5083 1.50238 31.9999 1.50238C33.7289 1.50226 35.1317 2.90338 35.1317 4.63401Z" fill="#FCC16D"/>
<path d="M44.8133 58.9194H19.1868V55.5591C19.1868 54.4924 20.0515 53.6275 21.1184 53.6275H42.8816C43.9484 53.6275 44.8133 54.4923 44.8133 55.5591V58.9194Z" fill="#756F6F"/>
<path d="M44.8129 55.5596V58.9192H41.6168V55.5596C41.6168 54.4921 40.7514 53.6279 39.6852 53.6279H42.8813C43.9489 53.6279 44.8129 54.4921 44.8129 55.5596Z" fill="#5B5555"/>
<path d="M49.0286 62.4977H14.9716C14.2603 62.4977 13.6838 61.9212 13.6838 61.21V59.1222C13.6838 58.411 14.2603 57.8345 14.9716 57.8345H49.0285C49.7397 57.8345 50.3162 58.411 50.3162 59.1222V61.21C50.3162 61.9212 49.7397 62.4977 49.0286 62.4977Z" fill="#FFD597"/>
<path d="M50.3167 59.1226V61.21C50.3167 61.9208 49.7398 62.4977 49.0289 62.4977H45.8315C46.5437 62.4977 47.1193 61.9208 47.1193 61.21V59.1226C47.1193 58.4105 46.5437 57.8348 45.8315 57.8348H49.0289C49.7398 57.8348 50.3167 58.4105 50.3167 59.1226Z" fill="#FCC16D"/>
<path d="M36.4526 44.7943H27.5475C26.8363 44.7943 26.2598 44.2178 26.2598 43.5066V41.8553C26.2598 41.1441 26.8363 40.5676 27.5475 40.5676H36.4526C37.1639 40.5676 37.7404 41.1441 37.7404 41.8553V43.5066C37.7403 44.2178 37.1638 44.7943 36.4526 44.7943Z" fill="#FFD597"/>
<path d="M37.7407 41.8555V43.5064C37.7407 44.2172 37.1639 44.7941 36.453 44.7941H33.2556C33.9677 44.7941 34.5434 44.2172 34.5434 43.5064V41.8555C34.5434 41.1446 33.9677 40.5677 33.2556 40.5677H36.453C37.1639 40.5677 37.7407 41.1446 37.7407 41.8555Z" fill="#FCC16D"/>
</svg>
