<?xml version="1.0" encoding="utf-8"?><svg viewBox="0 0 24 24" xmlns="http://www.w3.org/2000/svg" xmlns:xlink="http://www.w3.org/1999/xlink"><style>:root>svg{display:none}:root>svg:target{display:block}</style><svg viewBox="0 0 6 10" fill="none" id="angle-right"><path d="M4.042 5L.566 8.473a.654.654 0 000 .927.66.66 0 00.93 0l3.938-3.935a.655.655 0 00.019-.905L1.499.598a.656.656 0 00-.93 0 .654.654 0 000 .927L4.042 5z" fill="#9F9F9F"/></svg><svg viewBox="0 0 18 18" fill="none" id="dpa"><rect width="18" height="18" rx="8" fill="url(#bpaint0_linear)"/><defs><linearGradient id="bpaint0_linear" x1="9" y1="9" x2="9" y2="9" gradientUnits="userSpaceOnUse"><stop stop-color="#3671BF"/><stop offset="1" stop-color="#F3D811"/></linearGradient></defs></svg><svg viewBox="0 0 10 11" fill="none" id="home"><path d="M6.5 10.033v-2.5a1.5 1.5 0 00-3 0v2.5H1a1 1 0 01-1-1V3.599a1 1 0 01.485-.858l4-2.4a1 1 0 011.03 0l4 2.4a1 1 0 01.485.857v5.435a1 1 0 01-1 1H6.5z" fill="#9F9F9F"/></svg><svg viewBox="0 0 14 12" fill="none" id="mail"><path d="M12.333.667H1.667C.933.667.34 1.267.34 2l-.007 8c0 .733.6 1.333 1.334 1.333h10.666c.734 0 1.334-.6 1.334-1.333V2c0-.733-.6-1.333-1.334-1.333zm0 9.333H1.667V3.333L7 6.667l5.333-3.334V10zM7 5.333L1.667 2h10.666L7 5.333z" fill="#fff"/></svg><svg viewBox="0 0 24 24" fill="none" id="tg"><path d="M12 .75C5.787.75.75 5.787.75 12S5.787 23.25 12 23.25 23.25 18.213 23.25 12 18.213.75 12 .75z" fill="#40B3E0"/><path d="M17.474 7.221l-2.01 10.131s-.28.703-1.053.366l-4.637-3.555-1.686-.815-2.838-.956s-.436-.154-.478-.491c-.042-.338.492-.52.492-.52l11.283-4.426s.927-.408.927.267" fill="#fff"/><path d="M9.418 17.239s-.136-.013-.304-.547c-.169-.534-1.026-3.344-1.026-3.344l6.815-4.328s.393-.239.38 0c0 0 .07.042-.141.239-.211.197-5.354 4.82-5.354 4.82" fill="#D2E5F1"/><path d="M11.552 15.526l-1.834 1.672s-.144.109-.3.04l.35-3.105" fill="#B5CFE4"/></svg><svg viewBox="0 0 16 13" fill="none" id="tg-angle"><path d="M15.4.539l-2.297 11.578s-.321.803-1.205.418L6.6 8.472 4.672 7.54 1.428 6.448S.93 6.272.882 5.886c-.048-.385.562-.594.562-.594L14.34.234s1.06-.466 1.06.305" fill="#fff"/><path d="M6.192 11.987s-.155-.015-.348-.625c-.192-.61-1.172-3.822-1.172-3.822l7.788-4.946s.45-.273.434 0c0 0 .08.048-.16.273-.241.225-6.119 5.508-6.119 5.508" fill="#D2E5F1"/><path d="M8.63 10.03l-2.095 1.91s-.164.125-.343.047l.401-3.55" fill="#B5CFE4"/></svg></svg>