<svg width="16" height="13" viewBox="0 0 16 13" fill="none" xmlns="http://www.w3.org/2000/svg">
<path d="M15.3992 0.538724L13.1027 12.1171C13.1027 12.1171 12.7816 12.92 11.8983 12.5346L6.59898 8.47178L4.67201 7.54044L1.4282 6.44838C1.4282 6.44838 0.930383 6.2718 0.882169 5.88639C0.833955 5.50097 1.44427 5.29225 1.44427 5.29225L14.3392 0.233769C14.3392 0.233769 15.3991 -0.2319 15.3991 0.538925" fill="white"/>
<path d="M6.19175 11.9869C6.19175 11.9869 6.03706 11.9724 5.84421 11.3621C5.65165 10.7519 4.672 7.54022 4.672 7.54022L12.4604 2.59424C12.4604 2.59424 12.9101 2.32123 12.894 2.59424C12.894 2.59424 12.9743 2.64245 12.7333 2.86725C12.4926 3.09215 6.61513 8.37533 6.61513 8.37533" fill="#D2E5F1"/>
<path d="M8.63073 10.0294L6.53471 11.9405C6.53471 11.9405 6.37079 12.0649 6.19159 11.9869L6.59297 8.43713" fill="#B5CFE4"/>
</svg>
