<svg width="24" height="24" viewBox="0 0 24 24" fill="none" xmlns="http://www.w3.org/2000/svg">
<path d="M12 0.75C5.78675 0.75 0.75 5.78675 0.75 12C0.75 18.2133 5.78675 23.25 12 23.25C18.2133 23.25 23.25 18.2133 23.25 12C23.25 5.78675 18.2133 0.75 12 0.75Z" fill="#40B3E0"/>
<path d="M17.4741 7.22138L15.4647 17.3524C15.4647 17.3524 15.1837 18.055 14.4109 17.7178L9.77396 14.1628L8.08787 13.3479L5.24953 12.3923C5.24953 12.3923 4.81394 12.2378 4.77175 11.9006C4.72957 11.5634 5.26359 11.3807 5.26359 11.3807L16.5466 6.95455C16.5466 6.95455 17.4741 6.54709 17.4741 7.22156" fill="white"/>
<path d="M9.41761 17.2386C9.41761 17.2386 9.28226 17.2259 9.11351 16.6919C8.94503 16.158 8.08783 13.3477 8.08783 13.3477L14.9027 9.02C14.9027 9.02 15.2962 8.78111 15.2821 9.02C15.2821 9.02 15.3523 9.06219 15.1415 9.25889C14.9308 9.45568 9.78807 14.0785 9.78807 14.0785" fill="#D2E5F1"/>
<path d="M11.5518 15.5257L9.71781 17.198C9.71781 17.198 9.57437 17.3068 9.41757 17.2386L9.76878 14.1325" fill="#B5CFE4"/>
</svg>
