<svg width="104" height="64" viewBox="0 0 104 64" fill="none" xmlns="http://www.w3.org/2000/svg">
<g clip-path="url(#clip0)">
<g clip-path="url(#clip1)">
<path fill-rule="evenodd" clip-rule="evenodd" d="M91.8411 51.328C94.9386 56.4902 97.4086 60.4675 102.797 63.4483C98.1163 63.9533 95.9202 59.8085 90.4997 58.7784C86.4623 58.0111 80.9528 60.3114 76.8989 61.0487L70.3152 62.514C68.891 62.8127 67.1912 63.1051 65.7954 62.514C63.8101 61.6734 70.3912 59.2589 67.4258 57.7672C66.0975 57.0989 63.6052 57.4276 62.2456 57.891C57.5651 59.4859 51.5527 65.2131 47.262 62.9681C43.8185 61.1663 43.2817 57.835 38.2866 58.6456C33.6701 59.3945 32.1687 58.5784 27.9237 58.5101C22.2277 58.4184 19.4771 62.3763 13.1878 62.4314L11.0002 62.3695L-0.00012207 0C2.33572 0.849521 2.32931 2.00526 6.5836 1.56855C9.67373 1.25134 11.5783 2.16249 14.3849 3.46722C21.1944 6.63299 21.9597 7.22061 29.4717 6.35662C32.2424 6.03804 34.9043 5.26095 37.6032 4.60236C38.6748 4.34092 40.7056 3.87426 41.7103 4.33405C44.2775 5.50902 43.0435 6.05846 47.3652 6.41862C51.2419 6.74159 50.6951 9.28796 57.4574 7.07904C61.3943 5.79299 64.1757 6.13236 68.0243 7.36795C73.5602 9.14529 70.2844 12.6992 74.3603 16.3251C76.2193 17.9788 77.9218 18.9695 80.5106 18.6365L81.1505 18.5127C80.6091 22.8431 79.6981 26.1199 79.1279 30.0703C78.8988 31.6576 78.8827 32.5104 79.6025 33.9504C80.7882 36.3219 82.0022 35.7209 84.7415 38.2638C88.751 41.9857 89.8549 46.4525 91.8411 51.328Z" fill="#0093DD"/>
<path fill-rule="evenodd" clip-rule="evenodd" d="M44.4708 5.95755C46.2158 6.49371 47.4618 6.26194 48.7843 6.68272C50.0777 12.5028 49.0845 13.8794 55.5999 17.7697C61.4895 21.2868 63.3847 22.5725 64.9079 29.3686C65.3124 31.1736 64.6652 31.0133 64.4126 32.4643C64.2137 33.6075 65.8629 36.9177 66.8479 37.5621C67.5554 38.0248 68.8422 37.4683 68.3133 35.7458C67.678 33.6775 66.1569 32.7927 66.9923 29.9258C67.0917 29.5851 67.1973 29.3308 67.4671 29.1622C68.8939 30.2719 68.364 33.926 69.8405 36.3857C71.8645 39.7576 71.4753 37.8711 72.2965 42.2264C72.6482 44.0911 74.9236 48.4995 75.7637 50.8533C77.0342 54.4121 77.2179 54.2452 75.1446 57.9735L74.5461 59.1086C75.0236 57.0795 76.619 54.381 75.1652 53.9284C73.446 53.393 73.2177 57.6462 72.5647 58.5101L69.7785 60.801C71.714 56.1771 74.9789 50.8819 72.5235 45.8175C72.2618 45.2777 72.1188 45.0272 71.6154 44.8475C71.2433 45.0866 71.0528 45.4802 70.8724 46.0032C69.8463 48.9766 71.8014 52.7398 70.0881 55.9097C69.416 57.1536 69.2343 57.0954 68.8705 58.6546C68.2949 54.8561 71.1919 54.4014 67.6529 50.1309C65.0063 46.9375 65.7101 47.5505 64.1855 43.3615C63.2818 40.8782 61.6274 36.6971 61.6883 34.1361C61.7776 30.3772 62.5576 29.0933 59.2323 25.8807C55.3139 22.095 56.7656 20.9359 54.6299 18.7397C52.155 16.1946 48.3086 17.1033 46.3745 12.0116C45.5691 9.89097 45.1674 7.69899 44.4708 5.95755Z" fill="#75C5F0"/>
<path fill-rule="evenodd" clip-rule="evenodd" d="M38.243 7.57435L38.1398 7.40924C37.7435 7.93752 37.2003 10.8546 37.6651 11.9497C38.5408 14.0125 38.6087 12.6256 38.986 16.0361C39.3719 19.5256 42.9289 20.4145 45.4871 24.89C46.2982 26.3089 49.086 31.0956 50.1514 31.9897C51.586 33.1937 51.9413 33.1995 51.8644 35.7665C51.7422 39.8408 50.8116 41.2005 54.0108 44.8061C57.0059 48.1818 58.1983 48.4911 59.1911 54.0522L59.9959 58.799C62.9295 57.3323 64.897 56.353 67.9624 58.0561C64.5358 52.9161 63.2942 52.914 60.4087 46.0858C58.4579 41.4693 57.832 40.1619 55.3729 35.7665C53.5972 32.5925 53.6228 31.335 52.0501 28.1097C47.8572 19.51 41.1268 18.2442 38.243 7.57435Z" fill="#75C5F0"/>
<path fill-rule="evenodd" clip-rule="evenodd" d="M51.8536 7.84513C55.0752 8.49768 58.1486 6.24874 61.7276 6.28482C62.9882 8.69172 65.7182 11.9583 65.6096 14.7152C65.5645 15.8655 64.9991 18.1338 65.7747 19.1938C66.435 20.0963 68.9357 17.7681 69.1594 18.8842C69.6315 21.2389 68.1108 23.0047 69.6961 25.3854C70.592 26.7309 71.2171 26.7729 72.7299 29.5956C75.4365 34.6457 74.9783 35.5935 78.7357 40.7404C81.7465 44.8644 83.1125 48.8922 82.7396 54.1142C82.5218 57.1637 81.7437 57.6208 80.3042 60.1612L77.4148 60.801C78.1686 58.2102 79.664 54.7921 79.5406 52.3599C79.4395 50.367 77.4502 49.8335 76.837 47.2002C76.0878 43.9823 76.8859 42.2718 74.7937 38.9242C72.8647 35.8379 69.7132 32.3749 68.3752 29.8845C67.2062 27.7088 67.7752 26.5722 65.3826 24.89C62.2175 22.6647 63.5864 20.7949 62.0598 19.3177C61.5298 18.8046 60.398 19.4286 59.7483 19.1732C57.7765 18.398 55.8175 15.2772 54.8363 13.477C53.5605 11.1361 53.3547 10.2039 51.8536 7.84513Z" fill="#75C5F0"/>
<path fill-rule="evenodd" clip-rule="evenodd" d="M72.3596 13.5257C73.5043 19.1341 74.412 28.1877 77.4148 32.9184C79.1022 35.5766 81.1228 37.7486 82.9253 40.4308C85.6748 44.5222 87.3268 45.7436 89.5296 50.3785C90.8666 53.1918 94.2845 57.0217 96.4229 59.3975C92.4011 53.1821 89.4717 48.0792 84.9273 42.1025C81.8459 38.0502 77.5843 32.4608 76.5687 27.4492C76.1119 25.1944 75.8795 20.1132 75.5652 17.3186C74.2456 16.329 73.1078 15.278 72.3596 13.5257Z" fill="#75C5F0"/>
<path fill-rule="evenodd" clip-rule="evenodd" d="M5.28345 1.65974C5.53353 5.41103 5.28491 5.02834 7.40922 7.86326C9.52831 10.6909 9.18866 10.0507 9.74131 13.4563C9.85797 14.1751 10.1021 14.9571 10.67 15.4376C11.323 15.1864 11.16 14.5968 11.7227 14.0342L11.9497 14.0548C13.2761 16.4664 15.4727 24.2127 16.0773 27.1396C16.4661 29.0216 16.9409 31.8865 17.13 33.7852C17.2424 34.9152 17.1072 34.6729 17.4189 35.7458C18.1055 35.0103 18.2859 33.7883 18.5127 32.8358C19.0786 30.4603 19.8022 26.9778 19.4001 24.5598C18.8403 21.1916 16.5574 18.095 16.5107 14.7359C16.4358 9.34472 15.8852 11.4783 14.5089 8.68879C13.9665 7.58936 13.4538 4.69401 12.7574 2.72135C10.4763 1.72952 9.00808 1.21168 5.28345 1.65974Z" fill="#75C5F0"/>
<path fill-rule="evenodd" clip-rule="evenodd" d="M18.3063 5.28348C20.372 9.30609 21.5005 12.652 24.1264 16.5315C24.4033 16.9407 24.4968 17.1661 24.7868 17.2951C25.4555 16.827 25.5657 16.1154 26.1489 15.7265C27.037 16.4664 27.2545 22.5882 27.7381 24.4566C28.8608 28.7946 31.696 29.0107 33.9915 34.7552C35.2554 37.918 36.1235 41.5641 38.4701 44.1251C41.0402 46.9301 42.49 48.0856 40.6577 52.1741C38.995 55.8845 39.0985 54.7469 38.9861 58.799L41.4421 58.6546C41.6383 57.4276 41.529 54.2301 42.6803 54.1761C43.5917 54.1333 44.7231 55.0509 44.3934 52.8552C44.0128 50.3212 42.8029 50.5663 43.9393 47.0145C44.6449 44.8086 44.9758 43.5365 42.6597 41.8755C40.8342 40.5664 38.1403 39.9239 37.0047 37.851C34.3742 33.0486 34.3094 26.7533 32.2579 21.7529C32.0183 21.1687 31.9159 20.8129 31.5768 20.5972C30.6896 20.893 30.2359 21.7243 29.4718 21.9594C28.6899 20.9169 30.7373 16.562 30.8751 15.1074C31.1306 12.413 28.9667 9.11809 27.864 6.52667C23.6671 6.93701 21.4541 6.62209 18.3063 5.28348Z" fill="#75C5F0"/>
<path fill-rule="evenodd" clip-rule="evenodd" d="M86.5548 40.1625L84.3082 40.4721C81.5314 37.6951 81.4089 36.5509 78.0135 33.7232C76.7746 32.6916 76.0378 33.2003 73.6794 32.485C68.7016 30.9752 70.2539 31.9721 65.7749 32.8152C63.1074 33.3173 61.5075 32.8703 59.0054 34.3837C53.7356 37.5713 55.7993 34.3629 52.7933 29.3273C52.0488 28.0803 48.6516 29.5821 47.7988 30.2354C45.4749 32.0159 45.7979 33.2069 41.7104 32.4024C39.9768 32.0613 36.2619 30.5115 35.2093 30.5862C32.0368 30.8116 30.1596 32.3744 28.6256 31.9278C24.6787 30.7784 22.4109 33.6407 16.9855 33.6407C13.1321 33.6407 10.2602 33.2975 6.50113 33.0009L5.78687 32.9596L10.8765 62.4933C16.0297 62.4933 16.3364 62.5235 21.385 60.2066C25.3953 58.3662 26.7102 58.3386 30.9165 58.8197C36.2505 59.4296 34.8406 58.9866 39.2132 58.7784C45.5768 58.4755 44.2281 64.6135 51.0803 63.4015C55.8746 62.5534 62.2948 55.8304 66.3115 57.6021C69.2234 58.8864 62.3204 62.0686 64.3095 62.9267C66.9563 64.0687 73.9578 61.6996 76.8578 61.0693C82.2376 59.8999 88.7301 57.6676 94.0083 60.2438C97.2563 61.8288 99.3447 64.46 103.296 63.6698C99.4596 60.5312 95.7211 57.2132 93.3066 52.8139C90.9295 48.4825 89.4898 44.005 86.5548 40.1625Z" fill="#FFF500"/>
<path fill-rule="evenodd" clip-rule="evenodd" d="M86.4342 40.1625L84.3496 40.4721C85.3354 45.0063 90.0593 53.089 92.9765 56.7352C94.8545 59.0823 96.3941 60.9252 98.8791 62.741C100.374 63.8334 101.987 64.0264 103.77 63.6698C100.936 63.6698 98.7268 61.3149 97.001 59.315C92.774 54.4169 88.4887 46.326 86.4342 40.1625Z" fill="#F8C300"/>
<path fill-rule="evenodd" clip-rule="evenodd" d="M41.7515 58.9848C42.9974 57.0592 42.9432 49.0055 43.9598 48.2322L44.2487 48.1496C44.9462 48.6146 44.9713 49.3097 45.3426 49.5324C45.1903 48.085 44.0048 45.2361 43.7947 44.3315C43.2798 40.1549 44.2273 34.6954 45.415 32.2811C46.0427 31.8838 46.508 31.3851 46.8065 31.0855C47.3109 31.3076 47.7757 32.3672 48.1082 34.5901L55.6412 51.4518C58.0848 56.3901 54.6947 62.042 49.4703 63.3396C47.7619 63.7638 46.1469 63.0127 45.0743 61.6884C44.1742 60.5771 42.9564 59.7379 41.7515 58.9848Z" fill="#F8C300"/>
<path fill-rule="evenodd" clip-rule="evenodd" d="M54.9301 34.6515C57.0998 41.1606 63.3549 50.5761 66.6003 57.2306C67.1045 58.2647 67.3604 58.788 66.2495 59.8517C65.5102 60.5593 62.4984 62.4461 64.8047 63.2157C66.0202 63.6213 68.7795 63.0871 70.0263 62.7204C69.8366 57.0321 69.2941 57.089 66.1463 53.3092C64.3652 51.1707 66.0172 51.3323 65.1349 49.2228L59.1911 35.4569L58.7577 34.5179C57.3021 35.3017 56.2575 36.222 55.1778 34.9404L54.9301 34.6515Z" fill="#F8C300"/>
<path fill-rule="evenodd" clip-rule="evenodd" d="M65.7748 32.8152C66.622 34.4327 69.7784 39.854 71.9412 43.6562L72.3044 44.2962C73.2668 45.9956 73.9651 47.2644 74.0509 47.5304C74.7164 49.5943 74.0547 49.2899 75.4336 51.7201C77.7533 55.8083 75.3492 55.8956 73.7412 59.2118C76.9646 58.0742 79.4916 56.7947 79.5407 52.8552C79.576 50.0264 77.2079 49.9922 77.0434 47.5717C76.9887 46.767 76.0949 44.5051 76.1146 43.7949C76.1146 37.5167 75.7558 38.3791 74.2379 32.6449C73.745 32.5619 71.0496 31.5426 69.8176 31.7245C68.8301 31.8794 68.1162 32.3512 65.7748 32.8152Z" fill="#F8C300"/>
<path fill-rule="evenodd" clip-rule="evenodd" d="M90.8061 59.2434C88.767 56.0715 86.0617 52.9769 85.1337 49.2641C84.5014 51.1053 84.1913 52.5767 84.308 54.5888C84.3764 55.7634 84.8645 58.0877 85.1337 59.2991C86.0031 59.1683 86.9054 59.0742 87.7314 59.0494C88.7701 59.0184 89.8287 59.053 90.8061 59.2434Z" fill="#F8C300"/>
<path fill-rule="evenodd" clip-rule="evenodd" d="M28.3541 58.5634C28.4259 55.9743 28.1004 56.2632 29.1415 54.4444C29.7234 53.4277 29.0182 52.8483 28.997 50.8945C28.9631 47.7727 29.2072 48.2499 27.5523 45.7968C26.0302 43.5408 27.4386 42.5871 27.3046 40.6372C27.2074 39.2214 25.85 33.4067 25.9012 33.0628L26.0044 32.8358C27.4057 34.6264 28.6401 37.6049 28.8732 39.9149C29.198 43.1367 28.5853 43.6983 30.2146 47.0145C32.0443 50.738 31.738 49.2371 33.2278 51.1834C34.4057 52.7219 33.3616 53.0017 34.5075 55.9716L35.7045 59.088C33.47 59.088 30.6477 58.7718 28.3541 58.5634Z" fill="#F8C300"/>
<path fill-rule="evenodd" clip-rule="evenodd" d="M61.7537 58.0722L63.9638 62.5241C63.9638 60.8711 69.0712 58.9927 66.1702 57.4252C64.8225 56.6968 63.0502 57.3899 61.7537 58.0722Z" fill="#B5A422"/>
<path fill-rule="evenodd" clip-rule="evenodd" d="M34.5929 30.6353C35.3488 33.8102 35.4149 32.6737 35.7457 37.0874C35.9012 39.163 35.9819 40.3521 35.2504 42.2058L35.0234 42.9075C33.4708 38.2495 33.5254 39.4263 32.7119 33.8059L32.1254 31.2209C32.9015 30.9856 33.7473 30.744 34.5929 30.6353Z" fill="#F8C300"/>
</g>
<g filter="url(#filter0_d)">
<path d="M52.5 0.154236C50.9981 1.78598 50.0827 3.9205 50.0827 6.26478C50.1713 11.4114 50.8305 16.5518 50.8885 21.6877C51.0077 26.4842 49.5058 30.9877 47.6782 35.3832C47.0691 36.597 46.4115 37.7845 45.7524 38.9752L43.8185 38.6019C42.0732 38.2688 40.9386 36.6448 41.2884 34.9745C41.5929 33.5139 42.937 32.4914 44.4358 32.4914L45.1416 32.5639L43.5671 19.9788C43.053 14.3803 40.0329 9.46041 35.5898 6.26787C34.826 5.71881 34.0153 5.21603 33.1725 4.77339V49.4535H43.9507C44.7565 53.6331 47.1641 57.2883 50.5484 59.7868C51.3526 60.3174 52.0279 61.0176 52.5129 61.835C52.9964 61.0176 53.6717 60.3174 54.4774 59.7868C57.8617 57.2822 60.2694 53.6346 61.0752 49.4535H71.8534V4.77339C71.0105 5.21603 70.1999 5.71881 69.436 6.26787C64.9881 9.46503 61.9745 14.3803 61.4588 19.9788L59.8843 32.5639L60.5901 32.4914C62.0889 32.4976 63.4329 33.5124 63.7375 34.9745C64.0856 36.6448 62.9511 38.2673 61.2074 38.6019L59.2735 38.9752C58.6143 37.7861 57.9552 36.5985 57.3477 35.3832C55.5185 30.9908 54.0165 26.4873 54.1358 21.6877C54.1938 16.5364 54.8529 11.4006 54.9416 6.26478C54.9416 3.9205 54.0262 1.79215 52.5242 0.154236H52.5ZM36.3843 11.2124C38.4697 13.5552 39.8702 16.4716 40.2843 19.6842L41.5736 30.0638C39.9217 30.8504 38.6728 32.294 38.199 34.0414H36.3731V11.2155L36.3843 11.2124ZM68.6158 11.2124V34.0383H66.7898C66.3193 32.2924 65.0671 30.8489 63.4152 30.0608L64.7045 19.6812C65.1219 16.4716 66.5223 13.5521 68.6045 11.2078L68.6158 11.2124ZM52.5 32.0796C53.3655 34.7894 54.5564 37.3697 56.0374 39.7571C54.6289 40.1658 53.4041 40.9617 52.5 42.0335C51.596 40.9617 50.3712 40.1674 48.9627 39.7556C50.4437 37.3635 51.6346 34.7894 52.5 32.0796ZM36.3843 37.1291H38.2103C38.7856 39.259 40.5229 40.9401 42.7227 41.5277L44.2714 41.8654C43.8572 43.3028 43.63 44.8112 43.63 46.3843H36.3779V37.1306L36.3843 37.1291ZM66.7947 37.1291H68.6206V46.3828H61.3685C61.3685 44.8189 61.1413 43.3028 60.7271 41.8639L62.2758 41.5261C64.4837 40.9385 66.2193 39.2559 66.7882 37.1275L66.7947 37.1291ZM47.4236 42.5733C49.3784 42.8371 50.8853 44.4395 50.8853 46.3813H46.8563C46.8563 45.0595 47.061 43.784 47.4236 42.5733ZM57.5717 42.5733C57.9343 43.784 58.1389 45.0564 58.1389 46.3813H54.11C54.11 44.4364 55.6168 42.8371 57.5717 42.5733ZM47.2254 49.4674H50.8885V55.9604C49.1158 54.1791 47.8265 51.9505 47.2254 49.4674ZM54.1116 49.4674H57.7747C57.1817 51.9505 55.8892 54.1821 54.1116 55.9604V49.4674Z" fill="white"/>
</g>
</g>
<defs>
<filter id="filter0_d" x="29" y="-4" width="47" height="70" filterUnits="userSpaceOnUse" color-interpolation-filters="sRGB">
<feFlood flood-opacity="0" result="BackgroundImageFix"/>
<feColorMatrix in="SourceAlpha" type="matrix" values="0 0 0 0 0 0 0 0 0 0 0 0 0 0 0 0 0 0 127 0" result="hardAlpha"/>
<feOffset/>
<feGaussianBlur stdDeviation="2"/>
<feColorMatrix type="matrix" values="0 0 0 0 0 0 0 0 0 0 0 0 0 0 0 0 0 0 0.25 0"/>
<feBlend mode="normal" in2="BackgroundImageFix" result="effect1_dropShadow"/>
<feBlend mode="normal" in="SourceGraphic" in2="effect1_dropShadow" result="shape"/>
</filter>
<clipPath id="clip0">
<rect width="104" height="64" fill="white"/>
</clipPath>
<clipPath id="clip1">
<rect width="103.77" height="64" fill="white"/>
</clipPath>
</defs>
</svg>
