<svg width="100" height="64" viewBox="0 0 100 64" fill="none" xmlns="http://www.w3.org/2000/svg">
<path fill-rule="evenodd" clip-rule="evenodd" d="M65.8493 35.5194C65.9746 34.9733 66.2151 34.4071 66.1399 33.8059C66.0347 32.9141 65.0277 32.328 64.8022 31.2758C64.662 30.3139 64.9876 30.7348 65.4936 30.9051C66.1099 31.1105 66.666 31.346 67.3123 31.1406C67.9135 30.9502 68.2041 30.5794 68.5047 30.1887C68.665 29.9832 68.7051 29.7027 69.0408 29.9181C70.7592 33.7408 68.4245 36.0504 67.8033 37.308C67.3824 38.1597 67.2071 39.4924 66.6059 39.297C66.3353 39.1667 66.1399 38.4753 65.9095 37.6687C65.8944 37.6186 65.8794 37.5685 65.8694 37.5234C65.6539 36.9523 65.7091 36.1156 65.8493 35.5194ZM65.2632 35.1336C65.1279 35.334 64.176 35.324 63.4696 35.1687C62.0166 34.853 62.4926 35.1687 61.21 35.83C60.6088 36.4162 60.4084 35.6797 60.0777 35.8851C59.8974 36.5715 60.188 37.0324 60.7792 37.1176C61.3754 37.2028 63.3092 36.7268 63.2842 37.2879L63.2992 39.0815C64.3263 39.2118 63.9355 38.5354 64.4616 38.7759C65.3133 41.1156 63.0487 39.6026 61.8914 40.0385C60.719 40.4793 60.8794 40.6697 59.6669 40.6797C58.3092 40.6898 59.2962 40.1236 58.1839 40.0785C57.9435 40.0835 57.9184 40.4543 57.7481 40.79C57.5577 41.1657 57.4374 41.5615 57.5677 41.6868C58.3893 42.278 58.735 41.2359 60.7491 41.4663C61.9214 41.5816 63.6148 42.0776 64.5117 41.7068C64.7772 41.6166 64.8022 41.8471 64.7872 41.9022C64.6169 42.5485 64.4215 42.6587 63.9605 43.0094C63.6449 43.2499 62.0517 43.275 61.3703 42.9343C61.1198 42.809 60.8242 43.1297 60.7842 43.2499C60.6489 43.7209 60.6639 45.1187 60.9395 45.1738C61.676 45.4794 63.169 44.8782 63.6349 45.6598C64.662 47.3682 62.8784 48.4955 61.4756 48.8161C59.3613 49.3021 58.1639 48.9564 56.1699 48.6908C51.0045 48.0045 50.5987 48.1498 47.3171 45.4343C46.5355 44.8732 46.1197 44.2619 45.4834 43.2599C45.1127 42.6738 43.5545 40.7098 44.2159 40.3842L44.8221 40.0835L46.4203 39.3922C46.6758 39.2469 46.6407 39.0615 46.3602 38.6707C46.295 38.5705 46.0746 38.2799 45.9844 38.1597C45.3431 37.2829 44.6317 35.6897 44.1457 34.7077C43.3591 33.1246 42.6878 31.4963 42.1517 29.8129C41.7309 28.4953 41.2549 28.2848 41.9012 27.3179C42.9784 25.7046 43.299 23.6054 43.3391 21.6064C43.3742 19.7727 43.269 20.0132 42.773 18.7857C43.8501 17.6935 44.291 16.6515 43.9403 14.5873C43.4844 11.8769 42.6277 11.952 41.9012 11.3859C41.1647 11.0502 39.0455 10.7947 37.322 10.8999C36.3651 11.2055 36.1497 11.8568 35.5284 12.6334C34.8921 13.425 34.346 13.8709 33.82 14.6374C32.1266 17.1024 32.5825 17.2978 32.8129 20.5443C32.9883 23.0192 33.2087 24.7577 32.9733 27.2127C32.6526 30.5394 32.5274 30.9502 33.4592 31.6165C33.7548 31.827 34.5414 32.1676 34.7368 32.5534C35.3981 33.6456 35.7639 34.9733 36.5254 35.7548L38.5996 37.8941C38.83 38.1196 38.4443 38.1547 38.4894 38.816C38.5294 39.4122 38.8701 40.2639 39.2409 41.0806C39.3461 41.286 40.4032 41.1206 40.318 41.3411C40.0826 43.6958 39.1958 45.1888 38.299 47.5786C38.2138 47.784 37.7629 47.7089 37.1316 47.5385C36.6957 47.4183 36.335 47.3231 35.8541 47.258C34.822 47.1227 33.2238 47.263 32.9182 47.3131C32.6125 47.3481 31.6005 49.3071 32.0264 49.3071C32.7929 49.3923 34.1857 48.7259 37.1016 48.9464C39.0755 49.0967 44.5716 50.6297 46.4554 51.3111C49.9324 52.5686 48.4794 52.1779 49.241 52.7891C49.6067 53.0847 49.7971 52.8943 50.1578 53.3602C49.2911 53.1799 44.7419 51.5265 43.1487 51.231L37.307 50.2189C36.2398 50.0035 35.7839 49.9133 35.4983 50.5295C35.3681 51.0957 36.0645 50.9003 36.7659 50.9153C39.316 50.8802 50.4835 54.3121 51.4354 55.3893L40.4633 56.0306C40.0174 56.3212 40.0375 56.2661 39.4062 56.2861L39.3711 55.5997C37.4322 56.1458 33.7799 57.0577 33.7097 57.208C33.6146 57.3983 33.9853 58.711 34.1206 58.711C37.1116 58.7511 40.1978 58.1448 43.4744 58.2651C45.298 58.3302 50.5235 58.5607 52.4925 58.7962C52.6378 58.8112 52.6578 59.0266 52.5576 59.0767L45.3481 59.232C43.7249 59.3072 37.2418 59.5376 35.0625 59.9735C34.7769 60.0286 34.4863 60.0236 34.4462 60.1539C34.4663 60.4094 35.308 60.4695 36.2348 60.3693L42.5926 59.7831C44.1357 59.703 45.8091 59.713 47.3622 59.733C48.2991 59.7431 48.6798 59.9485 49.6618 59.9084C50.4434 59.8783 51.1799 59.8783 51.9614 59.8934C55.1378 59.9334 57.7831 59.7581 60.8343 60.229C64.2962 60.7651 65.5187 60.3242 68.2692 62.0427C69.0708 62.5437 72.5729 63.9114 73.3344 63.9665C73.665 64.0217 74.5218 64.0066 75.118 63.9365C75.4687 63.8964 75.7342 63.8162 75.6891 63.711C75.3284 63.1299 75.2633 63.4154 74.4216 63.3353C73.129 63.1649 69.7572 61.702 68.7953 60.9856C68.1139 60.4745 67.3373 60.3242 66.4355 59.9735C65.1229 59.4675 59.1509 56.0056 58.3042 55.1989C58.229 55.1288 58.204 54.8031 58.3994 54.4224C58.6699 53.8963 58.8603 53.9214 59.1108 54.0115C59.6719 54.4274 61.0547 55.3292 61.6709 55.5546C64.682 56.6569 67.1019 56.9474 68.3544 56.6017C70.0027 55.9254 68.2792 57.9895 68.4546 58.5807C68.66 58.736 68.9406 59.0467 69.0758 59.0416C69.2913 59.0416 69.2412 58.3352 69.4766 57.5036C69.672 56.8122 70.168 56.1007 70.674 55.3943C70.7392 55.244 70.9346 55.1639 70.8694 54.9434C70.8193 54.8382 70.2332 54.738 70.0428 54.758C68.7902 55.0286 66.8814 55.755 64.3213 55.2941C62.5677 54.9785 60.1479 54.0566 59.0156 53.1448C58.9304 53.0195 59.0206 52.3632 59.1008 52.1428C59.216 51.7971 59.3112 51.3161 59.4866 51.241C62.172 50.76 65.198 50.0235 66.0047 47.3481C66.8063 44.6928 67.9486 42.5786 68.7452 39.6677C69.0658 38.4954 69.0007 37.9493 69.4616 36.807C69.9225 35.6597 69.9726 35.2589 70.2482 34.0264C70.2883 33.5955 70.7592 34.4823 71.4005 33.9913C72.0969 33.1496 73.0989 32.9943 73.1039 31.336C73.1139 31.0003 72.3574 31.2809 72.2823 30.9652C71.7462 27.8389 74.3314 29.2668 75.0378 25.0483C75.2132 24.3068 75.0178 22.1575 74.5418 21.4812L72.668 18.936C71.6009 17.6785 71.3554 18.3899 71.5157 15.7847C71.641 13.7657 71.145 13.8007 70.6139 12.3478C70.0027 10.6795 71.3805 10.1083 70.4336 8.62532C69.662 7.2726 68.9506 6.36077 67.9185 5.20845C62.8233 0.53406 62.8734 3.11926 60.3633 1.36072C55.9144 -1.74552 51.3953 1.22545 47.272 2.77857C45.9243 3.2896 44.7419 4.00604 43.4543 4.61727C41.781 5.40886 37.7178 4.77759 37.6827 9.48705C37.6777 10.2586 37.5725 10.1985 38.2338 10.449C39.2609 10.5893 41.5505 10.6193 42.2018 11.2306C43.1988 11.1955 43.7399 11.6364 44.8672 11.4911C45.6037 11.3959 49.5165 9.93796 51.9664 9.92293C58.9204 9.88786 59.9224 12.4079 61.6359 11.4861C63.2641 10.6043 62.3473 9.32673 65.3533 10.8799C66.2301 11.3308 68.0287 12.964 68.4646 13.5953C70.2732 16.2005 69.1159 20.0032 69.7722 23.9311C69.7672 24.0163 69.672 24.1014 69.5818 24.0664C68.4746 23.6605 68.6249 22.9992 67.1419 23.6906C66.1249 24.3068 65.4535 23.7507 64.4766 23.8259C64.3463 23.8359 64.0708 23.8459 64.0056 23.9611C62.6479 26.0403 62.8684 27.6185 63.7501 29.9582C63.8904 30.334 63.7652 30.0484 63.9155 30.339C64.4064 31.2658 64.4064 31.9322 65.0878 33.0494C65.9395 34.4472 65.7391 34.5474 65.2932 35.1386L65.2632 35.1336ZM34.9673 32.3179C34.9723 32.3179 35.1577 31.8871 35.7839 32.5985C36.0645 32.9191 36.2298 33.4001 36.3951 33.8009C36.7008 33.8911 36.5204 33.8109 36.841 34.2067C37.0765 34.4923 37.1416 34.5675 37.322 34.8029C37.7128 35.2989 37.803 35.5494 38.5344 35.7047C38.805 35.6697 38.7599 35.7448 38.6847 35.4843C37.7128 35.0234 37.1216 33.6857 36.7458 32.5935C36.6757 32.1025 37.4873 32.4883 37.6226 32.6737C38.1537 33.4252 37.297 34.2969 39.0906 34.4422C39.3661 34.4622 39.9773 34.2218 40.1627 34.5374C40.323 35.1586 40.1878 35.3891 40.6236 35.349C42.1016 34.7528 40.2028 33.2147 40.5134 32.7939C40.794 32.5835 42.302 33.6757 42.3471 33.9963L43.4443 39.9332C43.5545 41.3561 45.4684 44.3321 45.7389 44.8181C46.4453 47.1628 50.0175 50.1187 51.3001 52.0426C51.4404 52.2129 51.0546 52.1678 50.8793 52.0977C47.2069 50.6498 42.8481 48.9965 39.2709 48.275C38.6346 48.0796 39.6367 46.3361 39.8421 45.6497C40.4232 44.4824 40.794 42.6036 40.9743 41.0254C41.0946 40.5244 42.6728 41.0154 42.6627 40.7148C42.4122 39.5825 41.4002 37.839 41.2349 37.8491C40.789 37.6887 39.8972 38.5254 39.4713 37.9442C39.3711 37.809 39.4162 37.4182 38.8851 37.1176C37.6226 36.346 36.6356 35.1837 35.8991 33.9312C35.5384 33.3149 35.4432 32.5534 34.9723 32.3029L34.9673 32.3179ZM54.8322 57.243L55.0927 57.5637C54.8923 57.6188 54.9174 57.6539 54.727 57.6338C54.1859 57.5737 54.3362 57.5537 54.251 57.5286C52.8382 57.4635 53.4244 57.1529 52.2821 56.9675C49.8772 56.5767 47.4123 56.7671 45.1628 56.5817L51.0646 56.2711C52.733 56.2711 51.5957 56.0857 52.4374 55.7851C53.0586 56.221 54.0757 57.0126 54.8322 57.243ZM67.4826 27.1526L66.8313 26.887L65.9996 26.8219C65.8544 26.7918 65.5137 26.8169 65.6189 26.5664C65.7141 26.3309 65.8694 26.401 66.0197 26.401C66.7912 26.3008 66.8013 26.1906 67.7782 26.9722C67.8934 27.0674 68.1339 27.3329 67.4776 27.1526H67.4826ZM67.2922 29.4672C67.3173 29.7528 67.2121 29.7879 66.9666 29.9632C65.7792 30.364 65.5788 30.0283 64.8724 29.4722L65.2481 29.4121L67.2922 29.4672ZM67.0467 29.0213C66.9265 29.0514 66.2351 29.2668 66.4956 28.876C66.8564 28.4802 66.8363 28.4702 66.8163 27.9091C66.681 27.4381 66.8864 27.5634 67.0067 27.6185C67.2171 28.1195 67.3073 27.6085 67.5077 28.1395C67.5828 28.365 67.1469 28.4201 67.152 28.6706C67.1369 28.7858 67.2572 28.9462 67.0467 29.0163V29.0213ZM55.5336 28.9111C55.4534 28.8109 55.734 28.5454 55.8142 28.2498C55.8993 27.9241 55.724 27.6085 55.9995 27.5834C56.22 27.5634 56.5657 27.894 56.6759 28.4902C56.721 28.7257 56.2951 28.5754 56.1098 28.6656C55.8192 28.8059 55.6388 29.0363 55.5386 28.9111H55.5336ZM54.3713 28.6656C54.246 28.6706 54.1258 28.5053 54.261 28.4051C54.3663 28.3299 54.7019 28.3399 54.8122 28.2648C55.0476 28.1195 54.9975 27.7788 55.218 27.8289C55.4585 28.2397 55.1228 28.6906 54.3713 28.6606V28.6656ZM51.726 24.1014C51.8863 24.1966 51.5506 24.3118 51.3251 24.6375C50.6538 25.5994 49.246 27.5433 49.0656 28.4902C49.0205 28.6456 50.8793 29.0915 50.9143 28.9011C51.0847 28.38 51.2901 27.4932 51.6358 27.0974C52.3773 26.2658 52.6628 25.9351 54.9274 26.1455C55.6789 26.2558 55.4184 26.6165 55.0627 26.5463C53.2991 26.4962 52.2971 26.9371 51.741 28.1195C51.6007 28.4151 51.766 28.5554 52.1017 28.6556C52.3171 28.7007 52.4725 28.2848 52.6027 28.3149C53.3893 28.4953 52.5827 28.7508 53.6198 29.0915C54.1158 29.2568 54.5416 29.1466 54.9625 29.1616C55.2029 29.1716 55.7039 29.1766 55.6438 29.377C55.5737 29.6225 53.4795 29.848 53.0186 29.4722C52.8181 29.3069 52.7731 28.9913 52.4173 29.0113C52.1769 29.0113 52.1468 29.1866 52.4123 29.4672C53.3392 30.6496 55.3532 30.4392 56.726 30.2287C57.207 30.1536 56.8963 30.7798 57.0817 30.845C57.8633 31.1055 58.8352 29.1065 59.5667 28.7257C60.3934 28.2999 61.9565 24.873 60.8643 23.6054C59.722 22.0573 58.3543 23.0243 54.9124 22.4882C53.1939 22.2176 51.9865 21.8569 51.2801 23.1345C51.2049 23.2447 51.0797 23.5804 50.6789 23.881C50.4233 24.0714 50.1528 24.1766 50.1528 24.4171C50.1528 24.6375 50.2831 24.6325 50.6187 24.6225C51.2249 24.6125 51.4955 23.9361 51.7159 24.0914L51.726 24.1014ZM31.1346 53.1097C31.4252 52.764 31.7458 52.3532 32.2017 51.8823C32.7428 51.3261 33.4091 50.7099 33.1937 50.4444C32.4622 50.2039 32.1316 51.0556 31.6406 51.5616C31.355 51.8522 30.8089 52.3783 30.5885 52.7039C30.333 52.8392 30.1676 52.769 30.4883 52.3131C30.6386 52.1027 30.6636 52.0276 30.7538 51.8622C31.1696 51.1157 31.33 51.0406 31.5053 50.8652C31.6706 50.6798 31.9612 50.244 31.5855 49.9834C31.2648 49.8281 30.1877 51.4263 29.7969 52.1227C28.7147 53.8512 27.6927 55.5997 26.6105 57.3232C26.4451 57.5637 26.2047 58.0196 26.385 58.0947C26.7007 58.1949 27.5774 57.8042 27.7929 57.4184C28.0784 57.1178 28.2989 56.6368 28.5243 56.3312L31.1346 53.1047V53.1097ZM25.2127 56.8973C25.5534 57.0226 25.6536 56.742 26.5654 55.4344L28.9652 52.1779C29.2558 51.8221 30.5233 50.5847 29.832 50.4744C29.0604 50.3492 28.4041 51.742 27.3119 53.3552L25.4281 55.9003C25.1525 56.251 24.9171 56.5767 25.2127 56.9024V56.8973ZM24.1155 55.1689C24.6916 55.2691 25.0624 54.5176 25.6385 53.8061C25.874 53.5155 26.0443 53.3252 26.3199 53.0747C26.7808 52.6488 27.1716 52.268 26.9862 52.1077C26.3299 51.5566 25.9041 52.2831 25.2578 53.0696C24.8319 53.5857 23.6245 54.8833 24.1155 55.1689ZM54.251 57.5186C54.3362 57.5486 54.1859 57.5637 54.727 57.6238C54.9174 57.6438 54.8923 57.6088 55.0927 57.5537L54.8322 57.233C54.6368 57.6238 55.228 57.5436 54.251 57.5186ZM63.6349 45.6447L63.5297 45.3491L63.199 45.269L63.6349 45.6447ZM65.9846 28.4852C65.8293 28.4852 65.7792 28.5955 65.7792 28.6906C65.7792 28.7858 65.9245 28.841 66.0798 28.841C66.2351 28.841 66.3053 28.6656 66.3053 28.5704C66.3053 28.4752 66.1349 28.4902 65.9796 28.4902L65.9846 28.4852Z" fill="#7A562B"/>
<rect width="26.0357" height="6.84279" rx="3.42139" transform="matrix(0.904748 -0.425947 0.37636 0.926474 73.8689 40.0213)" fill="#27B2FF"/>
<rect width="26.0357" height="6.84279" rx="3.42139" transform="matrix(0.904748 -0.425947 0.37636 0.926474 73.8689 48.7361)" fill="#FFD500"/>
<path d="M23.5099 44.0101L22.7052 46.5511L18.1201 52.8299L11.5424 45.9531L13.2169 41.7529C13.357 40.6365 13.7006 39.558 14.1478 38.5573C15.6649 35.1665 18.3733 32.6746 18.3733 32.6746C18.3733 32.6746 22.7171 36.6702 23.4832 41.4286C23.6188 42.2705 23.6427 43.1377 23.5099 44.0101Z" fill="#498960"/>
<path d="M23.4832 41.4286C22.5423 41.8784 21.4891 42.1303 20.376 42.1303C17.7207 42.1303 15.3996 40.6949 14.1478 38.5573C15.6648 35.1664 18.3733 32.6746 18.3733 32.6746C18.3733 32.6746 22.717 36.6702 23.4832 41.4286Z" fill="#60A571"/>
<path d="M18.3732 45.3607C18.098 45.3607 17.8749 45.1376 17.8749 44.8624V39.0352C17.8749 38.76 18.098 38.5369 18.3732 38.5369C18.6485 38.5369 18.8716 38.76 18.8716 39.0352V44.8624C18.8716 45.1376 18.6485 45.3607 18.3732 45.3607Z" fill="#336D4D"/>
<path d="M18.3732 43.4276C18.241 43.4276 18.1142 43.3751 18.0208 43.2816L15.464 40.7248C15.2694 40.5301 15.2694 40.2146 15.464 40.02C15.6587 39.8254 15.9743 39.8254 16.1688 40.02L18.3732 42.2245L20.5776 40.02C20.7724 39.8253 21.0879 39.8254 21.2824 40.02C21.4769 40.2147 21.477 40.5302 21.2824 40.7248L18.7255 43.2816C18.6321 43.375 18.5054 43.4276 18.3732 43.4276Z" fill="#336D4D"/>
<path d="M17.6981 53.8034L12.317 57.9093C7.45636 58.9239 2.00018 55.9065 2.00018 55.9065C2.00018 55.9065 3.25013 53.1183 5.54261 50.7228C6.0795 50.162 6.67292 49.6231 7.32145 49.1459L11.1436 43.7602L15.0661 49.7705L17.6981 53.8034Z" fill="#60A571"/>
<path d="M15.0661 49.7706C15.0216 50.5966 14.8907 51.4896 14.6608 52.4565C10.3076 53.4924 7.43573 52.5163 5.5426 50.7228C6.0795 50.162 6.67292 49.6231 7.32145 49.1459L11.1436 43.7602L15.0661 49.7706Z" fill="#498960"/>
<path d="M14.7676 49.6747C17.9642 36.2454 2.00551 36.9126 2.00551 36.9126C2.00551 36.9126 1.33829 52.8713 14.7676 49.6747Z" fill="#60A571"/>
<path d="M16.3363 51.7417C16.2088 51.7417 16.0811 51.693 15.9839 51.5957L6.15069 41.7626C5.95604 41.5679 5.95604 41.2524 6.15069 41.0579C6.34534 40.8632 6.6609 40.8632 6.85542 41.0579L16.6886 50.891C16.8832 51.0856 16.8832 51.4012 16.6886 51.5957C16.5914 51.693 16.4637 51.7417 16.3363 51.7417Z" fill="#336D4D"/>
<path d="M9.25664 44.6621H5.64081C5.36559 44.6621 5.14246 44.439 5.14246 44.1638C5.14246 43.8885 5.36559 43.6654 5.64081 43.6654H8.75836V40.5479C8.75836 40.2726 8.98149 40.0495 9.25671 40.0495C9.53192 40.0495 9.75506 40.2726 9.75506 40.5479V44.1638C9.755 44.439 9.53192 44.6621 9.25664 44.6621Z" fill="#336D4D"/>
<path d="M5.46874 55.2474C5.26017 55.2474 5.06572 55.1154 4.99611 54.9066C4.90897 54.6455 5.04999 54.3633 5.31109 54.2761L14.2207 51.303C14.4819 51.216 14.7641 51.3569 14.8512 51.618C14.9384 51.8791 14.7973 52.1614 14.5362 52.2485L5.62659 55.2217C5.57425 55.2391 5.52108 55.2474 5.46874 55.2474Z" fill="#336D4D"/>
<path d="M8.49011 56.9789C8.41528 56.9789 8.33929 56.962 8.26774 56.9262C8.02153 56.8032 7.92169 56.5039 8.04467 56.2576L9.43796 53.4687L6.64906 52.0755C6.40285 51.9525 6.30301 51.6532 6.42599 51.4069C6.54897 51.1607 6.84829 51.0608 7.09463 51.1838L10.3293 52.7998C10.4475 52.8589 10.5375 52.9625 10.5792 53.0878C10.6211 53.2132 10.6114 53.35 10.5523 53.4683L8.93632 56.703C8.84911 56.8778 8.67302 56.9789 8.49011 56.9789Z" fill="#336D4D"/>
<path d="M12.447 47.8526H7.8133C7.53808 47.8526 7.31494 47.6295 7.31494 47.3543C7.31494 47.0791 7.53808 46.8559 7.8133 46.8559H11.9487V42.7205C11.9487 42.4453 12.1718 42.2222 12.447 42.2222C12.7223 42.2222 12.9454 42.4453 12.9454 42.7205V47.3543C12.9455 47.6295 12.7223 47.8526 12.447 47.8526Z" fill="#336D4D"/>
<path d="M21.9753 56.4972C25.7468 56.4972 28.8042 53.4397 28.8042 49.6682C28.8042 45.8967 25.7468 42.8392 21.9753 42.8392C18.2037 42.8392 15.1463 45.8967 15.1463 49.6682C15.1463 53.4397 18.2037 56.4972 21.9753 56.4972Z" fill="#ED4444"/>
<path d="M19.2734 49.668C19.2734 46.6158 21.2759 44.0316 24.0387 43.1567C23.3876 42.9505 22.6943 42.8389 21.9748 42.8389C18.2032 42.8389 15.1458 45.8965 15.1458 49.668C15.1458 53.4396 18.2032 56.4971 21.9748 56.4971C22.6942 56.4971 23.3875 56.3855 24.0387 56.1793C21.276 55.3045 19.2734 52.7203 19.2734 49.668Z" fill="#C73636"/>
<path d="M28.171 58.7179C31.9425 58.7179 35 55.6605 35 51.889C35 48.1174 31.9425 45.06 28.171 45.06C24.3995 45.06 21.342 48.1174 21.342 51.889C21.342 55.6605 24.3995 58.7179 28.171 58.7179Z" fill="#ED4444"/>
<path d="M25.4696 51.8891C25.4696 48.8369 27.4721 46.2526 30.2349 45.3778C29.5838 45.1716 28.8905 45.06 28.171 45.06C24.3994 45.06 21.3419 48.1175 21.3419 51.8891C21.3419 55.6607 24.3994 58.7181 28.171 58.7181C28.8904 58.7181 29.5836 58.6065 30.2349 58.4004C27.4721 57.5255 25.4696 54.9413 25.4696 51.8891Z" fill="#C73636"/>
<path d="M18.7066 62.3254C22.4782 62.3254 25.5356 59.268 25.5356 55.4964C25.5356 51.7249 22.4782 48.6675 18.7066 48.6675C14.9351 48.6675 11.8777 51.7249 11.8777 55.4964C11.8777 59.268 14.9351 62.3254 18.7066 62.3254Z" fill="#ED4444"/>
<path d="M16.0053 55.4964C16.0053 52.4442 18.0078 49.8599 20.7706 48.9851C20.1195 48.7789 19.4262 48.6673 18.7067 48.6673C14.9351 48.6673 11.8776 51.7248 11.8776 55.4964C11.8776 59.2679 14.9351 62.3254 18.7067 62.3254C19.4261 62.3254 20.1194 62.2139 20.7706 62.0077C18.0079 61.1328 16.0053 58.5486 16.0053 55.4964Z" fill="#C73636"/>
<path d="M20.6118 57.5943C21.6118 57.5943 22.4225 56.7836 22.4225 55.7836C22.4225 54.7835 21.6118 53.9728 20.6118 53.9728C19.6117 53.9728 18.801 54.7835 18.801 55.7836C18.801 56.7836 19.6117 57.5943 20.6118 57.5943Z" fill="#333333"/>
<path d="M28.0388 49.1885C29.2105 49.1885 30.1603 48.7036 30.1603 48.1054C30.1603 47.5071 29.2105 47.0222 28.0388 47.0222C26.8672 47.0222 25.9174 47.5071 25.9174 48.1054C25.9174 48.7036 26.8672 49.1885 28.0388 49.1885Z" fill="#333333"/>
</svg>
