<svg width="64" height="64" viewBox="0 0 64 64" fill="none" xmlns="http://www.w3.org/2000/svg">
<path d="M54 1.5H10V5.5H54V1.5Z" fill="#F7D291"/>
<path d="M27 1.5H10V5.5H27V1.5Z" fill="#F0C382"/>
<path d="M53 5.5H19.0002H14.9999H11C5.47713 5.5 1 9.97713 1 15.5C1 21.0229 5.47713 25.5 11 25.5C15.4183 25.5 19 21.9183 19 17.5H45C45 21.9183 48.5817 25.5 53 25.5C58.5229 25.5 63 21.0229 63 15.5C63 9.97713 58.5229 5.5 53 5.5Z" fill="#F7D291"/>
<path d="M53 9.5V8.5H11V9.5C15.4183 9.5 19 13.0817 19 17.5H45C45 13.0817 48.5817 9.5 53 9.5Z" fill="#F0C382"/>
<path d="M53 17.5H11V62.5C11 63.0522 11.4477 63.5 12 63.5H52C52.5522 63.5 53 63.0522 53 62.5V17.5Z" fill="#FFE1A0"/>
<path d="M11 17.5V62.5C11 63.0522 11.4477 63.5 12 63.5H27V17.5H11Z" fill="#F7D291"/>
<path d="M48 20.5H16V22.5H48V20.5Z" fill="#F0C382"/>
<path d="M27 20.5H16V22.5H27V20.5Z" fill="#E3AA75"/>
<path d="M22 25.5C20.3431 25.5 19 26.8431 19 28.5V63.5H25V28.5C25 26.8431 23.6569 25.5 22 25.5Z" fill="#F0C382"/>
<path d="M32 25.5C30.3431 25.5 29 26.8431 29 28.5V63.5H35V28.5C35 26.8431 33.6569 25.5 32 25.5Z" fill="#F7D291"/>
<path d="M42 25.5C40.3431 25.5 39 26.8431 39 28.5V63.5H45V28.5C45 26.8431 43.6569 25.5 42 25.5Z" fill="#F7D291"/>
<path d="M53 62.5V25.6838C52.6858 25.572 52.3525 25.5 52 25.5C50.3431 25.5 49 26.8431 49 28.5V63.5H52C52.5522 63.5 53 63.0522 53 62.5Z" fill="#F7D291"/>
<path d="M11 62.5V25.6838C11.3142 25.572 11.6475 25.5 12 25.5C13.6569 25.5 15 26.8431 15 28.5V63.5H12C11.4477 63.5 11 63.0522 11 62.5Z" fill="#F0C382"/>
<path d="M42 25.5C41.6475 25.5 41.3142 25.572 41 25.6838C42.1625 26.097 43 27.1957 43 28.5V63.5H45V28.5C45 26.8431 43.6569 25.5 42 25.5Z" fill="#F0C382"/>
<path d="M32 25.5C31.6475 25.5 31.3142 25.572 31 25.6838C32.1625 26.097 33 27.1957 33 28.5V63.5H35V28.5C35 26.8431 33.6569 25.5 32 25.5Z" fill="#F0C382"/>
<path d="M22 25.5C21.6475 25.5 21.3142 25.572 21 25.6838C22.1625 26.097 23 27.1957 23 28.5V63.5H25V28.5C25 26.8431 23.6569 25.5 22 25.5Z" fill="#E3AA75"/>
<path d="M12 25.5C11.6475 25.5 11.3142 25.572 11 25.6838C12.1625 26.097 13 27.1957 13 28.5V63.5H15V28.5C15 26.8431 13.6569 25.5 12 25.5Z" fill="#E3AA75"/>
<path d="M55 2.5H9C8.44725 2.5 8 2.05225 8 1.5C8 0.94775 8.44725 0.5 9 0.5H55C55.5527 0.5 56 0.94775 56 1.5C56 2.05225 55.5527 2.5 55 2.5Z" fill="#FFE1A0"/>
<path d="M41.5 11.5C40.2423 11.5 39.0694 12.0635 38.2812 13.0469L36.1572 15.7036C35.752 16.2095 35.1475 16.5 34.5 16.5C33.6729 16.5 33 15.8271 33 15C33 14.1729 33.6729 13.5 34.5 13.5C35.0527 13.5 35.5 13.0523 35.5 12.5C35.5 11.9477 35.0527 11.5 34.5 11.5C33.5203 11.5 32.636 11.9073 32 12.5583C31.364 11.9073 30.4797 11.5 29.5 11.5C28.9473 11.5 28.5 11.9477 28.5 12.5C28.5 13.0523 28.9473 13.5 29.5 13.5C30.3271 13.5 31 14.1729 31 15C31 15.8271 30.3271 16.5 29.5 16.5C28.8525 16.5 28.248 16.2095 27.8438 15.7041L25.7178 13.0464C24.9306 12.0635 23.7578 11.5 22.5 11.5C20.5703 11.5 19 13.0703 19 15C19 16.9297 20.5703 18.5 22.5 18.5C23.0528 18.5 23.5 18.0522 23.5 17.5C23.5 16.9478 23.0528 16.5 22.5 16.5C21.6729 16.5 21 15.8271 21 15C21 14.1729 21.6729 13.5 22.5 13.5C23.1475 13.5 23.752 13.7905 24.1562 14.2959L26.2822 16.9536C27.0694 17.9365 28.2423 18.5 29.5 18.5C30.4797 18.5 31.364 18.0927 32 17.4417C32.636 18.0927 33.5203 18.5 34.5 18.5C35.7577 18.5 36.9306 17.9365 37.7188 16.9531L39.8428 14.2964C40.248 13.7905 40.8525 13.5 41.5 13.5C42.3271 13.5 43 14.1729 43 15C43 15.8271 42.3271 16.5 41.5 16.5C40.9473 16.5 40.5 16.9478 40.5 17.5C40.5 18.0522 40.9473 18.5 41.5 18.5C43.4298 18.5 45 16.9297 45 15C45 13.0703 43.4298 11.5 41.5 11.5Z" fill="#FFE1A0"/>
<path d="M11 25.5C15.4183 25.5 19 21.9183 19 17.5C19 13.0817 15.4183 9.5 11 9.5C6.58172 9.5 3 13.0817 3 17.5C3 21.9183 6.58172 25.5 11 25.5Z" fill="#F7D291"/>
<path d="M53 25.5C57.4183 25.5 61 21.9183 61 17.5C61 13.0817 57.4183 9.5 53 9.5C48.5817 9.5 45 13.0817 45 17.5C45 21.9183 48.5817 25.5 53 25.5Z" fill="#F7D291"/>
<path d="M53 26.5C48.0371 26.5 44 22.4624 44 17.5C44 12.5376 48.0371 8.5 53 8.5C56.8594 8.5 60 11.6401 60 15.5C60 19.3599 56.8594 22.5 53 22.5C50.2431 22.5 48 20.2569 48 17.5C48 14.7431 50.2431 12.5 53 12.5C54.6543 12.5 56 13.8457 56 15.5C56 17.1543 54.6543 18.5 53 18.5C52.4473 18.5 52 18.0522 52 17.5C52 16.9478 52.4473 16.5 53 16.5C53.5518 16.5 54 16.0513 54 15.5C54 14.9487 53.5518 14.5 53 14.5C51.3457 14.5 50 15.8457 50 17.5C50 19.1543 51.3457 20.5 53 20.5C55.7569 20.5 58 18.2569 58 15.5C58 12.7431 55.7569 10.5 53 10.5C49.1406 10.5 46 13.6401 46 17.5C46 21.3599 49.1406 24.5 53 24.5C57.9629 24.5 62 20.4624 62 15.5C62 10.5376 57.9629 6.5 53 6.5H11C6.03713 6.5 2 10.5376 2 15.5C2 20.4624 6.03713 24.5 11 24.5C14.8594 24.5 18 21.3599 18 17.5C18 13.6401 14.8594 10.5 11 10.5C8.24312 10.5 6 12.7431 6 15.5C6 18.2569 8.24312 20.5 11 20.5C12.6543 20.5 14 19.1543 14 17.5C14 15.8457 12.6543 14.5 11 14.5C10.4482 14.5 10 14.9487 10 15.5C10 16.0513 10.4482 16.5 11 16.5C11.5527 16.5 12 16.9478 12 17.5C12 18.0522 11.5527 18.5 11 18.5C9.34575 18.5 8 17.1543 8 15.5C8 13.8457 9.34575 12.5 11 12.5C13.7569 12.5 16 14.7431 16 17.5C16 20.2569 13.7569 22.5 11 22.5C7.14062 22.5 4 19.3599 4 15.5C4 11.6401 7.14062 8.5 11 8.5C15.9629 8.5 20 12.5376 20 17.5C20 22.4624 15.9629 26.5 11 26.5C4.93463 26.5 0 21.5654 0 15.5C0 9.43463 4.93463 4.5 11 4.5H53C59.0654 4.5 64 9.43463 64 15.5C64 21.5654 59.0654 26.5 53 26.5Z" fill="#FFE1A0"/>
<path d="M9 2.5H27V0.5H9C8.44775 0.5 8 0.94775 8 1.5C8 2.05225 8.44775 2.5 9 2.5Z" fill="#F7D291"/>
</svg>
